<svg width="72" height="72" viewBox="0 0 72 72" fill="none" xmlns="http://www.w3.org/2000/svg">
<path fill-rule="evenodd" clip-rule="evenodd" d="M48.8458 32.1571C49.0554 32.3661 49.2216 32.6144 49.335 32.8878C49.4485 33.1611 49.5069 33.4542 49.5069 33.7501C49.5069 34.0461 49.4485 34.3391 49.335 34.6125C49.2216 34.8858 49.0554 35.1341 48.8458 35.3431L35.3458 48.8431C35.1368 49.0527 34.8885 49.2189 34.6152 49.3323C34.3418 49.4457 34.0488 49.5041 33.7528 49.5041C33.4569 49.5041 33.1638 49.4457 32.8905 49.3323C32.6171 49.2189 32.3688 49.0527 32.1598 48.8431L25.4098 42.0931C25.2006 41.8839 25.0347 41.6356 24.9215 41.3622C24.8083 41.0889 24.75 40.796 24.75 40.5001C24.75 40.2043 24.8083 39.9113 24.9215 39.638C25.0347 39.3647 25.2006 39.1163 25.4098 38.9071C25.8323 38.4846 26.4054 38.2473 27.0028 38.2473C27.2987 38.2473 27.5916 38.3055 27.865 38.4188C28.1383 38.532 28.3866 38.6979 28.5958 38.9071L33.7528 44.0686L45.6598 32.1571C45.8688 31.9476 46.1171 31.7813 46.3905 31.6679C46.6638 31.5545 46.9569 31.4961 47.2528 31.4961C47.5488 31.4961 47.8418 31.5545 48.1152 31.6679C48.3885 31.7813 48.6368 31.9476 48.8458 32.1571Z" fill="#167FE1"/>
<path d="M18 6.75H13.5C11.1131 6.75 8.82387 7.69821 7.13604 9.38604C5.44821 11.0739 4.5 13.3631 4.5 15.75V63C4.5 65.3869 5.44821 67.6761 7.13604 69.364C8.82387 71.0518 11.1131 72 13.5 72H58.5C60.8869 72 63.1761 71.0518 64.864 69.364C66.5518 67.6761 67.5 65.3869 67.5 63V15.75C67.5 13.3631 66.5518 11.0739 64.864 9.38604C63.1761 7.69821 60.8869 6.75 58.5 6.75H54V11.25H58.5C59.6935 11.25 60.8381 11.7241 61.682 12.568C62.5259 13.4119 63 14.5565 63 15.75V63C63 64.1935 62.5259 65.3381 61.682 66.182C60.8381 67.0259 59.6935 67.5 58.5 67.5H13.5C12.3065 67.5 11.1619 67.0259 10.318 66.182C9.47411 65.3381 9 64.1935 9 63V15.75C9 14.5565 9.47411 13.4119 10.318 12.568C11.1619 11.7241 12.3065 11.25 13.5 11.25H18V6.75Z" fill="#167FE1"/>
<path d="M42.75 4.5C43.3467 4.5 43.919 4.73705 44.341 5.15901C44.7629 5.58097 45 6.15326 45 6.75V11.25C45 11.8467 44.7629 12.419 44.341 12.841C43.919 13.2629 43.3467 13.5 42.75 13.5H29.25C28.6533 13.5 28.081 13.2629 27.659 12.841C27.2371 12.419 27 11.8467 27 11.25V6.75C27 6.15326 27.2371 5.58097 27.659 5.15901C28.081 4.73705 28.6533 4.5 29.25 4.5H42.75ZM29.25 0C27.4598 0 25.7429 0.711159 24.477 1.97703C23.2112 3.2429 22.5 4.95979 22.5 6.75V11.25C22.5 13.0402 23.2112 14.7571 24.477 16.023C25.7429 17.2888 27.4598 18 29.25 18H42.75C44.5402 18 46.2571 17.2888 47.523 16.023C48.7888 14.7571 49.5 13.0402 49.5 11.25V6.75C49.5 4.95979 48.7888 3.2429 47.523 1.97703C46.2571 0.711159 44.5402 0 42.75 0L29.25 0Z" fill="#167FE1"/>
</svg>
