<svg width="20" height="21" viewBox="0 0 20 21" fill="none" xmlns="http://www.w3.org/2000/svg">
<path fill-rule="evenodd" clip-rule="evenodd" d="M14.375 3.0002C14.1288 3.0002 13.885 3.0487 13.6575 3.14293C13.43 3.23716 13.2233 3.37527 13.0492 3.54938C12.8751 3.72349 12.737 3.93019 12.6427 4.15767C12.5485 4.38516 12.5 4.62897 12.5 4.8752C12.5 5.12143 12.5485 5.36525 12.6427 5.59273C12.737 5.82022 12.8751 6.02692 13.0492 6.20103C13.2233 6.37514 13.43 6.51325 13.6575 6.60748C13.885 6.7017 14.1288 6.7502 14.375 6.7502C14.8723 6.7502 15.3492 6.55266 15.7008 6.20103C16.0525 5.8494 16.25 5.37248 16.25 4.8752C16.25 4.37792 16.0525 3.90101 15.7008 3.54938C15.3492 3.19775 14.8723 3.0002 14.375 3.0002ZM11.3125 4.2502C11.4559 3.54377 11.8392 2.90866 12.3973 2.45247C12.9555 1.99628 13.6542 1.74707 14.375 1.74707C15.0958 1.74707 15.7945 1.99628 16.3527 2.45247C16.9108 2.90866 17.2941 3.54377 17.4375 4.2502H20V5.5002H17.4375C17.2941 6.20663 16.9108 6.84175 16.3527 7.29794C15.7945 7.75413 15.0958 8.00334 14.375 8.00334C13.6542 8.00334 12.9555 7.75413 12.3973 7.29794C11.8392 6.84175 11.4559 6.20663 11.3125 5.5002H0V4.2502H11.3125ZM5.625 9.2502C5.12772 9.2502 4.65081 9.44775 4.29917 9.79938C3.94754 10.151 3.75 10.6279 3.75 11.1252C3.75 11.6225 3.94754 12.0994 4.29917 12.451C4.65081 12.8027 5.12772 13.0002 5.625 13.0002C6.12228 13.0002 6.59919 12.8027 6.95083 12.451C7.30246 12.0994 7.5 11.6225 7.5 11.1252C7.5 10.6279 7.30246 10.151 6.95083 9.79938C6.59919 9.44775 6.12228 9.2502 5.625 9.2502ZM2.5625 10.5002C2.70595 9.79377 3.08921 9.15866 3.64734 8.70247C4.20547 8.24628 4.90415 7.99707 5.625 7.99707C6.34585 7.99707 7.04453 8.24628 7.60266 8.70247C8.16079 9.15866 8.54405 9.79377 8.6875 10.5002H20V11.7502H8.6875C8.54405 12.4566 8.16079 13.0917 7.60266 13.5479C7.04453 14.0041 6.34585 14.2533 5.625 14.2533C4.90415 14.2533 4.20547 14.0041 3.64734 13.5479C3.08921 13.0917 2.70595 12.4566 2.5625 11.7502H0V10.5002H2.5625ZM14.375 15.5002C13.8777 15.5002 13.4008 15.6977 13.0492 16.0494C12.6975 16.401 12.5 16.8779 12.5 17.3752C12.5 17.8725 12.6975 18.3494 13.0492 18.701C13.4008 19.0527 13.8777 19.2502 14.375 19.2502C14.8723 19.2502 15.3492 19.0527 15.7008 18.701C16.0525 18.3494 16.25 17.8725 16.25 17.3752C16.25 16.8779 16.0525 16.401 15.7008 16.0494C15.3492 15.6977 14.8723 15.5002 14.375 15.5002ZM11.3125 16.7502C11.4559 16.0438 11.8392 15.4087 12.3973 14.9525C12.9555 14.4963 13.6542 14.2471 14.375 14.2471C15.0958 14.2471 15.7945 14.4963 16.3527 14.9525C16.9108 15.4087 17.2941 16.0438 17.4375 16.7502H20V18.0002H17.4375C17.2941 18.7066 16.9108 19.3417 16.3527 19.7979C15.7945 20.2541 15.0958 20.5033 14.375 20.5033C13.6542 20.5033 12.9555 20.2541 12.3973 19.7979C11.8392 19.3417 11.4559 18.7066 11.3125 18.0002H0V16.7502H11.3125Z" fill="#262B2F"/>
</svg>
