<svg width="80" height="32" viewBox="0 0 80 32" fill="none" xmlns="http://www.w3.org/2000/svg">
<path d="M31.7984 25.7734C33.6211 25.7734 35.0481 25.3752 36.0794 24.5788C37.1197 23.7825 37.6398 22.6842 37.6398 21.284C37.6398 20.5489 37.4842 19.9276 37.173 19.4201C36.8707 18.9125 36.3639 18.4749 35.6526 18.1074C34.9414 17.7311 33.9811 17.3898 32.772 17.0835C31.6428 16.8035 30.7893 16.5628 30.2114 16.3615C29.6423 16.1515 29.2556 15.9415 29.0511 15.7315C28.8466 15.5127 28.7443 15.2458 28.7443 14.9307C28.7443 14.3882 29.0066 13.9637 29.5312 13.6574C30.0558 13.3424 30.7404 13.2024 31.585 13.2374C32.4652 13.2724 33.1809 13.4912 33.7322 13.8937C34.2834 14.2875 34.7129 14.7774 34.8107 15.4513C34.8107 15.4513 35.5591 15.6408 36.3549 15.4952C37.2223 15.3365 37.5598 14.9832 37.5598 14.9832C37.3997 13.7231 36.7729 12.7167 35.6793 11.9641C34.5857 11.2028 33.2121 10.8221 31.5583 10.8221C29.8691 10.8221 28.5132 11.2115 27.4907 11.9904C26.4682 12.7605 25.957 13.7887 25.957 15.0751C25.957 15.7665 26.1082 16.3572 26.4105 16.8472C26.7216 17.3285 27.2373 17.7486 27.9575 18.1074C28.6865 18.4662 29.669 18.8075 30.9049 19.1313C32.034 19.4288 32.8742 19.6782 33.4254 19.8795C33.9767 20.0808 34.3368 20.2952 34.5057 20.5227C34.6835 20.7415 34.7724 21.0303 34.7724 21.3891C34.7724 22.0016 34.5235 22.4829 34.0256 22.833C33.5366 23.183 32.8564 23.3581 31.9851 23.3581C31.0249 23.3581 30.2202 23.148 29.5712 22.728C28.931 22.3079 28.4024 21.7008 28.2246 20.9569C28.2246 20.9569 27.6833 20.6905 26.7811 20.7793C25.9534 20.8608 25.4902 21.4153 25.4902 21.4153C25.7392 22.798 26.4149 23.87 27.5174 24.6313C28.6199 25.3927 30.0469 25.7734 31.7984 25.7734Z" fill="white"/>
<path d="M48.8326 25.3927C48.8326 25.3927 49.0655 24.953 49.0655 24.2426C49.0655 23.4434 48.8326 23.0693 48.8326 23.0693C47.8902 23.2093 47.0678 23.2399 46.3654 23.1612C45.6719 23.0736 45.1651 22.763 44.845 22.2292C44.6761 21.9404 44.5827 21.586 44.565 21.1659C44.5561 20.7458 44.5516 20.2514 44.5516 19.6826V13.4212H48.8326C48.8326 13.4212 48.9752 13.2065 48.9752 12.3433C48.9752 11.48 48.8326 11.2159 48.8326 11.2159H44.5516V7.27788C44.5516 7.27788 44.2838 7.104 43.1513 7.104C42.1185 7.104 41.751 7.27788 41.751 7.27788V11.2159H38.9903C38.9903 11.2159 38.8706 11.4552 38.8706 12.3185C38.8706 13.2313 38.9903 13.4212 38.9903 13.4212H41.751V19.8139C41.751 20.584 41.7599 21.2753 41.7776 21.8879C41.8043 22.4917 41.9732 23.0868 42.2844 23.6731C42.6401 24.3294 43.1602 24.8107 43.8448 25.117C44.5294 25.4233 45.3074 25.5896 46.1787 25.6158C47.05 25.6421 47.9346 25.5677 48.8326 25.3927Z" fill="white"/>
<path d="M57.5803 25.7865C58.9762 25.7865 60.2432 25.4408 61.3812 24.7495C62.5193 24.0494 63.3684 23.0649 63.9285 21.796C63.9285 21.796 63.5007 21.4009 62.5985 21.1345C61.4231 20.7875 61.1945 20.9427 61.1945 20.9427C60.4655 22.4479 59.2163 23.2005 57.447 23.2005C56.2378 23.2005 55.2865 22.8417 54.593 22.1241C53.8995 21.4066 53.4949 20.3914 53.3793 19.0788H64.1152C64.213 17.381 64.0085 15.9152 63.5017 14.6813C62.9949 13.4474 62.2259 12.4979 61.1945 11.8328C60.1632 11.159 58.914 10.8221 57.447 10.8221C56.0422 10.8221 54.8108 11.1327 53.7528 11.7541C52.6947 12.3754 51.8679 13.2549 51.2722 14.3925C50.6854 15.5302 50.392 16.8735 50.392 18.4224C50.392 19.8839 50.6898 21.1703 51.2855 22.2817C51.8901 23.3843 52.7303 24.2463 53.8061 24.8676C54.8908 25.4802 56.1489 25.7865 57.5803 25.7865ZM57.5537 13.2505C59.732 13.2505 60.9678 14.48 61.2612 16.9391H53.446C53.6238 15.7402 54.0551 14.8257 54.7397 14.1956C55.4243 13.5656 56.3623 13.2505 57.5537 13.2505Z" fill="white"/>
<path d="M66.7033 31.6935C66.7033 31.6935 66.8668 31.9999 68.0907 31.9999C69.3147 31.9999 69.504 31.6935 69.504 31.6935V24.3951C70.0108 24.8414 70.5931 25.1827 71.2511 25.4189C71.9179 25.664 72.6603 25.7865 73.4783 25.7865C74.8208 25.7865 75.9766 25.4583 76.9458 24.802C77.9238 24.1369 78.6751 23.2399 79.1996 22.111C79.7331 20.9821 79.9998 19.7088 79.9998 18.2912C79.9998 16.8647 79.7331 15.5914 79.1996 14.4713C78.6662 13.3424 77.906 12.4542 76.9191 11.8066C75.9411 11.1502 74.7763 10.8221 73.4249 10.8221C72.5358 10.8221 71.7356 10.9709 71.0244 11.2684C70.3131 11.5572 69.6996 11.9641 69.1839 12.4892V11.2159C69.1839 11.2159 68.5771 10.8653 67.9103 10.8653C67.2435 10.8653 66.7033 11.2159 66.7033 11.2159V31.6935ZM73.0915 23.3055C71.7223 23.3055 70.7265 22.8374 70.1041 21.901C69.4907 20.9646 69.1839 19.7613 69.1839 18.2912C69.1839 16.821 69.4907 15.6221 70.1041 14.6945C70.7176 13.7668 71.6823 13.303 72.9982 13.303C73.9228 13.303 74.683 13.5262 75.2787 13.9725C75.8744 14.4188 76.3145 15.0182 76.599 15.7708C76.8924 16.5234 77.0391 17.3635 77.0391 18.2912C77.0391 19.2275 76.8969 20.0764 76.6123 20.8377C76.3278 21.5903 75.8922 22.1898 75.3054 22.6361C74.7275 23.0824 73.9895 23.3055 73.0915 23.3055Z" fill="white"/>
<path d="M0 25.317C0 25.317 0.619115 25.7522 1.94577 25.7522C3.27242 25.7522 3.83844 25.317 3.83844 25.317C3.83844 25.317 4.08867 22.1574 5.69575 20.4572C8.47665 17.5153 13.3556 17.5275 16.1498 20.4572C17.7675 22.1533 18.0424 25.317 18.0424 25.317C18.0424 25.317 18.75 25.7522 20.0767 25.7522C21.3318 25.7522 21.8809 25.317 21.8809 25.317L13.6026 0.246014C13.6026 0.246014 12.559 0 10.8962 0C9.23348 0 8.2783 0.246014 8.2783 0.246014L0 25.317ZM6.82783 16.2462L10.8962 3.88478L15.0177 16.2462C15.0177 16.2462 13.3108 15.306 10.7901 15.306C8.00415 15.306 6.82783 16.2462 6.82783 16.2462Z" fill="#167FE1"/>
</svg>
