<svg width="188" height="52" viewBox="0 0 188 52" fill="none" xmlns="http://www.w3.org/2000/svg">
<path d="M60.8096 28.1709H70.204V31.1219H64.3276V34.1509H66.282C67.598 34.1509 69.2919 34.3069 70.5688 35.5549C71.1161 36.1009 71.7936 37.1019 71.7936 38.7139C71.7936 40.0139 71.3636 41.1709 70.5688 41.9639C69.4483 43.0819 67.8326 43.3289 65.9824 43.3289H60.8096V28.1709ZM65.7087 40.5079C66.1908 40.5079 67.0508 40.4689 67.5981 40.0269C67.7805 39.8709 68.1844 39.4549 68.1844 38.6879C68.1844 37.9599 67.8196 37.5049 67.5068 37.2839C66.9596 36.8939 66.0736 36.8809 65.7087 36.8809H64.3146V40.5209H65.7087V40.5079Z" fill="#2B2D33"/>
<path d="M81.253 33.1891H84.5365V43.3291H81.253V42.1071C80.367 43.4721 79.0901 43.6801 78.2432 43.6801C76.7839 43.6801 75.5591 43.3161 74.4385 42.1331C73.3701 41.0021 72.9531 39.6761 72.9531 38.3371C72.9531 36.6341 73.5916 35.1781 74.5297 34.2421C75.4157 33.3581 76.6536 32.8511 78.0608 32.8511C78.9207 32.8511 80.3149 33.0591 81.253 34.3331V33.1891ZM77.0835 36.4001C76.7448 36.7381 76.3278 37.3361 76.3278 38.2461C76.3278 39.1561 76.7187 39.7411 77.0054 40.0661C77.4614 40.5471 78.165 40.8591 78.9468 40.8591C79.6113 40.8591 80.2237 40.5861 80.6537 40.1571C81.0837 39.7541 81.4485 39.1171 81.4485 38.2461C81.4485 37.5181 81.1749 36.8421 80.6928 36.3871C80.1976 35.9061 79.468 35.6851 78.8686 35.6851C78.165 35.6721 77.5135 35.9711 77.0835 36.4001Z" fill="#2B2D33"/>
<path d="M86.5176 33.189H89.8011V36.712H93.4753V33.189H96.7587V43.329H93.4753V39.351H89.8011V43.329H86.5176V33.189Z" fill="#2B2D33"/>
<path d="M98.7256 33.189H102.009V37.219L105.332 33.189H109.41L105.058 37.895L109.71 43.329H105.475L102.009 38.831V43.329H98.7256V33.189Z" fill="#2B2D33"/>
<path d="M66.1644 8.6709C67.4804 8.6709 68.9398 8.8529 70.1515 9.91891C71.4545 11.0499 71.6369 12.5579 71.6369 13.5979C71.6369 15.5089 70.9073 16.5749 70.334 17.1729C69.1222 18.3949 67.5326 18.5119 66.4641 18.5119H64.3273V23.8289H60.8223V8.6709H66.1644ZM64.3142 15.6519H65.5651C66.0472 15.6519 66.8811 15.6259 67.4544 15.0799C67.7671 14.7679 68.0277 14.2349 68.0277 13.5849C68.0277 12.9479 67.8062 12.4279 67.4544 12.1029C66.9332 11.6089 66.1775 11.5309 65.4999 11.5309H64.3142V15.6519Z" fill="#2B2D33"/>
<path d="M80.1984 13.6891H83.4818V23.8291H80.1984V22.6071C79.3123 23.9721 78.0354 24.1801 77.1885 24.1801C75.7292 24.1801 74.5044 23.8161 73.3838 22.6331C72.3154 21.5021 71.8984 20.1761 71.8984 18.8371C71.8984 17.1341 72.5369 15.6781 73.475 14.7421C74.3611 13.8581 75.5989 13.3511 77.0061 13.3511C77.866 13.3511 79.2602 13.5591 80.1984 14.8331V13.6891ZM76.0289 16.9001C75.6901 17.2381 75.2731 17.8361 75.2731 18.7461C75.2731 19.6561 75.664 20.2411 75.9507 20.5661C76.4067 21.0471 77.1103 21.3591 77.8921 21.3591C78.5566 21.3591 79.169 21.0861 79.599 20.6571C80.029 20.2541 80.3938 19.6171 80.3938 18.7461C80.3938 18.0181 80.1202 17.3421 79.6381 16.8871C79.143 16.4061 78.4133 16.1851 77.8139 16.1851C77.1234 16.1721 76.4588 16.4711 76.0289 16.9001Z" fill="#2B2D33"/>
<path d="M88.7454 13.689V19.487L93.0711 13.689H96.12V23.829H92.8367V17.94L88.5109 23.829H85.4619V13.689H88.7454ZM94.9213 9.59398C94.6477 10.413 94.1004 11.115 93.462 11.531C92.6022 12.103 91.5468 12.168 90.7911 12.168C90.0353 12.168 88.993 12.103 88.12 11.531C87.4815 11.128 86.9343 10.413 86.6606 9.59398L88.9408 8.70996C89.0321 9.16496 89.2536 9.52898 89.5272 9.74998C89.8269 9.99698 90.2047 10.153 90.778 10.153C91.3513 10.153 91.7292 9.99698 92.0289 9.74998C92.3025 9.52898 92.524 9.16496 92.6152 8.70996L94.9213 9.59398Z" fill="#2B2D33"/>
<path d="M103.377 28.8859V23.9849H103.247C100.941 23.9849 99.6638 23.0359 99.0775 22.4639C98.3478 21.7619 97.6182 20.5529 97.6182 18.7069C97.6182 16.7049 98.5302 15.4309 99.3772 14.7549C100.38 13.9619 101.879 13.5329 103.234 13.5329H103.39V8.6709H106.674V13.5329H106.83C108.172 13.5329 109.684 13.9619 110.687 14.7549C111.534 15.4309 112.446 16.7049 112.446 18.7069C112.446 20.5529 111.716 21.7489 110.987 22.4639C110.4 23.0359 109.123 23.9849 106.817 23.9849H106.687V28.8859H103.377ZM103.534 16.1719C102.765 16.1329 101.957 16.3929 101.488 16.8739C101.097 17.2639 100.823 17.9139 100.823 18.7199C100.823 19.5129 101.097 20.1759 101.488 20.5789C101.918 21.0599 102.7 21.3719 103.534 21.3459V16.1719ZM106.504 21.3589C107.351 21.3849 108.12 21.0599 108.55 20.5919C108.941 20.1889 109.215 19.5259 109.215 18.7329C109.215 17.9399 108.941 17.2769 108.55 16.8869C108.068 16.4059 107.273 16.1329 106.504 16.1849V21.3589Z" fill="#2B2D33"/>
<path d="M119.169 28.8859V23.9849H119.039C116.733 23.9849 115.456 23.0359 114.869 22.4639C114.14 21.7619 113.41 20.5529 113.41 18.7069C113.41 16.7049 114.322 15.4309 115.169 14.7549C116.172 13.9619 117.671 13.5329 119.026 13.5329H119.182V8.6709H122.466V13.5329H122.622C123.964 13.5329 125.476 13.9619 126.479 14.7549C127.326 15.4309 128.238 16.7049 128.238 18.7069C128.238 20.5529 127.508 21.7489 126.779 22.4639C126.192 23.0359 124.915 23.9849 122.609 23.9849H122.479V28.8859H119.169ZM119.326 16.1719C118.557 16.1329 117.749 16.3929 117.28 16.8739C116.889 17.2639 116.615 17.9139 116.615 18.7199C116.615 19.5129 116.889 20.1759 117.28 20.5789C117.71 21.0599 118.492 21.3719 119.326 21.3459V16.1719ZM122.296 21.3589C123.143 21.3849 123.912 21.0599 124.342 20.5919C124.733 20.1889 125.007 19.5259 125.007 18.7329C125.007 17.9399 124.733 17.2769 124.342 16.8869C123.86 16.4059 123.065 16.1329 122.296 16.1849V21.3589Z" fill="#2B2D33"/>
<path d="M137.489 13.6891H140.773V23.8291H137.489V22.6071C136.603 23.9721 135.326 24.1801 134.48 24.1801C133.02 24.1801 131.795 23.8161 130.675 22.6331C129.606 21.5021 129.189 20.1761 129.189 18.8371C129.189 17.1341 129.828 15.6781 130.766 14.7421C131.652 13.8581 132.89 13.3511 134.297 13.3511C135.157 13.3511 136.551 13.5591 137.489 14.8331V13.6891ZM133.32 16.9001C132.981 17.2381 132.564 17.8361 132.564 18.7461C132.564 19.6561 132.955 20.2411 133.242 20.5661C133.698 21.0471 134.401 21.3591 135.183 21.3591C135.848 21.3591 136.46 21.0861 136.89 20.6571C137.32 20.2541 137.685 19.6171 137.685 18.7461C137.685 18.0181 137.411 17.3421 136.929 16.8871C136.434 16.4061 135.704 16.1851 135.105 16.1851C134.414 16.1721 133.75 16.4711 133.32 16.9001Z" fill="#2B2D33"/>
<path d="M146.037 13.689V19.487L150.363 13.689H153.412V23.829H150.129V17.94L145.803 23.829H142.754V13.689H146.037ZM152.213 9.59398C151.94 10.413 151.393 11.115 150.754 11.531C149.894 12.103 148.839 12.168 148.083 12.168C147.327 12.168 146.285 12.103 145.412 11.531C144.774 11.128 144.226 10.413 143.953 9.59398L146.233 8.70996C146.324 9.16496 146.546 9.52898 146.819 9.74998C147.119 9.99698 147.497 10.153 148.07 10.153C148.643 10.153 149.021 9.99698 149.321 9.74998C149.594 9.52898 149.816 9.16496 149.907 8.70996L152.213 9.59398Z" fill="#2B2D33"/>
<path d="M155.066 14.5601C155.496 14.2871 156.2 13.9231 156.747 13.7151C157.516 13.4421 158.363 13.3511 159.145 13.3511C159.692 13.3511 161.555 13.3901 162.584 14.3911C163.158 14.9371 163.34 15.5741 163.34 16.2501C163.34 16.8871 163.223 17.4591 162.728 17.9791C162.48 18.2261 162.181 18.4341 161.868 18.5511C162.624 18.7331 163.093 19.1361 163.236 19.2791C163.731 19.7601 163.914 20.3061 163.914 20.9561C163.914 21.6581 163.692 22.4121 163.027 23.0751C162.168 23.9201 160.982 24.1671 159.288 24.1671C158.376 24.1671 157.425 24.0501 156.513 23.7121C155.627 23.3741 154.962 22.8671 154.688 22.6461L156.083 20.4881C156.447 20.8001 156.93 21.1251 157.334 21.3071C157.763 21.4891 158.376 21.6191 158.91 21.6191C159.275 21.6191 159.77 21.5541 160.096 21.3721C160.487 21.1511 160.552 20.8261 160.552 20.6051C160.552 20.2671 160.369 20.0591 160.07 19.9291C159.796 19.8121 159.249 19.7471 158.884 19.7471H157.659V17.5241H158.597C158.897 17.5241 159.509 17.4851 159.822 17.3421C160.213 17.1601 160.304 16.8611 160.304 16.6661C160.304 16.4841 160.213 16.1851 159.809 16.0031C159.653 15.9381 159.327 15.8211 158.78 15.8211C158.259 15.8211 157.868 15.9121 157.438 16.0941C157.008 16.2761 156.669 16.4841 156.343 16.7571L155.066 14.5601Z" fill="#2B2D33"/>
<path d="M175.797 19.3309H168.214C168.214 19.8769 168.422 20.6049 168.826 21.0599C169.321 21.6059 170.012 21.6969 170.507 21.6969C170.989 21.6969 171.484 21.6059 171.823 21.3979C171.862 21.3719 172.253 21.1249 172.526 20.5529L175.627 20.8649C175.171 22.2949 174.259 23.0489 173.673 23.4129C172.696 23.9979 171.601 24.1669 170.455 24.1669C168.93 24.1669 167.588 23.8939 166.402 22.7109C165.516 21.8269 164.878 20.4879 164.878 18.7979C164.878 17.3419 165.399 15.8469 166.428 14.7939C167.653 13.5719 169.191 13.3379 170.324 13.3379C171.458 13.3379 173.1 13.5459 174.364 14.8589C175.575 16.1329 175.797 17.7189 175.797 18.9799V19.3309ZM172.774 17.3809C172.748 17.2899 172.592 16.6529 172.109 16.1979C171.745 15.8599 171.223 15.6259 170.559 15.6259C169.712 15.6259 169.217 15.9639 168.891 16.2889C168.644 16.5619 168.409 16.9259 168.318 17.3809H172.774Z" fill="#2B2D33"/>
<path d="M177.282 13.689H180.566V17.212H184.24V13.689H187.524V23.829H184.24V19.851H180.566V23.829H177.282V13.689Z" fill="#2B2D33"/>
<path d="M52.1188 42.172C52.1188 48.49 48.6008 52 42.2684 52H9.85046C3.51802 52 0 48.49 0 42.172V9.828C0 3.51 3.51802 0 9.85046 0H42.2814C48.6008 0 52.1188 3.51 52.1188 9.828V42.172Z" fill="#FEE600"/>
<path d="M33.5119 23.465V18.499L35.31 16.705V21.008L36.8736 22.568L43.1669 16.289L44.7175 17.836C44.7044 16.666 44.4699 13.273 41.5903 10.452C38.4893 7.46204 35.1276 8.81404 33.981 9.95801L27.7007 16.224L29.3033 17.823L26.0589 21.086L22.8145 17.849L24.4172 16.25L18.1369 9.98401C16.9903 8.84004 13.6286 7.48804 10.5275 10.478C7.64796 13.299 7.41342 16.692 7.40039 17.862L8.95093 16.315L15.2443 22.594L16.8078 21.034V16.731L18.6059 18.525V23.491L21.1337 26L8.6773 38.428L13.6025 43.329L26.0589 30.914L38.5153 43.342L43.4405 38.441L30.9842 26L33.5119 23.465Z" fill="#2B2D33"/>
</svg>
