<svg width="188" height="20" viewBox="0 0 188 20" fill="none" xmlns="http://www.w3.org/2000/svg">
<path d="M59.0609 6.47579C55.519 6.47579 52.648 9.36959 52.648 12.9386C52.648 16.5083 55.5188 19.4018 59.0609 19.4018C62.6027 19.4018 65.4735 16.5083 65.4735 12.9386C65.4737 9.36938 62.6027 6.47579 59.0609 6.47579ZM59.0609 16.7577C56.968 16.7577 55.2716 15.048 55.2716 12.9386C55.2716 10.8294 56.9677 9.1199 59.0609 9.1199C61.1538 9.1199 62.85 10.8294 62.85 12.9386C62.8502 15.048 61.1538 16.7577 59.0609 16.7577ZM6.19881 11.9727L2.9398 6.69022H0V19.185H2.6741V11.0806L6.1279 16.3635H6.19881L9.6874 11.0273V19.185H12.3973V6.69022H9.45702L6.19881 11.9727ZM33.3401 16.8642C31.2148 16.8642 29.7447 15.0791 29.7447 12.9371V12.9012C29.7447 10.7603 31.2499 9.01064 33.3401 9.01064C34.5803 9.01064 35.554 9.54622 36.5103 10.4207L38.2455 8.4039C37.0952 7.26158 35.695 6.47559 33.3569 6.47559C29.5499 6.47559 26.8935 9.38495 26.8935 12.9371V12.973C26.8935 16.5603 29.6024 19.398 33.2516 19.398C35.6428 19.398 37.0599 18.5416 38.3343 17.1684L36.5991 15.4007C35.6252 16.2923 34.7571 16.8642 33.3401 16.8642ZM73.9014 11.9727L70.6435 6.69022H67.7029V19.185H70.3778V11.0806L73.831 16.3635H73.9014L77.39 11.0273V19.185H80.1002V6.69022H77.1607L73.9014 11.9727ZM89.2737 11.9727L86.0149 6.69022H83.0753V19.185H85.7489V11.0806L89.2028 16.3635H89.2737L92.7631 11.0273V19.185H95.4735V6.69022H92.5318L89.2737 11.9727ZM101.157 14.1153H107.001V11.6701H101.157V9.13474H107.799V6.69022H98.4481V19.185H107.887V16.7391H101.157V14.1153ZM115.556 6.69022H110.492V19.185H113.219V15.4361H115.29C118.071 15.4361 120.302 13.9364 120.302 11.0456V11.0097C120.302 8.45738 118.514 6.69022 115.556 6.69022ZM117.539 11.0982C117.539 12.1699 116.742 12.9899 115.379 12.9899H113.219V9.17064H115.327C116.69 9.17064 117.54 9.83127 117.54 11.0628V11.0982H117.539ZM153.16 6.60116L147.846 19.1853H150.628L151.761 16.3832H157.004L158.137 19.1853H160.988L155.675 6.60116H153.16ZM152.735 13.9554L154.382 9.90306L156.03 13.9554H152.735ZM170.304 11.634H165.273V6.69022H162.547V19.185H165.273V14.1683H170.304V19.185H173.03V6.69022H170.304V11.634ZM141.979 11.1737H140.008V9.17064H145.222L146.239 6.69022H137.28V19.185H142.344C145.303 19.185 147.091 17.4551 147.091 15.143V15.1074C147.091 12.1121 145.02 11.1737 141.979 11.1737ZM142.114 16.7043H140.008V13.618H142.168C143.675 13.618 144.328 14.1567 144.328 15.1497C144.328 16.2725 143.368 16.7043 142.114 16.7043ZM132.84 6.69022H130.114V16.6499H125.32V6.69022H122.593V19.185H134.811V16.6499H132.84V6.69022ZM40.5128 19.185H43.2395V6.69022H40.5128V19.185ZM52.1168 6.69022H48.8229L44.0113 12.8335L49.0703 19.185H52.507L47.1539 12.8335L52.1168 6.69022ZM182.649 12.8335L187.609 6.69022H184.316L179.504 12.8335L184.565 19.185H188L182.649 12.8335ZM176.005 19.185H178.734V6.69022H176.005V19.185Z" fill="#008BB0"/>
<path d="M20.2927 0.0131836C16.7509 0.0131836 13.8799 2.90676 13.8799 6.47613C13.8799 10.0457 16.7506 12.9395 20.2927 12.9395C23.8346 12.9395 26.7053 10.0459 26.7053 6.47613C26.7056 2.90676 23.8346 0.0131836 20.2927 0.0131836ZM20.2927 10.2951C18.1998 10.2951 16.5034 8.58539 16.5034 6.47613C16.5034 4.36697 18.1995 2.65729 20.2927 2.65729C22.3859 2.65729 24.0818 4.36676 24.0818 6.47613C24.0818 8.58539 22.3859 10.2951 20.2927 10.2951Z" fill="#FDB924"/>
</svg>
