<svg width="188" height="28" viewBox="0 0 188 28" fill="none" xmlns="http://www.w3.org/2000/svg">
<path d="M75.4932 13.9078C75.4778 19.0001 72.8427 22.4771 70.0073 22.4617C67.0332 22.4463 64.4751 19.0001 64.4905 13.8617C64.5059 8.72322 67.0948 5.2463 70.0689 5.26168C72.9505 5.27707 75.5086 8.76937 75.4932 13.9078ZM78.7138 13.9694C78.7446 7.95399 74.8305 3.4463 70.0689 3.43091C65.2302 3.40014 61.2699 7.89245 61.2545 13.8925C61.2237 19.8155 65.184 24.2771 69.9918 24.3078C74.7073 24.3232 78.6984 19.8463 78.7138 13.9694ZM107.515 17.2771L100.966 17.2463L104.279 8.89245L107.515 17.2771ZM113.432 24.3232L105.512 4.10784H104.155L96.1269 24.2463L98.1764 24.2617L100.211 19.1386L108.239 19.1694L110.273 24.3078L113.432 24.3232ZM143.759 17.3232L137.21 17.2924L140.507 8.9386L143.759 17.3232ZM149.676 24.3694L141.755 4.15399H140.399L132.386 24.3078L134.436 24.3232L136.454 19.2001L144.498 19.2309L146.533 24.3694H149.676ZM188.016 24.3232L178.986 12.0463L187.307 4.1386L184.641 4.12322L176.32 12.0309L176.351 4.09245L170.587 4.07707L170.572 5.90783L173.407 5.92322L173.33 24.2771L176.258 24.2924L176.304 13.2001L184.425 24.3386L188.016 24.3232ZM88.6994 13.5078L86.5574 13.4924L86.5882 5.96937L88.7302 5.98476C91.3499 6.00014 92.9987 7.60014 92.9987 9.7386C92.9833 11.9848 91.3191 13.5232 88.6994 13.5078ZM89.963 4.16937L80.8404 4.12322V5.95399L83.6758 5.96937L83.5987 24.3078L86.5266 24.3232L86.5574 15.3848L89.8705 15.4001C93.3686 15.4155 95.942 12.954 95.9574 9.75399C95.9728 6.70783 93.3994 4.16937 89.963 4.16937ZM122.385 22.4309H120.721V13.3848L122.755 13.4001C126.207 13.4155 127.825 15.4463 127.902 17.6463C127.994 20.0924 126.037 22.5848 122.385 22.4309ZM129.828 8.81553V4.10784H120.721H117.839V22.4309H114.912V24.3078H123.341C128.549 24.3078 131.215 20.354 131.046 17.4463C130.861 14.1848 128.133 12.2925 125.313 11.7232C124.974 11.6463 124.681 11.6155 124.419 11.5848C123.556 11.5078 123.279 11.5848 120.706 11.554V5.87707L128.072 5.86168V6.15399V8.81553H129.828ZM49.2656 20.754V7.55399C49.7587 7.58476 50.4522 7.6463 50.8066 7.72322C53.1951 8.23091 54.8594 10.7232 54.8748 14.0463C54.8902 17.4001 52.8561 20.2771 50.144 20.6463C49.8666 20.6924 49.543 20.7232 49.2656 20.754ZM46.384 7.5386V20.7232C46.122 20.7078 45.7984 20.6771 45.5364 20.6309C42.8243 20.2617 40.7748 17.4001 40.8056 14.0309C40.821 10.6925 42.4853 8.20014 44.8738 7.70783C45.2128 7.63091 45.8755 7.56937 46.384 7.5386ZM49.2656 3.41553H43.5332V5.01553H46.3686V6.07707C46.045 6.09245 45.6751 6.10784 45.4594 6.12322C40.405 6.41553 37.7391 10.0001 37.7082 14.1232C37.6774 18.3848 40.7132 21.7848 45.4748 22.154C45.7214 22.1694 46.0758 22.1694 46.3686 22.1694V24.5694H49.2502V22.1848C49.543 22.1848 49.9128 22.1848 50.1748 22.1694C54.9364 21.8001 57.9722 18.4001 57.9414 14.1386C57.9105 10.0155 55.2446 6.41553 50.1902 6.12322C49.9591 6.10784 49.5892 6.09245 49.2502 6.07707V3.41553H49.2656ZM166.766 24.3232L166.843 4.1386L163.93 4.12322L163.899 11.6463L155.778 11.6155L155.809 4.09245L150.077 4.06168V5.89245L152.897 5.90783L152.835 24.2463L155.748 24.2617L155.794 13.4771L163.915 13.5078L163.869 24.2924L166.766 24.3232Z" fill="#1D1D1B"/>
<path d="M26.829 25.2616C23.7778 24.3385 18.8313 23.7231 13.2375 23.7231C7.79782 23.7231 2.95914 24.2924 -0.107422 25.1847V27.4308H26.8136V25.2462L26.829 25.2616Z" fill="#E30A18"/>
<path d="M13.3918 12.5695C18.8777 12.5849 23.963 15.4464 26.8292 18.431V16.1849C23.7318 11.7387 18.8469 8.86182 13.3456 8.86182C7.87509 8.8772 3.00558 11.7541 -0.0917969 16.1849V18.431C2.77443 15.4464 7.69017 12.7849 13.3456 12.5849C13.3456 12.5849 13.3456 12.6003 13.361 12.6003H13.3764C13.3918 12.6157 13.4072 12.6157 13.4072 12.5849C13.3918 12.5849 13.4072 12.5849 13.3918 12.5695Z" fill="#E30A18"/>
<path d="M13.33 20.0156H13.3608H13.3916C18.8621 20.0156 23.408 21.2617 26.8136 22.9232L26.829 22.9386V20.6771C23.5004 18.0617 18.8775 16.4463 13.3608 16.2925C7.84405 16.4463 3.23651 18.0617 -0.107422 20.6771V22.9232L-0.092012 22.9079C3.31356 21.2617 7.85946 20.0156 13.33 20.0156Z" fill="#E30A18"/>
<path d="M26.829 14.2309C23.7778 8.64626 18.8313 5.01549 13.2375 5.01549C7.79782 5.01549 2.95914 8.46164 -0.107422 13.8001V0.569336H26.8136V14.2463H26.829V14.2309Z" fill="#1D1D1B"/>
</svg>
