<svg width="134" height="22" viewBox="0 0 134 22" fill="none" xmlns="http://www.w3.org/2000/svg">
<path fill-rule="evenodd" clip-rule="evenodd" d="M0 13.2484C0 17.431 2.34819 21.6491 7.6065 21.6491C12.8601 21.6491 15.213 17.431 15.213 13.2484C15.213 10.3911 14.2481 7.10112 12.6376 4.44368C11.0714 1.87747 9.18965 0.351074 7.6065 0.351074C6.01883 0.351074 4.13621 1.87747 2.58365 4.44368C0.965572 7.10112 0 10.3911 0 13.2484ZM54.0055 6.62619H48.681V1.49197H65.0349V6.62619H59.7104V20.508H54.0055V6.62619ZM77.2047 6.62641H85.5724V1.49197H77.2054C69.5173 1.49197 65.4128 5.31423 65.4128 11.0001C65.4128 16.6859 69.5173 20.5082 77.2054 20.5082H85.5724V15.3738H77.2047C73.6475 15.3738 71.3077 14.102 71.3077 11.0001C71.3077 7.8981 73.6475 6.62641 77.2047 6.62641ZM34.0369 12.8424L37.0782 1.49197H47.1595V20.5082H41.4545V5.03069L37.3075 20.5082H30.7663L26.622 5.04052L26.6218 20.5082H20.9171V1.49197H30.9954L34.0369 12.8424ZM99.7794 7.00387H97.7676V8.86413H99.7794C100.289 8.86413 100.592 8.60227 100.592 8.11993V7.77557C100.592 7.27936 100.331 7.00387 99.7794 7.00387ZM100.289 10.9999H95.0805V1.49197H102.742V3.7657H97.7676V5.00565H100.289C102.397 5.00565 103.417 6.05306 103.417 7.89945C103.417 9.84218 102.397 10.9999 100.289 10.9999ZM109.617 7.11412H107.495L108.556 3.60045L109.617 7.11412ZM113.696 11.0001L110.76 1.49197H106.765L103.83 11.0001H106.337L106.875 9.18121H110.238L110.788 11.0001H113.696ZM120.489 11.0001V7.32095H117.416V11.0001H114.661V1.49197H117.416V4.97814H120.489V1.49197H123.245V11.0001H120.489ZM128.135 4.97814H127.652V1.49197H124.897V11.0001H127.652V7.32095H128.053L130.602 11.0001H133.784L130.339 6.02556L133.509 1.49197H130.602L128.135 4.97814Z" fill="#E30611"/>
</svg>
