<svg width="188" height="48" viewBox="0 0 188 48" fill="none" xmlns="http://www.w3.org/2000/svg">
<path d="M136.648 15.8944L129.072 34.7874H133.221L134.844 30.4962H142.66L144.284 34.7874H148.673L141.097 15.8944H136.648ZM136.047 27.4566L138.692 19.7087H138.752L141.578 27.4566H136.047ZM162.021 23.5231H154.265V15.8944H150.417V34.7874H154.265V26.6222H162.021V34.7874H165.87V15.8944H162.021V23.5231ZM178.075 24.4766L186.011 15.8944H181.383L174.528 23.9999H174.468V15.8944H170.62V34.7874H174.468V25.4303H174.528L181.622 34.847H186.553L178.075 24.4766ZM39.4839 3.8552C39.544 3.8552 39.6041 3.7956 39.6041 3.73601C40.2054 3.3188 41.2274 2.78242 40.8065 2.36521C40.6262 2.12682 40.2054 2.24602 39.0028 2.96122C38.642 3.19961 37.1388 3.8552 35.335 4.62999C35.6958 4.3916 35.8162 4.1532 35.8162 3.7956C35.8162 3.4976 35.5155 3.43801 35.2749 3.43801C35.2148 3.43801 35.1547 3.43801 35.0344 3.43801C35.3951 3.19961 35.8162 3.02081 36.0566 2.84201C36.4774 2.54401 36.7781 2.18641 36.7781 1.82881C36.7781 1.70962 36.718 1.59042 36.6579 1.53082C36.6579 1.41162 36.5377 1.41162 36.4774 1.41162C35.9364 1.41162 34.8541 1.94802 34.8541 1.94802C34.8541 1.94802 25.775 6.29878 21.7465 8.44437C20.9048 8.92116 19.7624 9.69596 19.7624 11.1859C19.7624 11.2456 19.7624 11.3052 19.7624 11.3647C19.7624 12.3183 19.8225 13.3315 19.8826 14.4044C17.9586 13.6891 15.9142 13.4507 13.87 13.6891C11.8257 13.9275 9.96176 14.5831 8.27824 15.6559L8.87949 14.8216C8.93963 14.762 8.93963 14.6427 8.87949 14.6427C8.81936 14.5831 8.75925 14.5831 8.69911 14.6427L5.99342 17.3248L4.73078 12.7951C4.73078 12.7355 4.61053 12.6759 4.5504 12.6759C4.49026 12.6759 4.43015 12.7355 4.43015 12.8547L4.67064 17.4439L2.5061 16.0135C2.44598 15.9539 2.38585 16.0135 2.32573 16.0135C2.2656 16.0731 2.2656 16.1327 2.32573 16.1924L4.37002 18.2783L1.54408 19.053C1.48396 19.053 1.42383 19.1723 1.42383 19.2319C1.42383 19.2915 1.48396 19.3511 1.60421 19.3511L4.37002 19.2319L1.96497 22.5099C1.90484 22.5695 1.90484 22.6886 1.96497 22.6886C2.02509 22.7483 2.08522 22.7483 2.14535 22.6886L3.16749 21.5562C2.68648 22.6886 2.38585 23.8211 2.2656 25.0131C2.20547 25.3707 2.20547 25.609 2.14535 26.0263C2.08522 26.8607 2.08522 28.4102 2.20547 29.2446C2.98712 36.2774 9.42064 41.403 16.5756 40.5685C18.0788 40.3897 19.5218 39.9726 20.8447 39.3765C21.8668 40.1513 23.1294 40.9261 24.4523 41.5221C27.8193 43.0121 31.9079 43.1314 32.8097 43.2505C34.7339 43.4888 36.4173 45.9325 36.9585 46.4094C37.4996 46.8861 41.1072 46.1113 41.1072 46.1113C41.1072 46.1113 40.8667 45.3961 40.6863 44.4425C40.5661 43.4888 39.4839 43.0717 39.3034 42.8334C39.1231 42.5949 34.4933 40.5089 33.7117 40.0321C32.9902 39.5554 32.0281 38.6017 31.0662 36.9926C30.1041 35.3833 30.5249 34.1318 30.6453 33.8338C30.8256 33.5358 31.1864 33.4762 31.4269 33.059C31.6673 32.6418 31.487 32.6418 31.4269 32.4034C31.4269 32.1649 31.487 32.0458 31.6673 31.6882C31.8478 31.3306 31.7877 31.3902 31.7877 31.3902C31.7877 31.3902 31.7877 31.3902 31.8478 30.973C31.9079 30.5558 31.8478 30.973 31.9079 30.7943C31.968 30.6154 31.968 30.6154 31.968 30.6154C31.968 30.6154 31.968 30.3771 32.0281 30.2578C32.0882 30.1386 31.9079 29.9598 31.968 29.781C32.0281 29.6022 32.0281 29.6022 32.0882 29.2446C32.1484 28.887 32.0882 29.0658 32.1484 28.6487C32.1484 28.2911 32.2686 28.4698 32.449 28.2315C32.6294 27.993 32.2686 27.7546 32.2686 27.7546C32.2686 27.7546 32.2686 27.5759 32.6294 26.9202C32.9301 26.205 32.6294 26.9202 32.6895 26.6222C32.8097 26.3242 32.5693 26.0859 32.5092 25.8474C32.449 25.5494 32.5693 25.6687 32.6294 25.3111C32.6895 24.9535 32.6294 25.3111 32.7496 24.9535C32.87 24.5959 32.8097 24.4766 32.8097 24.4766L32.5693 23.7614C32.5693 23.7614 32.5693 23.7614 32.6895 23.5827C32.8097 23.4038 32.6895 22.9866 32.6895 22.9866L32.3889 22.1523C32.3889 22.1523 32.3889 21.7947 32.449 21.5562C32.5092 21.3775 32.2085 20.5432 32.2085 20.5432L32.3889 19.7087L32.1484 18.5167L31.968 17.5035C31.968 17.5035 31.9079 15.9539 31.9079 15.3579C31.9079 14.762 31.9079 14.0467 32.0281 13.2719C32.1484 12.4971 34.4332 11.4839 34.7339 11.0071C34.9743 10.5304 33.3509 11.0668 33.3509 11.0668C33.3509 11.0668 36.2971 10.2324 36.4774 9.87476C36.5978 9.57676 34.5534 9.99397 34.5534 9.99397C34.3731 10.0536 34.5534 9.99397 34.5534 9.99397C35.335 9.81517 37.4395 9.27877 38.161 8.68277C38.9426 7.96757 36.718 8.50397 36.4173 8.62317C36.8382 8.56356 39.2433 7.90797 39.6041 7.19278C39.7844 6.77558 37.8003 7.07357 37.8003 7.07357C38.8224 6.83518 40.0249 6.47758 40.7464 6.06039C42.1895 5.34519 42.3097 4.80879 42.009 4.62999C41.7085 4.45119 39.3034 5.28559 39.3034 5.28559H39.2433C39.3034 5.28559 39.3034 5.28559 39.3034 5.28559C40.0249 5.0472 40.7464 4.6896 41.2274 4.3916C42.1294 3.7956 43.3319 3.02081 42.911 2.54401C42.6104 2.30562 39.4839 3.8552 39.4839 3.8552ZM4.73078 18.9935C4.79091 18.9339 4.79091 18.8743 4.73078 18.8147C4.73078 18.7552 4.67064 18.7551 4.61053 18.7551L2.86686 18.8147L4.61053 18.3378C4.67064 18.3378 4.73078 18.2783 4.73078 18.2187C4.73078 18.1591 4.73078 18.0995 4.67064 18.0995L3.408 16.8479L4.67064 17.6824C4.73078 17.7419 4.79091 17.7419 4.85103 17.6824C4.91116 17.6824 4.91116 17.6228 4.91116 17.5631L4.73078 14.0467L5.6928 17.5035C5.6928 17.5631 5.75293 17.6228 5.81304 17.6228C5.87318 17.6228 5.93331 17.6228 5.93331 17.5631L7.55672 15.9539L6.23394 17.8611C6.1738 17.9207 6.1738 17.9802 6.23394 18.04C6.23394 18.0995 6.29407 18.0995 6.35419 18.0995L7.91748 18.04L6.11369 18.5763C6.05356 18.5763 6.05356 18.6359 5.99342 18.6954C5.99342 18.7551 5.99342 18.8147 6.05356 18.8147L7.37634 20.1856L6.1738 19.4106C6.1738 19.2915 6.11369 19.2915 6.05356 19.2915C5.99342 19.2915 5.99342 19.3511 5.99342 19.4106L6.1738 22.5695L5.27192 19.4106C5.27192 19.3511 5.21179 19.3511 5.15165 19.2915C5.15165 19.2915 5.15165 19.2915 5.09154 19.2915C5.03141 19.2915 5.03141 19.2915 4.97129 19.3511L3.16749 21.0795L4.73078 18.9935ZM21.446 31.6286C20.7244 32.4034 19.0409 32.1649 18.5599 32.1054C17.4175 31.9862 16.3352 31.1519 16.2149 30.973C16.0947 30.7345 15.313 29.7215 14.2909 29.6022C13.9902 29.6022 12.7877 29.781 12.4269 29.781C12.0061 29.781 11.4649 29.185 10.8637 29.1254C10.2023 29.0658 9.24026 29.6619 9.24026 29.6619C9.24026 29.6619 11.7054 30.6154 12.0061 31.0326C12.3067 31.4497 13.0282 32.5225 13.9301 32.9399C14.8319 33.357 17.9586 36.9329 17.9586 36.9329C17.9586 36.9329 18.62 37.5885 19.6422 38.4826C18.7402 38.8402 17.718 39.0785 16.696 39.1382C9.66113 39.913 3.64851 35.2642 2.86686 28.2911C2.68648 26.7415 2.80674 25.2514 3.16749 23.8211C3.52825 22.4503 4.00926 21.1391 4.73078 19.9471L4.97129 19.7087L6.1738 23.8807C6.1738 23.9403 6.23394 23.9999 6.29407 23.9999C6.35418 23.9999 6.41432 23.9403 6.41432 23.8211L6.23394 19.7087L8.27824 21.0199C8.33835 21.0795 8.39849 21.0199 8.4586 21.0199C8.51873 20.9603 8.51873 20.9006 8.4586 20.841L6.53456 18.6954L9.3605 17.9207C9.42064 17.9207 9.48075 17.8015 9.48075 17.7419C9.48075 17.6824 9.42064 17.6228 9.30037 17.6228L6.71495 17.7419L6.89533 17.5035C8.81936 15.7155 11.2244 14.5235 13.9902 14.2255C16.0346 13.9871 18.0788 14.2851 19.9427 15.0003C20.1832 18.8743 20.7846 23.1655 21.1453 25.7283C21.5662 29.1254 21.8668 30.6154 21.8668 30.7347C21.8668 30.7943 21.9269 30.8538 21.987 30.8538C21.8066 31.1519 21.6263 31.4497 21.446 31.6286ZM33.892 5.10679C33.2307 5.4048 31.1263 6.35839 29.0819 7.25237C28.0597 7.72917 27.0978 8.14637 26.3162 8.56356C25.5345 8.98077 25.0534 9.21916 24.9332 9.39796C24.3922 10.292 24.0915 12.2587 23.7307 14.762C23.1895 18.5167 22.5884 24.0594 22.5884 24.0594C22.5884 24.0594 22.468 27.8739 22.1072 29.6619C22.0471 29.8406 22.0471 29.9598 21.987 30.0791C21.8668 29.3639 21.6263 27.9335 21.3256 25.6687C20.9048 22.2119 20.0029 15.7751 20.0029 11.3052C20.0029 11.2456 20.0029 11.1859 20.0029 11.1859C20.0029 9.87476 21.025 9.21916 21.8668 8.74236C25.8953 6.59678 34.9743 2.24602 34.9743 2.24602C34.9743 2.24602 36.0566 1.70962 36.4774 1.70962H36.5377C36.5377 1.76922 36.5978 1.76922 36.5978 1.82881C36.5978 2.00761 36.3572 2.30562 35.9965 2.60362C35.5155 2.96122 34.0724 3.73601 34.0724 3.73601C34.0123 3.7956 33.9522 3.8552 34.0123 3.91481C34.0724 3.9744 34.1326 4.034 34.1927 3.9744C34.1927 3.9744 34.9743 3.73601 35.3951 3.73601C35.5756 3.73601 35.6357 3.7956 35.6357 3.7956C35.5155 4.2128 35.4554 4.332 33.892 5.10679ZM39.1231 4.034C39.1832 3.9744 39.3034 3.9744 39.4236 3.8552C39.3034 3.91481 39.1832 3.9744 39.1231 4.034ZM55.4173 18.8743C56.8603 18.8743 58.0628 19.1723 59.2052 19.5895L59.3857 16.3711C57.9426 15.8944 56.6799 15.7155 55.1767 15.7155C49.1642 15.7155 44.5344 18.9935 44.5344 25.4898C44.5344 32.4034 49.7052 35.0853 54.4552 35.0853C55.9584 35.0853 57.7021 34.847 59.3857 34.251L59.1451 31.0326C58.183 31.4497 56.8603 31.8671 55.1767 31.8671C51.7496 31.8671 48.6229 30.0195 48.6229 25.4303C48.6229 21.5562 51.1483 18.8743 55.4173 18.8743ZM73.0343 29.483L68.3444 15.8944H61.7906V34.7874H65.6388V18.6359L71.1704 34.847H74.8381L80.3697 18.6359V34.847H84.2177V15.8944H77.6639L73.0343 29.483ZM121.797 23.2251H118.67V19.2915H127.028V15.9539H114.822V34.847H121.797C127.268 34.847 128.591 31.3306 128.591 29.3639C128.591 26.8607 127.449 23.2251 121.797 23.2251ZM121.135 31.8671H118.73V26.205H121.135C123.3 26.205 124.563 27.0991 124.563 29.0658C124.502 30.9134 123.24 31.8671 121.135 31.8671ZM88.7273 34.847H92.5753V19.053H100.151V34.847H103.999V15.8944H88.7273V34.847Z" fill="#00ADEF" stroke="#00ADEF" stroke-width="0.25"/>
</svg>
