<svg width="188" height="36" viewBox="0 0 188 36" fill="none" xmlns="http://www.w3.org/2000/svg">
<path d="M18.2125 0.40918C8.14107 0.40918 0 8.34554 0 18.1637C0 27.9819 8.14107 35.9183 18.2125 35.9183C28.2839 35.9183 36.425 27.9819 36.425 18.1637C36.425 8.34554 28.2839 0.40918 18.2125 0.40918ZM15.6946 25.691L14.3518 29.5365C9.31607 27.9001 5.95893 23.2365 5.95893 18.0001C5.95893 12.7637 9.31607 8.18191 14.4357 6.46373L15.7786 10.3092C12.4214 11.3728 10.2393 14.4819 10.2393 17.9183C10.0714 21.5183 12.3375 24.6274 15.6946 25.691ZM21.9054 29.6183L20.6464 25.691C24.0875 24.6274 26.3536 21.5183 26.3536 18.0001C26.3536 14.4819 24.0875 11.4546 20.7304 10.391L22.0732 6.46373C27.1929 8.10009 30.6339 12.7637 30.6339 18.0001C30.6339 23.4001 27.1089 28.0637 21.9054 29.6183Z" fill="#00BEF0"/>
<path d="M184.978 21.3544L186.993 23.7272C184.895 25.8544 182.293 26.4272 180.195 26.4272C178.18 26.4272 176.753 26.0999 175.495 25.5272C172.809 24.2181 171.466 21.5999 171.466 18.409C171.466 13.5817 174.823 9.98172 179.775 9.98172C185.314 9.98172 188 13.9908 187.58 19.2272H174.991C175.075 20.5363 175.83 21.7635 176.921 22.4181C177.845 22.9908 178.936 23.2363 180.362 23.2363C181.957 23.2363 183.552 22.7454 184.978 21.3544ZM175.075 16.3635H183.971C183.72 14.4817 182.125 12.8454 179.607 12.8454C177.005 12.8454 175.411 14.6454 175.075 16.3635ZM90.5588 25.9363H95.091L87.9571 17.8363L95.0071 10.2272H90.5588L85.1874 16.2817H83.5928V10.2272H80.1517V25.8544H83.5928V19.6363H85.1874L90.5588 25.9363ZM105.33 13.0908C102.393 13.0908 100.462 15.2999 100.462 18.0817C100.462 20.8635 102.393 23.0726 105.33 23.0726C108.268 23.0726 110.114 20.9454 110.114 18.0817C110.198 15.3817 108.352 13.0908 105.33 13.0908ZM105.918 9.8999C110.45 9.8999 113.807 13.3363 113.807 18.0817C113.807 22.7454 110.534 26.3454 105.918 26.3454C103.736 26.3454 101.973 25.609 100.714 24.2999V32.4817H97.1892V10.309H100.63V12.1908C101.973 10.6363 103.736 9.8999 105.918 9.8999ZM151.659 10.309H137.307V13.4181H142.762V25.9363H146.287V13.4181H151.743V10.309H151.659ZM77.7178 10.309H63.2821V13.4181H68.7374V25.9363H72.2624V13.4181H77.7178V10.309ZM59.0856 18.1635C59.0856 15.2181 56.9874 13.0908 54.0499 13.0908C51.1963 13.0908 49.0142 15.2181 49.0142 18.1635C49.0142 21.109 51.1124 23.2363 54.0499 23.2363C56.9035 23.2363 59.0856 21.109 59.0856 18.1635ZM45.4053 18.1635C45.4053 13.4999 49.0981 9.98172 54.0499 9.98172C58.9178 9.98172 62.6946 13.4999 62.6946 18.1635C62.6946 22.8272 59.0017 26.4272 54.0499 26.4272C49.1821 26.3454 45.4053 22.8272 45.4053 18.1635ZM168.696 10.309V25.9363H165.255V15.8726L156.862 25.9363H154.093V10.309H157.534V20.3726L165.927 10.309H168.696ZM134.873 25.9363H131.432V10.309H134.873V25.9363ZM125.977 20.6181C125.977 19.2272 124.97 18.2454 123.627 18.2454H120.102V23.0726H123.627C124.97 23.0726 125.977 22.009 125.977 20.6181ZM129.418 20.6181C129.418 23.7272 127.068 25.9363 123.711 25.9363H116.661V10.309H120.102V15.3817H124.046C127.403 15.3817 129.418 17.509 129.418 20.6181Z" fill="black"/>
</svg>
