<svg width="188" height="44" viewBox="0 0 188 44" fill="none" xmlns="http://www.w3.org/2000/svg">
<path fill-rule="evenodd" clip-rule="evenodd" d="M179.519 12.315H175.581V30.395H179.519L179.496 23.125H180.422L182.69 30.395H187.3L183.801 20.897L186.859 12.315H182.598L180.351 18.81H179.496L179.519 12.315ZM166.229 12.315H162.316L162.315 30.395H166.229V23.149H169.031V30.395H172.942V12.316H169.031V18.836H166.229V12.315ZM152.752 30.419H148.677L152.125 12.342H157.174L160.6 30.419H156.527L156.038 27.293H153.24L152.752 30.419ZM155.391 23.318L154.65 17.816H154.649L153.885 23.318H155.391ZM142.515 30.395H137.745V12.316H146.962V16.655H141.659V19.055H142.378C144.554 19.055 147.91 19.857 147.91 24.455C147.887 29.933 143.557 30.395 142.515 30.395ZM141.659 22.665V26.759H142.238C142.723 26.759 143.976 26.447 143.976 24.555C143.976 22.688 142.723 22.665 142.238 22.665H141.659ZM125.613 12.315H122.209V30.395H126.214V19.368L128.619 22.518L131.028 19.368V30.395H135.037V12.315H131.657L128.619 16.581L125.613 12.315ZM120.284 21.332C120.284 25.959 118.688 30.614 113.941 30.614C109.194 30.614 107.598 25.959 107.598 21.332C107.598 16.705 109.194 12.05 113.941 12.05C118.688 12.05 120.284 16.705 120.284 21.332ZM111.811 21.332C111.811 24.508 112.526 26.226 113.941 26.226C115.355 26.226 116.069 24.508 116.069 21.332C116.069 18.156 115.356 16.436 113.941 16.436C112.526 16.436 111.811 18.156 111.811 21.332ZM100 30.395H95.9936V12.315H101.345C105.116 12.315 106.531 15.998 106.531 18.323C106.531 20.701 105.302 24.435 101.345 24.435H100V30.395ZM93.7013 12.315H82.7719V30.395H86.7776V16.678H89.6946V30.395H93.7013V12.315ZM76.3808 17.551C76.3808 18.884 75.198 19.321 74.5508 19.321H72.8372V23.198H74.4587C75.8247 23.198 76.4494 23.875 76.4494 24.895C76.4494 25.619 75.9412 26.614 74.6448 26.614C73.8791 26.614 73.1153 26.567 71.9814 26.056L71.91 29.815C73.1378 30.518 74.1572 30.736 75.7091 30.758C78.628 30.758 80.8958 28.87 80.8958 25.451C80.8958 22.687 79.3223 21.503 78.1414 21.112V20.942C79.3673 20.408 80.6187 19.03 80.6187 16.75C80.6187 14.401 79.1597 12 75.8697 12C74.7133 12 73.74 12.098 72.3751 12.46L72.4201 16.389C73.2779 15.953 74.1572 15.878 74.6193 15.878C75.0149 15.878 76.3808 15.978 76.3808 17.551ZM62.8576 30.395H58.8068L62.2319 12.315H67.2795L70.7066 30.395H66.6558L66.1701 27.267H63.3677L62.8576 30.395ZM65.5199 23.295L64.7562 17.769L63.9914 23.295H65.5199ZM59.267 12.315H51.0498V30.395H55.1231V16.822H59.267V12.315ZM99.875 16.0332V20.5332C100.691 20.5332 102.323 20.2832 102.323 18.2832C102.323 16.2832 100.691 15.8666 99.875 16.0332Z" fill="#476BF0"/>
<path d="M1.01637 21.8789C1.01637 33.0039 9.682 42.0599 20.3334 42.0599C30.9642 42.0599 39.6239 32.9999 39.6239 21.8789C39.6239 10.7359 30.9681 1.67386 20.3334 1.67386C9.6771 1.67386 1.01637 10.7329 1.01637 21.8789ZM0 21.8789C0 10.1449 9.11702 0.609863 20.3334 0.609863C31.5252 0.609863 40.6403 10.1439 40.6403 21.8779C40.6403 33.5879 31.5243 43.1219 20.3324 43.1219C9.118 43.1229 0 33.5879 0 21.8799V21.8789Z" fill="#476BF0"/>
<path d="M14.2708 8.45028C13.5679 8.7723 12.9001 9.16881 12.2782 9.63328C17.1163 7.37928 23.0236 7.52628 26.1932 9.00528C27.19 9.48928 27.8597 9.78328 28.1633 10.3613C24.8733 9.43928 23.4603 9.27228 20.7069 9.34328C16.7902 9.41728 11.5811 11.0383 9.58945 12.2773L8.71408 13.4173C11.5811 11.6433 16.9312 10.4843 19.8971 10.3863C23.2087 10.3393 25.777 10.6543 28.1407 11.5503C27.9997 12.1793 27.6991 12.4943 27.19 12.8113C17.742 11.0893 12.1598 13.1233 7.11314 16.5643L6.74399 17.7023C12.3713 13.6583 19.2695 12.5453 25.9171 13.7553C23.5328 14.6283 20.6844 14.8213 18.2991 15.3993C16.2625 15.8853 15.1736 16.0323 12.4613 16.9793C9.70989 17.9243 8.08447 18.8923 7.0681 20.1293C6.58145 20.7133 6.21035 21.3893 6.11635 22.1143C6.07327 22.5483 6.09579 22.9403 6.23581 23.3283C6.34743 23.6683 6.60299 24.0063 6.88206 24.3453C6.55893 24.9253 6.27791 25.6803 6.74399 26.5523C6.95158 26.9623 7.48424 27.3743 7.99635 27.7653L7.85241 28.1973C7.78387 28.7093 7.71533 29.3133 8.04041 29.8213C8.59364 30.7423 9.26535 31.3503 10.3317 31.9313C10.4942 32.6833 10.7468 33.2873 11.303 33.8233C12.4839 34.9603 15.1257 37.1413 19.8247 37.4813C23.3458 37.7253 25.8691 36.6093 26.8198 36.1233L27.9772 35.4953C26.0091 36.3173 22.6995 36.8023 19.9872 36.5603C16.051 36.2203 12.5338 33.5313 12.0932 32.7553C12.2303 32.8503 12.4163 32.9243 12.5759 32.9973C17.1858 35.3233 23.1362 36.5853 30.7551 33.3373L31.3837 32.7073C24.4561 34.9603 18.3922 34.8883 11.8827 31.3273C11.9541 30.9873 12.0932 30.6923 12.3918 30.4553C14.0574 31.2253 15.6573 31.8603 17.603 32.2693C19.8727 32.7073 22.4645 32.8053 24.5971 32.7073C26.7513 32.6103 31.0107 31.4953 33.0258 30.3813C33.2099 30.2113 33.3019 29.9233 33.487 29.7273C29.5537 31.2253 24.8733 31.9313 22.0503 31.7113C19.294 31.4953 16.8412 31.1543 13.5982 29.6043C14.2219 29.3393 14.8711 29.1203 15.5183 28.9243C17.649 29.6043 19.8247 30.0143 22.395 30.1373C24.9447 30.2573 30.8942 29.2673 34.6444 26.8933C34.7628 26.5533 34.8774 26.1873 34.8774 26.1873C34.8774 26.1873 29.6673 29.0973 23.7639 29.0973C21.0075 29.0973 19.3175 28.6843 18.0681 28.3693C20.845 27.8363 24.3426 27.3993 28.2768 26.3583C30.2675 25.8233 32.7232 24.6103 33.8356 23.5943C34.7844 22.6953 35.5266 21.5323 35.273 20.3493C35.2231 20.0303 34.8079 19.2833 34.2977 19.0143C34.7844 18.3603 34.7384 17.8023 34.6708 17.3213C34.6218 16.9513 34.4603 16.5433 34.2547 16.1813C33.9296 15.7403 33.626 15.3993 33.0003 15.0143C33.0964 14.5059 33.0315 13.9795 32.8153 13.5113C32.3296 12.6393 31.4513 11.8893 29.9463 11.0893C29.8768 10.7733 29.6888 10.3613 29.3676 9.95028C27.47 7.98728 24.3651 7.04228 21.7478 6.99228C21.6009 6.98928 21.455 6.98828 21.312 6.98828C18.2502 6.98828 15.7925 7.70828 14.2708 8.45028ZM29.0896 13.2963C29.3226 13.0293 29.6673 12.6173 29.7583 12.2773C30.4095 12.7143 31.1497 13.3683 31.2408 14.0473C30.5485 13.7773 29.8073 13.4913 29.0896 13.2973V13.2963ZM29.6673 16.2513C28.5579 15.9343 27.5856 15.5463 26.2852 15.3073C27.0754 14.9893 27.6051 14.6523 28.0712 14.2633C29.1091 14.5523 30.0824 14.9183 30.8746 15.2803C30.7375 15.4913 29.9444 16.2593 29.7035 16.2593C29.6909 16.2599 29.6785 16.2571 29.6673 16.2513ZM31.6824 17.0993C31.982 16.8563 32.2611 16.5923 32.5166 16.2753C33.1404 16.8323 33.3254 17.2203 33.0258 17.8263C32.6106 17.5123 32.1671 17.3413 31.6824 17.0993ZM7.90333 23.1103C6.18685 20.6383 12.1372 18.8703 13.2741 18.5053C16.1675 17.6053 19.5505 16.9313 22.6075 16.5433C24.7097 16.2753 25.825 16.5203 27.8176 17.0763C22.6995 18.5063 17.649 18.9633 12.8325 20.4433C8.94908 21.6233 7.91899 23.1103 7.90333 23.1103ZM9.17331 24.2963C10.9799 22.6953 14.6635 21.8003 16.0079 21.4853C20.2898 20.5153 24.273 19.9103 25.9171 19.4753C27.9097 18.9633 29.2991 18.4813 30.2675 17.9973C30.3145 17.9243 31.889 18.7223 32.0515 18.9143C31.5198 19.3773 30.7816 19.7663 29.9688 20.0543C27.5376 20.9763 23.1147 21.9443 20.7774 22.3143C18.4147 22.7233 16.4426 23.0363 13.8302 23.7603C12.3223 24.1753 11.303 24.6603 10.5618 25.1703C10.0066 24.8303 9.68247 24.7343 9.17331 24.2963ZM12.5338 26.2353C13.2956 25.8953 14.1298 25.6283 14.9377 25.4143C19.0149 24.3663 22.6075 24.1753 27.5621 22.7713C29.9463 22.1143 31.6824 21.4103 32.7722 20.5413C32.9328 20.3933 33.0953 20.2733 33.2579 20.1293C34.6933 22.4543 29.2991 24.2483 25.6145 25.0763C23.6883 25.4747 21.7583 25.8534 19.8247 26.2123C17.4198 26.6243 16.6287 26.8433 14.9621 27.3523C14.1298 27.0123 13.2956 26.6483 12.5338 26.2353ZM8.20002 25.5083C8.5721 25.7533 8.84822 25.9483 9.28983 26.1873C9.12729 26.3323 8.91774 26.4793 8.75716 26.6473C8.38899 26.4273 8.01495 25.9473 8.20002 25.5073V25.5083ZM10.1241 27.7383C10.3561 27.5203 10.6558 27.3033 10.9799 27.0863C11.6751 27.4263 12.3918 27.7373 13.0635 28.0543C12.6113 28.2269 12.1776 28.4464 11.7691 28.7093C11.216 28.3937 10.6676 28.0697 10.1241 27.7373V27.7383ZM9.52091 28.9243C9.91454 29.1923 10.3082 29.4093 10.7037 29.6293C10.5412 29.8723 10.4237 30.0633 10.3561 30.3083C9.77647 29.7983 9.49643 29.3863 9.52091 28.9243Z" fill="#476BF0"/>
</svg>
