<svg width="188" height="40" viewBox="0 0 188 40" fill="none" xmlns="http://www.w3.org/2000/svg">
<path fill-rule="evenodd" clip-rule="evenodd" d="M47.0088 18.7094L47.6267 16.8494L45.5812 16.9106C45.4095 16.9106 44.1524 16.8753 42.9354 16.0459C43.0269 16.0529 43.1159 16.0659 43.2112 16.0659C44.4645 16.0659 45.679 15.3553 46.164 14.3388L47.0439 12.5035C45.9409 12.5176 44.932 12.3871 44.932 12.3871C44.9232 12.3871 44.1286 12.2894 43.2099 11.4059C42.5507 10.7741 41.7347 10.4388 40.8511 10.4388C40.5013 10.4401 40.1538 10.4921 39.8209 10.5929C39.8673 10.4447 39.9111 10.2929 39.9375 10.1376C40.217 8.42 39.0426 7.11176 39.0426 7.11176L37.5047 5.32118L36.551 7.42471C36.5472 7.43177 36.3066 7.92588 35.8767 8.16588C35.7463 7.54706 35.4267 6.85176 34.7449 6.18706C33.4577 4.93529 31.8923 4.74706 31.0726 4.74706C30.6929 4.74706 30.4209 4.78706 30.3557 4.79647L28.4995 5.14C28.6061 4.75059 28.8354 4.06941 29.2515 3.45882L30.2768 1.95882L27.6987 2.23529L26.8777 0.595294L25.2873 1.36588L23.8171 0L22.3507 1.36471L20.7577 0.595294L19.938 2.23412L17.3612 1.95765L18.3877 3.46C18.805 4.07059 19.0319 4.74824 19.1384 5.13765L17.3674 4.80824L17.306 4.8C17.0614 4.76383 16.8142 4.74613 16.5666 4.74706C15.7469 4.74706 14.1815 4.93529 12.8981 6.18706C12.215 6.85059 11.8941 7.54706 11.7638 8.16588C11.3364 7.92706 11.097 7.44235 11.097 7.44235L10.142 5.32471L8.57907 7.12941C8.38856 7.36118 7.44731 8.59176 7.70173 10.1412C7.72931 10.2953 7.77192 10.4459 7.81829 10.5941C7.48633 10.4929 7.13959 10.4409 6.79056 10.44C5.90571 10.44 5.08979 10.7753 4.42928 11.4071C3.51435 12.2871 2.72349 12.3871 2.72976 12.3871C2.72976 12.3871 1.89379 12.5282 0.599093 12.5047L1.47517 14.34C1.96147 15.3565 3.1772 16.0671 4.42803 16.0671C4.52328 16.0671 4.61227 16.0541 4.70501 16.0471C3.48928 16.8776 2.23344 16.9118 2.08179 16.9118L0 16.8494L0.630427 18.7082C0.948773 19.6682 2.00909 21.2553 4.03949 21.4259C3.81891 22.2965 3.32885 23.2729 2.25349 23.6941L0.701867 24.2941L1.54787 25.68C2.02539 26.4271 3.14712 27.3012 4.74261 27.3012C5.08728 27.3012 5.42067 27.2671 5.74277 27.2035C5.82424 27.5447 5.92701 27.8859 6.04859 28.2271C6.52235 29.5565 6.11376 30.4835 6.10875 30.4941L5.34421 32.0024L7.05251 32.4259C7.07381 32.4329 7.59144 32.5671 8.23691 32.5671C8.53019 32.5671 8.81093 32.5376 9.07413 32.4788C9.27216 32.4353 9.46267 32.3765 9.64691 32.3071C9.86875 32.68 10.137 33.0212 10.4503 33.3259C11.5457 34.3835 13.0998 34.9188 15.0651 34.9188H15.0713L16.4751 34.9012L13.5749 36.0353L15.777 37.0365C16.5778 37.4035 17.5254 37.8365 18.4929 38.1682L18.2172 38.8753L18.9755 39.2012C19.0431 39.2306 20.5045 39.8435 22.9297 39.9741C22.9297 39.9741 23.515 40 23.8371 40C24.1605 40 24.7395 39.9729 24.7395 39.9729C27.1485 39.8388 28.5973 39.2306 28.665 39.2012L29.4258 38.8753L29.1488 38.1671C30.1414 37.8259 31.1253 37.3741 31.8936 37.0224L34.0543 36.0341L31.1629 34.9012L32.5729 34.9188C34.5406 34.9188 36.0947 34.3824 37.1889 33.3247C37.501 33.0212 37.7679 32.6812 37.991 32.3071C38.4384 32.4807 38.9182 32.5687 39.4023 32.5659C40.0377 32.5659 40.5604 32.4341 40.5742 32.4294L42.2912 32.0024L41.543 30.5212C41.5254 30.4835 41.1168 29.5565 41.5906 28.2247C41.7122 27.8859 41.8137 27.5435 41.8964 27.2035C42.2185 27.2671 42.5557 27.3 42.9028 27.3012C44.9358 27.3012 45.9108 25.9565 46.0988 25.6647L46.9373 24.2929L45.3857 23.6941C44.3078 23.2741 43.819 22.2976 43.601 21.4282C45.605 21.2635 46.6791 19.6753 47.01 18.7106L47.0088 18.7094Z" fill="#FFFFFE"/>
<path fill-rule="evenodd" clip-rule="evenodd" d="M23.8167 5.69773C22.1748 5.69891 20.9428 6.20479 20.6746 6.80126L23.8167 7.96597L26.9601 6.80126C26.6944 6.20479 25.4623 5.69891 23.8167 5.69773ZM23.8505 36.5671H23.7879C22.7927 36.573 21.4203 36.3813 20.7611 36.1989L19.9665 38.2213C20.4904 38.3966 22.2651 38.733 23.8205 38.733C25.3733 38.733 27.1493 38.3966 27.672 38.2213L26.8786 36.2001C26.2156 36.3813 24.8457 36.573 23.8505 36.5671ZM29.8628 34.5554C29.2712 34.8707 27.9515 35.3436 27.1832 35.5624L27.8274 37.233C29.0155 36.9271 29.9969 36.5707 30.8065 36.1883L29.468 35.7707L29.8628 34.5554ZM17.7744 34.5554L18.1704 35.7707L16.8306 36.1883C17.639 36.5707 18.6241 36.9271 19.8085 37.2318L20.454 35.5613C19.687 35.3424 18.3647 34.8707 17.7744 34.5554ZM23.8167 3.76479C25.0563 3.76479 26.2695 4.04361 27.2045 4.53185C27.2897 4.26361 27.4088 3.93655 27.5704 3.5942L27.217 3.6342L26.8473 3.66949L26.6906 3.35302L26.2168 2.41538L25.3571 2.83655L25.0212 2.99655L24.7529 2.74949L23.8167 1.87891L22.883 2.74949L22.616 2.99655L22.2814 2.83655L21.4166 2.41538L20.9491 3.35302L20.7899 3.67067L20.4189 3.6342L20.068 3.5942C20.2297 3.93655 20.3475 4.26361 20.434 4.53185C21.3715 4.04361 22.5847 3.76479 23.818 3.76479H23.8167ZM42.7232 14.6083C42.8849 14.6601 43.0479 14.6836 43.2095 14.6836C43.9114 14.6836 44.5882 14.2566 44.8201 13.7695C44.8201 13.7695 43.5354 13.6966 42.1542 12.3777C41.7156 11.9518 41.2493 11.8236 40.8508 11.8236C40.2304 11.8236 39.7641 12.1307 39.7641 12.1307C41.4336 12.966 41.7732 14.3071 42.7232 14.6083ZM4.42764 14.6824C4.59057 14.6824 4.75351 14.6601 4.91017 14.6071C5.86271 14.306 6.20612 12.966 7.8718 12.1318C7.8718 12.1318 7.40556 11.8236 6.78892 11.8236C6.38785 11.8236 5.92287 11.9507 5.48169 12.3789C4.10177 13.6966 2.81836 13.7707 2.81836 13.7707C3.04897 14.2566 3.72703 14.6836 4.42764 14.6836V14.6824Z" fill="#FFFFFE"/>
<path fill-rule="evenodd" clip-rule="evenodd" d="M42.2215 24.2297C40.9305 23.6297 40.1159 22.0414 39.9179 21.4697C39.7048 24.6203 38.0692 26.8062 36.1579 28.9097C35.1652 30.0014 34.8193 31.0626 34.8193 31.0626C34.8193 31.0626 35.0111 29.8603 35.8683 28.8814C37.6518 26.8673 39.3463 24.3591 39.4729 21.4579C39.5594 19.4344 39.0067 17.7932 38.1419 16.4403C38.6257 17.8485 38.5567 19.5744 36.9161 21.185C36.9161 21.185 40.1836 17.505 35.6164 13.7309C33.7891 12.2956 31.7887 11.4085 30.7597 10.7803C34.4784 11.9214 36.2957 10.665 36.2957 10.665C35.1076 11.6332 33.5697 11.6167 32.6159 11.4767C32.8754 11.5956 33.1448 11.7203 33.4331 11.865C36.5702 13.4673 39.3877 16.1038 39.869 19.7532V19.725C40.5972 23.3097 42.2215 24.2297 42.2215 24.2297ZM43.1765 20.0532C43.2054 20.0556 43.2304 20.0556 43.2592 20.0556C45.0076 20.0556 45.5992 18.2944 45.5992 18.2944H45.5654C45.2445 18.2944 42.6451 18.2238 40.8077 16.0273C39.5995 14.5838 38.6081 13.3144 36.6504 12.8156L36.4574 12.7826L36.416 12.5979C36.3621 12.3167 36.5664 12.0532 37.0327 11.7697C39.7336 10.1062 37.8975 7.9838 37.8975 7.9838C37.8975 7.9838 37.1279 9.68027 35.4021 9.68027L35.273 9.67792C35.0775 9.66851 34.8882 9.66262 34.6977 9.6238L34.3794 9.56498C34.3794 9.56498 34.8719 8.30615 33.6838 7.15204C32.7901 6.27909 31.701 6.13086 31.0731 6.13086C30.756 6.13086 30.5555 6.16968 30.5555 6.16968C31.152 6.90262 31.5832 8.12027 30.8939 8.87086C30.2985 9.51557 28.8447 9.54733 28.8447 10.5097C28.8447 10.9167 29.2495 11.392 29.9764 11.8191C32.1622 13.1132 34.3317 14.8309 35.2341 17.1332C36.3621 20.0038 35.0913 21.9097 33.2789 23.0026C33.2789 23.0026 33.848 23.4944 34.6714 23.5579C34.8393 23.5732 35.0035 23.5803 35.1564 23.5803C36.8973 23.5803 37.7972 22.812 37.7972 22.812C37.7972 22.812 37.6481 23.8732 36.7444 24.8579C35.9072 25.7662 34.8105 26.3026 33.1373 26.325C33.1373 26.325 33.0847 27.0544 33.8254 27.6873C34.3004 28.0862 35.3946 28.2167 35.3946 28.2167C35.3946 28.2167 33.3441 28.6062 33.1173 31.4544C32.9944 32.9979 32.5758 33.5332 32.5758 33.5332H32.6122C37.3698 33.5332 37.2483 29.6956 37.2483 29.6956C37.2483 29.6956 37.5791 30.832 38.9064 31.1285C39.0668 31.1685 39.2385 31.1838 39.4015 31.1838C39.8276 31.1838 40.1999 31.0897 40.1999 31.0897C40.1999 31.0897 39.5043 29.7109 40.1936 27.7826C40.7664 26.1814 40.6736 24.9956 40.6736 24.9956C40.6736 24.9956 41.3141 25.9073 42.9045 25.9156H42.9208C43.2965 25.921 43.6676 25.8374 43.9997 25.6725C44.3319 25.5075 44.6143 25.2666 44.8209 24.972C41.6487 23.7332 41.962 19.7367 41.962 19.7367C41.962 19.7367 42.3731 20.0262 43.1765 20.0544V20.0532ZM11.481 28.9097C9.56964 26.8062 7.93404 24.6203 7.71847 21.4697C7.5217 22.0426 6.70828 23.6309 5.4186 24.2297C5.4186 24.2297 7.04042 23.3097 7.7686 19.725V19.7532C8.25114 16.1038 11.0686 13.4673 14.2057 11.8662C14.494 11.7191 14.7647 11.5956 15.0216 11.4779C14.0691 11.6167 12.53 11.6332 11.3431 10.6662C11.3431 10.6662 13.1604 11.9214 16.8778 10.7803C15.8501 11.4085 13.8498 12.2956 12.0237 13.7309C7.45527 17.505 10.7227 21.185 10.7227 21.185C9.08084 19.5732 9.01316 17.8497 9.49695 16.4403C8.63215 17.7932 8.07818 19.4344 8.16842 21.4591C8.2925 24.3591 9.98575 26.8673 11.7655 28.8826C12.6278 29.8591 12.822 31.0614 12.822 31.0614C12.822 31.0614 12.4711 30.0014 11.481 28.9097ZM12.2455 28.2156C12.2455 28.2156 13.3397 28.0862 13.8147 27.6862C14.5541 27.0544 14.5028 26.325 14.5028 26.325C12.8283 26.3026 11.7329 25.7662 10.8919 24.8579C9.99202 23.8732 9.84162 22.812 9.84162 22.812C9.84162 22.812 10.7415 23.5803 12.4799 23.5803C12.6365 23.5803 12.7995 23.5732 12.9662 23.5579C13.4805 23.509 13.9672 23.3155 14.3624 23.0026C12.5476 21.9097 11.2767 20.0038 12.4034 17.132C13.3058 14.832 15.4741 13.1132 17.6624 11.8179C18.3881 11.392 18.7917 10.9167 18.7917 10.5097C18.7917 9.54733 17.3403 9.51557 16.745 8.87086C16.0556 8.12027 16.488 6.90262 17.0834 6.16968C17.0834 6.16968 16.8841 6.13086 16.5657 6.13086C15.9391 6.13086 14.8499 6.27909 13.9551 7.15204C12.7644 8.30733 13.2595 9.56615 13.2595 9.56615L12.9411 9.62498C12.7519 9.66145 12.5601 9.66851 12.3646 9.6791L12.2392 9.68027C10.5096 9.68027 9.74135 7.98498 9.74135 7.98498C9.74135 7.98498 7.90772 10.1062 10.6087 11.7697C11.0724 12.0532 11.2767 12.3179 11.2228 12.5979L11.1814 12.7814L10.9847 12.8144C9.03071 13.3144 8.03932 14.5838 6.8286 16.0273C4.99122 18.2238 2.39431 18.2944 2.0722 18.2944H2.03711C2.03711 18.2944 2.62994 20.0556 4.37959 20.0556C4.40716 20.0556 4.43223 20.0556 4.46231 20.0532C5.2657 20.0262 5.67804 19.7367 5.67804 19.7367C5.67804 19.7367 5.98887 23.7332 2.81794 24.972C2.81794 24.972 3.39572 25.9167 4.71924 25.9167H4.73428C6.32602 25.9073 6.96522 24.9956 6.96522 24.9956C6.96522 24.9956 6.87247 26.1826 7.44274 27.7826C8.13207 29.712 7.44023 31.0885 7.44023 31.0885C7.44023 31.0885 7.80996 31.1826 8.23735 31.1826C8.40279 31.1826 8.57199 31.1685 8.73116 31.1285C10.0572 30.832 10.3893 29.6956 10.3893 29.6956C10.3893 29.6956 10.2677 33.5332 15.0267 33.5332H15.0617C15.0617 33.5332 14.6444 32.9979 14.5228 31.4544C14.2972 28.6073 12.2443 28.2156 12.2443 28.2156H12.2455ZM22.7447 14.0744H24.9881V14.7979C24.7249 14.4944 24.2111 14.5567 24.2111 14.5567V15.6003C24.2111 15.6003 24.2286 16.1132 24.4216 16.3356H23.3112C23.5055 16.1132 23.5217 15.6003 23.5217 15.6003V14.5567C23.5217 14.5567 23.0104 14.4944 22.7447 14.7979V14.0744ZM20.3007 14.1826C20.3784 14.2614 20.4548 14.3473 20.5288 14.4332C20.5463 14.4532 20.5626 14.4709 20.5802 14.4944C20.6491 14.5791 20.718 14.6709 20.7845 14.7626L20.8296 14.825C20.9085 14.9379 20.9837 15.0544 21.0589 15.1756C21.7458 16.2897 22.8437 16.9556 23.8175 16.9567C24.7939 16.9556 25.8905 16.2897 26.5786 15.1756C26.6551 15.052 26.7315 14.932 26.8118 14.8191C26.9032 14.6875 27.0011 14.5599 27.105 14.4367C27.1815 14.3473 27.2604 14.2603 27.3407 14.1803C27.3544 14.1685 27.3657 14.1556 27.3795 14.145C27.7304 13.8085 28.1453 13.552 28.6917 13.4097L28.4486 13.2767H28.4361L27.4685 12.7497L26.4771 12.2144L23.8251 13.572L23.8175 13.5662L23.8138 13.572L21.1617 12.2144L20.1691 12.7497L19.2015 13.2767H19.1902L18.9458 13.4097C19.491 13.5509 19.9071 13.805 20.2581 14.1426C20.2731 14.1544 20.2831 14.1709 20.3007 14.1826Z" fill="#FFFFFE"/>
<path fill-rule="evenodd" clip-rule="evenodd" d="M22.9733 9.47405V10.1564L22.8341 10.0952C22.8279 10.0905 22.6223 10.0482 22.2676 9.78228C21.6798 9.35405 21.6685 8.95875 21.6685 8.95875L22.972 9.47405H22.9733ZM23.5874 12.6705V8.43287L20.7198 7.51758L21.4768 11.6235L23.5886 12.6705H23.5874ZM24.6653 9.47405L25.9687 8.95875C25.9687 8.95875 25.9587 9.35405 25.3684 9.78228C25.0137 10.047 24.8094 10.0905 24.8031 10.0952L24.6653 10.1552V9.47405ZM26.1605 11.6246L26.9137 7.51875L24.0474 8.43287V12.6705L26.1605 11.6235V11.6246ZM19.5316 22.494C19.8111 22.5882 20.1495 22.6082 20.3237 22.6082C20.33 22.5882 20.34 22.5635 20.3488 22.5329C20.3626 22.4858 20.3776 22.4364 20.3889 22.3846C20.4378 22.1493 20.4541 21.8846 20.4591 21.7129C20.2988 21.6234 20.1682 21.4939 20.0818 21.3388C19.9753 21.1282 19.8236 21.0293 19.6018 21.0293C19.3135 21.0293 19.0039 21.194 18.8698 21.2693C18.7646 21.8552 19.2245 22.387 19.5316 22.4929V22.494ZM25.876 20.2458C25.3446 20.7905 24.3005 21.7399 24.2504 21.787L24.1877 21.8458L20.8915 21.7976C20.8887 22.0536 20.8534 22.3083 20.7862 22.5564L20.7599 22.654L24.679 23.3176C25.0864 23.0493 26.2081 22.2788 26.6443 21.9764C26.3272 21.5411 26.2971 21.0246 26.3685 20.6623C26.1804 20.5507 26.0138 20.4099 25.876 20.2458Z" fill="#FFFFFE"/>
<path fill-rule="evenodd" clip-rule="evenodd" d="M26.324 16.5188C25.5645 17.227 24.8363 17.4893 24.1859 17.5505C24.0668 17.5626 23.9472 17.5689 23.8274 17.5693H23.8111C23.5718 17.5693 23.3332 17.5457 23.0992 17.4988C23.0566 17.6576 23.0027 17.9905 23.1569 18.3058C23.2947 18.5917 23.5742 18.8046 23.9828 18.947L24.1207 18.9976L24.1219 19.1364C24.1219 19.1776 24.1545 20.0788 25.1998 20.3293C25.3703 20.1646 25.5257 20.0152 25.6385 19.8893C25.4254 19.4176 25.5382 18.9352 25.8478 18.6988C25.8352 18.7493 25.6974 19.9317 26.7063 20.3717L26.873 20.4458L26.8229 20.6117C26.8066 20.6623 26.4707 21.807 27.6927 22.2329L27.9083 22.3105L27.8118 22.507C27.7904 22.5505 27.3117 23.5893 28.4397 24.1799H30.8849V22.3529C30.0151 22.2529 29.6479 21.5952 29.5526 21.1293C29.1478 21.0646 28.8357 20.9011 28.6214 20.634C28.1075 19.9988 28.5487 19.4164 28.555 19.3846C28.5537 19.3893 28.555 20.0082 28.9611 20.3917C29.1628 20.5752 29.401 20.7188 29.7632 20.7505L29.9399 20.7658L29.955 20.9364C29.9587 20.9729 30.0552 21.8117 30.8849 21.9435L30.8837 18.214C30.8837 17.6352 31.0629 17.054 31.2785 16.5176H26.324V16.5188ZM19.7403 18.2282L19.6751 20.6023L19.9634 20.6446L20.6652 18.3658L20.308 17.6646L19.7415 18.2282H19.7403ZM21.2618 27.0211C21.2426 27.0205 21.2236 27.0163 21.2061 27.0086C21.1887 27.0009 21.1731 26.99 21.1603 26.9764C21.1475 26.9629 21.1378 26.947 21.1318 26.9298C21.1257 26.9126 21.1235 26.8944 21.1252 26.8764C21.1263 26.8586 21.1312 26.8411 21.1396 26.8251C21.148 26.809 21.1597 26.7947 21.1741 26.783C21.1884 26.7713 21.2052 26.7624 21.2232 26.7568C21.2413 26.7512 21.2604 26.7491 21.2794 26.7505C21.3621 26.7541 21.4198 26.8211 21.4172 26.894C21.4144 26.9302 21.3964 26.9637 21.3673 26.9875C21.3382 27.0113 21.3003 27.0234 21.2618 27.0211ZM27.4809 29.1235C27.5022 29.1235 27.5272 29.1258 27.5498 29.1317C27.9885 29.2493 28.0975 30.7293 28.8633 30.8611C28.9385 30.8764 29.0087 30.8799 29.0688 30.8799C29.2907 30.8799 29.4223 30.7917 29.5652 30.6329C29.5652 30.6329 29.1791 30.0646 28.8909 29.6799C28.5086 29.1764 28.2116 28.5682 27.4984 28.5682C27.4809 28.5682 27.4608 28.5682 27.442 28.5705C27.3062 28.5757 27.1748 28.6173 27.0635 28.6905C26.8255 28.5427 26.5468 28.463 26.2614 28.4611C25.8164 28.4611 25.468 28.654 25.2938 28.654H25.2875L23.6958 28.5058C23.4464 28.4823 23.2496 28.247 23.1782 28.1552L23.1506 28.1152C23.1506 28.074 23.1506 28.0329 23.1481 27.9964C23.0942 26.7717 22.0865 26.2482 21.7268 26.2388C21.7268 26.2388 21.7694 26.0058 21.6729 25.9176L21.322 26.3176L20.1689 25.7741L20.9911 26.6776L20.2955 27.4129C20.2078 27.4964 20.2191 27.6093 20.2554 27.6576L20.5562 27.907L20.9372 27.6893C20.956 27.6764 20.9911 27.6717 21.0337 27.6717C21.139 27.6717 21.2969 27.6976 21.4386 27.6976C21.5952 27.6976 21.7293 27.667 21.7456 27.5293C21.698 27.9835 21.2493 28.7729 21.5438 29.3929L21.7619 29.8611L20.3544 29.6705L19.6952 30.7164C19.4921 31.0646 19.4595 31.4411 19.6551 31.6458L19.902 31.9364C19.902 31.9364 20.2479 31.5917 20.3243 31.3646L20.2128 31.2493C20.1188 31.1517 20.1238 31.0646 20.1815 30.9599L20.5951 30.3152L22.2557 30.6835L22.3435 30.5423C22.4563 30.3658 22.6192 30.314 22.7972 30.314C22.8711 30.314 22.9463 30.3223 23.024 30.3341C23.3323 30.3917 23.8399 30.4682 24.3475 30.4682C24.9053 30.4682 25.458 30.3741 25.7525 30.0646C26.3541 30.9035 27.5749 31.0364 27.4784 31.4635L27.1575 32.9011C27.3706 32.8917 27.5749 32.8788 27.7691 32.854L28.075 31.3588C28.0997 31.2318 28.1215 31.1043 28.1401 30.9764C28.0223 30.8635 27.7378 30.627 27.5761 30.3388C27.3618 29.9493 27.4784 29.7458 27.2778 29.2399C27.2778 29.2399 27.3405 29.1223 27.4809 29.1223V29.1235Z" fill="#FFFFFE"/>
<path fill-rule="evenodd" clip-rule="evenodd" d="M18.992 30.4824C18.992 30.4824 19.5434 30.2707 19.5936 30.1177L19.5184 29.946C19.467 29.833 19.4732 29.7107 19.5748 29.6448L20.1688 29.2577L21.1627 29.4377C21.1627 29.4377 20.9823 29.226 20.9998 28.9436L20.0523 28.7554L19.1574 29.2671C19.0013 29.3758 18.8884 29.5305 18.8368 29.7064C18.7853 29.8823 18.798 30.0694 18.8729 30.2377L18.992 30.4836V30.4824ZM26.0194 32.9201C26.1961 32.913 26.3941 32.9107 26.6085 32.9107C26.6085 32.9107 27.1198 31.5048 27.1487 31.4601C26.7689 31.2938 26.3982 31.1096 26.0382 30.9083C26.1899 31.1224 26.5583 31.366 26.4856 31.5542L26.0194 32.9201Z" fill="#FFFFFE"/>
<path fill-rule="evenodd" clip-rule="evenodd" d="M30.885 24.5821H16.7536V29.5809C16.7536 31.6256 18.3266 32.9044 20.649 32.9044C22.5879 32.9044 23.0992 32.975 23.8199 33.6491C24.3175 33.1821 24.7286 33.0091 25.5746 32.9433L25.5934 32.8668L26.0383 31.5715C26.0132 31.5421 25.2863 30.7644 25.2863 30.7644C24.998 30.855 24.7549 30.8703 24.3463 30.8703C23.929 30.8703 23.4564 30.8233 22.9438 30.7338C22.8958 30.7232 22.8466 30.7176 22.7972 30.7174C22.7345 30.7174 22.7308 30.7221 22.7132 30.7515L22.6255 30.8891L22.4626 31.1409L22.158 31.0738L20.8019 30.7738L20.6151 31.0621L20.644 31.0938L20.8082 31.2644L20.7355 31.488C20.6352 31.7786 20.3118 32.1186 20.2128 32.2127L19.8744 32.5538L19.5648 32.188L19.333 31.9138C19.0886 31.6574 19.0322 31.2644 19.17 30.8527C19.166 30.8554 19.1612 30.8571 19.1563 30.8574L18.774 31.0068L18.6023 30.6538L18.4807 30.4056C18.364 30.1516 18.343 29.8679 18.4211 29.6012C18.4993 29.3345 18.6719 29.1008 18.9106 28.9386L20.001 28.3586L21.0413 28.5503C21.0663 28.4562 21.1039 28.1221 21.1328 28.0362C21.1127 28.0338 21.0939 28.0303 21.0739 28.0303L20.4748 28.2397L19.8982 27.8656C19.8982 27.8656 19.6726 27.6609 19.8769 27.4562L20.4347 26.6597L19.0184 24.9891L21.1954 25.8291L21.3408 25.6609L21.6341 25.3291L21.9675 25.628C22.0552 25.7084 22.1161 25.811 22.143 25.9233C22.742 26.1433 23.8174 26.7915 23.9127 27.8456L23.5768 27.9715V27.9797C23.6532 28.0656 23.7171 28.1009 23.7372 28.1044L25.2913 28.248C25.3314 28.2409 25.3791 28.2244 25.4342 28.2103C25.6285 28.148 25.918 28.0574 26.2614 28.0574C26.5422 28.0574 26.8129 28.1186 27.0723 28.2338C27.1688 28.1986 27.2854 28.1738 27.4232 28.1656L27.4984 28.1633C28.3294 28.1633 28.743 28.748 29.0751 29.215C29.1303 29.2962 29.1854 29.3715 29.2431 29.4468C29.5339 29.8327 29.9136 30.3962 29.9287 30.4209L30.1004 30.6715L29.8898 30.9021C29.7294 31.0786 29.485 31.2844 29.0689 31.2844C28.9746 31.2837 28.8806 31.2746 28.7881 31.2574C28.7029 31.242 28.6197 31.218 28.54 31.1856C28.5272 31.2686 28.5126 31.3514 28.4961 31.4338L28.2241 32.7715C29.8535 32.395 30.8887 31.2374 30.8887 29.5809L30.885 24.5821ZM16.7536 24.1797H27.7454C27.1964 23.6456 27.2052 22.9715 27.3443 22.5327C27.196 22.4658 27.0581 22.3803 26.9344 22.2786C26.5046 22.5762 25.1936 23.4738 24.8514 23.6997L24.7775 23.7468L20.4635 23.0127H20.3758C20.273 23.0127 20.1213 23.0091 19.9559 22.9891C19.9382 23.0635 19.8979 23.1314 19.8399 23.1848C19.7819 23.2381 19.7087 23.2745 19.6291 23.2895C19.5496 23.3046 19.467 23.2977 19.3916 23.2696C19.3161 23.2416 19.2509 23.1936 19.2039 23.1315C19.1709 23.0891 19.1472 23.0409 19.1343 22.9898C19.1214 22.9387 19.1195 22.8857 19.1287 22.8338L19.145 22.7456C18.7013 22.4515 18.289 21.7927 18.4719 21.0986L18.4895 21.0256L18.5522 20.9833C18.6154 20.9427 18.6806 20.9051 18.7477 20.8703L18.4343 20.8233C18.3787 20.8143 18.329 20.7853 18.2957 20.7425C18.2625 20.6996 18.2484 20.6463 18.2564 20.5938C18.2764 20.4833 18.3855 20.4056 18.502 20.4256L19.2478 20.5362L19.3167 18.0644L20.4271 16.9586L21.1215 18.3315L20.3895 20.7103L21.0488 20.808C21.1051 20.8166 21.1554 20.8459 21.1888 20.8893C21.2222 20.9328 21.2358 20.9869 21.2268 21.0397C21.2187 21.0866 21.193 21.1292 21.1544 21.1598C21.1158 21.1905 21.0668 21.2071 21.0162 21.2068L20.9824 21.2056L20.4447 21.1233C20.4522 21.1397 20.4622 21.148 20.4698 21.1644C20.5296 21.2619 20.6197 21.3398 20.7279 21.388L24.0154 21.4386C24.1546 21.3103 24.4992 20.9927 24.8552 20.6562C24.5454 20.5495 24.2734 20.3638 24.0697 20.12C23.866 19.8763 23.7387 19.5841 23.7021 19.2762C23.2509 19.095 22.9376 18.8244 22.7646 18.4715C22.554 18.0338 22.6292 17.5962 22.6856 17.3833C22.247 17.2338 21.7858 16.9586 21.3145 16.5186H16.3613C16.5744 17.055 16.7536 17.6362 16.7536 18.2138V24.1786V24.1797Z" fill="#FFE52B"/>
<path fill-rule="evenodd" clip-rule="evenodd" d="M21.2794 26.7504C21.2603 26.749 21.2411 26.7512 21.2229 26.7568C21.2048 26.7625 21.188 26.7715 21.1736 26.7833C21.1593 26.7952 21.1476 26.8096 21.1392 26.8258C21.1309 26.842 21.1261 26.8596 21.1252 26.8775C21.1237 26.8954 21.126 26.9135 21.1321 26.9305C21.1382 26.9476 21.148 26.9633 21.1608 26.9767C21.1735 26.9901 21.1891 27.001 21.2064 27.0086C21.2238 27.0162 21.2426 27.0204 21.2618 27.021C21.3001 27.0233 21.3378 27.0114 21.3669 26.9879C21.396 26.9643 21.414 26.931 21.4172 26.8951C21.4193 26.8588 21.4059 26.8232 21.3801 26.7961C21.3543 26.769 21.318 26.7526 21.2794 26.7504ZM27.8293 37.2328L27.1838 35.5622C27.9521 35.3422 29.2719 34.8693 29.8647 34.5551L29.4699 35.7704L30.8072 36.1881C29.9975 36.5693 29.0174 36.9257 27.8293 37.2316V37.2328ZM23.8211 38.7328C22.2657 38.7328 20.491 38.3963 19.9671 38.221L20.7617 36.1998C21.421 36.381 22.7921 36.5728 23.7885 36.5669H23.8512C24.8463 36.5728 26.2162 36.3798 26.8792 36.1998L27.6726 38.221C27.1487 38.3975 25.374 38.7328 23.8211 38.7328ZM16.8325 36.1881L18.1711 35.7704L17.775 34.5551C18.3654 34.8693 19.6889 35.3434 20.4547 35.5622L19.8092 37.2328C18.6248 36.9269 17.6409 36.5693 16.8325 36.1881ZM30.8674 35.8175L30.0527 35.5234L30.2783 34.7328L30.5252 33.8704C30.5252 33.8704 29.0839 34.6069 27.0497 35.1587C26.4732 35.314 26.037 35.3857 26.037 35.3857V35.9728C26.037 35.9728 24.9491 36.1493 23.8512 36.1493H23.7885C22.6881 36.1493 21.6027 35.9728 21.6027 35.9728V35.3845C21.6027 35.3845 21.1653 35.314 20.5888 35.1587C18.5571 34.6057 17.1158 33.8704 17.1158 33.8704L17.3589 34.7328L17.5895 35.5234L16.7724 35.8175L15.8662 36.1351C16.904 36.6069 18.3428 37.2928 19.6588 37.6316L19.3492 38.4293C19.3492 38.4293 21.0187 39.1445 23.7998 39.1516V39.1528H23.8374V39.1516C26.6223 39.1445 28.2918 38.4293 28.2918 38.4293L27.9784 37.6316C29.2957 37.2928 30.737 36.6081 31.7698 36.1351L30.8674 35.8175ZM20.4208 3.63278L20.7906 3.67043L20.9497 3.35278L21.416 2.41514L22.2808 2.83631L22.6167 2.99749L23.8174 1.87749L24.7536 2.74808L25.0218 2.99749L25.3577 2.83631L26.2175 2.41514L26.6912 3.35278L26.8479 3.67043L27.2176 3.63278L27.5711 3.59396C27.4094 3.93631 27.2903 4.26219 27.2039 4.53278C26.2701 4.04219 25.0569 3.76455 23.8186 3.76455C22.5853 3.76455 21.3721 4.04219 20.4346 4.53278C20.3335 4.21301 20.2113 3.89947 20.0686 3.59396L20.4196 3.63278H20.4208ZM23.8174 4.25278C25.4755 4.25278 26.8003 4.77043 27.5335 5.31984C27.5335 5.31984 27.7516 4.08808 28.4935 3.00219L27.1587 3.14337L26.4606 1.74925L25.1196 2.39984L23.8174 1.19043L22.5202 2.39984L21.1766 1.74925L20.4797 3.14455L19.1449 3.00102C19.8882 4.08808 20.105 5.31866 20.105 5.31866C20.8419 4.76925 22.163 4.25278 23.8174 4.25278ZM44.8207 24.9716C44.8207 24.9716 44.2442 25.9163 42.9207 25.9163H42.9044C41.3151 25.9069 40.6734 24.9951 40.6734 24.9951C40.6734 24.9951 40.7662 26.181 40.1947 27.7822C39.5053 29.7116 40.1997 31.0881 40.1997 31.0881C40.1997 31.0881 39.8287 31.1834 39.4013 31.1834C39.2384 31.1834 39.0679 31.1681 38.9062 31.1281C37.579 30.8328 37.2481 29.6963 37.2481 29.6963C37.2481 29.6963 37.3709 33.5328 32.612 33.5328H32.5744C32.5744 33.5328 32.9943 32.9975 33.1183 31.454C33.3439 28.6069 35.3944 28.2151 35.3944 28.2151C35.3944 28.2151 34.3002 28.0857 33.8252 27.6869C33.0845 27.0551 33.1359 26.3245 33.1359 26.3245C34.8103 26.3022 35.9083 25.7669 36.7442 24.8575C37.2829 24.2757 37.6464 23.5694 37.797 22.8116C37.797 22.8116 36.8971 23.5798 35.1563 23.5798C35.0034 23.5798 34.8404 23.5728 34.6725 23.5575C33.8478 23.4951 33.2788 23.0022 33.2788 23.0022C35.0911 21.9093 36.362 20.0022 35.2352 17.1316C34.3328 14.8316 32.1621 13.1128 29.9775 11.8187C29.2506 11.3916 28.8445 10.9163 28.8445 10.5081C28.8445 9.5469 30.2983 9.51631 30.8949 8.87043C31.5843 8.11984 31.1519 6.90219 30.5553 6.16925C30.5553 6.16925 30.7558 6.13043 31.0729 6.13043C31.7021 6.13043 32.79 6.27866 33.6848 7.15161C34.8718 8.3069 34.3792 9.56572 34.3792 9.56572L34.6975 9.62455C34.8881 9.66102 35.0773 9.66925 35.2741 9.67866L35.4019 9.67984C37.1278 9.67984 37.8986 7.98337 37.8986 7.98337C37.8986 7.98337 39.7334 10.1057 37.0325 11.7693C36.5675 12.0528 36.362 12.3175 36.4159 12.5975L36.4585 12.7822L36.6502 12.814C38.6079 13.314 39.5993 14.5845 40.8088 16.0269C42.6462 18.2234 45.2456 18.294 45.5652 18.294H45.6003C45.6003 18.294 45.0075 20.0551 43.2591 20.0551C43.2302 20.0551 43.2052 20.0551 43.1763 20.0528C42.3742 20.0257 41.9606 19.7363 41.9606 19.7363C41.9606 19.7363 41.6485 23.7328 44.8207 24.9716ZM43.2591 20.594C45.4023 20.594 46.1192 18.5434 46.1493 18.4563L46.3874 17.7328L45.5852 17.7563H45.5827C45.2982 17.7563 42.9344 17.6975 41.2587 15.694L41.0996 15.5081C40.0042 14.1987 38.9651 12.9528 37.1077 12.3845C37.1819 12.3235 37.2611 12.2681 37.3446 12.2187C38.3297 11.6093 38.9037 10.8693 39.0466 10.0093C39.2584 8.71631 38.3798 7.68572 38.3422 7.64337L37.7456 6.94925L37.3722 7.77278C37.3471 7.82337 36.7204 9.14102 35.4019 9.14102H35.3042C35.2139 9.13749 35.1274 9.13396 35.0422 9.1269C35.0886 8.53866 34.9745 7.63043 34.0972 6.77631C33.0431 5.74925 31.7497 5.59514 31.0729 5.59514C30.7119 5.59514 30.4713 5.63749 30.445 5.63984L29.5438 5.80808L30.0991 6.49631C30.5352 7.02808 30.9313 8.00808 30.4625 8.51984C30.3121 8.68455 30.0038 8.81514 29.7093 8.94808C29.1027 9.21043 28.273 9.57749 28.273 10.5081C28.273 11.1104 28.7705 11.7422 29.6729 12.2775C32.34 13.8551 33.9869 15.5022 34.6975 17.3198C35.798 20.1151 34.3629 21.7104 32.9679 22.5504L32.3438 22.9281L32.8915 23.401C32.9654 23.4622 33.6335 24.0163 34.6223 24.0963C34.8103 24.1081 34.9896 24.1175 35.1575 24.1175C35.7905 24.1175 36.3306 24.0234 36.7693 23.8987C36.6382 24.1135 36.4854 24.316 36.3131 24.5034C35.5172 25.3716 34.5371 25.7669 33.1271 25.7881L32.6032 25.7951L32.5631 26.2893C32.5581 26.3893 32.5193 27.3057 33.4405 28.0845C33.5821 28.2045 33.7525 28.3045 33.9318 28.3845C33.3051 28.914 32.6709 29.8363 32.5481 31.4151C32.444 32.7328 32.1094 33.221 32.1056 33.2269L31.5266 34.0575L32.5731 34.0704C34.3015 34.0704 35.625 33.6234 36.5412 32.734C37.0157 32.2668 37.3699 31.7038 37.5765 31.0881C38.0854 31.4954 38.7325 31.719 39.4013 31.7187C39.8901 31.7187 40.2987 31.621 40.3438 31.6116L41.0118 31.4445L40.7173 30.8587C40.6947 30.8116 40.1383 29.6351 40.7374 27.9563C40.9955 27.2304 41.1271 26.581 41.1911 26.074C41.6122 26.281 42.1749 26.4504 42.9031 26.4528C44.5575 26.4528 45.2857 25.2916 45.3183 25.2434L45.6442 24.7093L45.0401 24.4763C43.0698 23.7069 42.6336 21.641 42.5459 20.5234C42.7251 20.5551 42.9282 20.5845 43.1575 20.5904L43.2591 20.594Z" fill="#1A1919"/>
<path fill-rule="evenodd" clip-rule="evenodd" d="M40.8514 11.8235C41.25 11.8235 41.7162 11.9517 42.1549 12.3787C43.5361 13.6964 44.8207 13.7705 44.8207 13.7705C44.5876 14.2564 43.9108 14.6835 43.2102 14.6835C43.0485 14.6835 42.8843 14.6599 42.7252 14.607C41.7739 14.3058 41.4342 12.9658 39.766 12.1317C39.766 12.1317 40.2298 11.8235 40.8514 11.8235ZM39.4941 12.607C40.2924 13.007 40.7587 13.5446 41.1673 14.0199C41.5683 14.4846 41.9481 14.9317 42.5459 15.1176C42.7565 15.1858 42.9808 15.2187 43.2102 15.2187C44.1038 15.2187 45.0025 14.7035 45.3434 13.9905L45.6855 13.2776L44.8571 13.2305C44.8182 13.2305 43.7516 13.1376 42.566 11.9987C42.0772 11.5305 41.4869 11.2858 40.8514 11.2858C40.0744 11.2858 39.4978 11.6505 39.4352 11.6882L38.6731 12.1929L39.4941 12.607ZM39.8688 19.7258V19.7529C39.3875 16.1035 36.57 13.4682 33.4329 11.8658C33.1447 11.7199 32.8752 11.5952 32.6158 11.4776C33.5696 11.6164 35.1074 11.6329 36.2956 10.6658C36.2956 10.6658 34.4782 11.9211 30.7596 10.7799C31.7873 11.4082 33.7889 12.2952 35.6162 13.7305C40.1821 17.5046 36.916 21.1846 36.916 21.1846C38.5578 19.574 38.6255 17.8493 38.1417 16.4399C39.0065 17.7929 39.558 19.434 39.4728 21.4587C39.3474 24.3587 37.6517 26.867 35.8682 28.8823C35.0109 29.8587 34.8204 31.0611 34.8204 31.0611C34.8204 31.0611 35.1663 30.0011 36.1577 28.9105C38.069 26.8046 39.7046 24.6199 39.9177 21.4693C40.1157 22.0423 40.9304 23.6305 42.2213 24.2293C42.2213 24.2293 40.5983 23.3093 39.8688 19.7258ZM15.0277 33.5329C10.2688 33.5329 10.3904 29.6964 10.3904 29.6964C10.3904 29.6964 10.057 30.8329 8.73225 31.1282C8.57043 31.1664 8.40405 31.185 8.23719 31.1835C7.81105 31.1835 7.44007 31.0893 7.44007 31.0893C7.44007 31.0893 8.13316 29.7105 7.44257 27.7823C6.87356 26.1823 6.96631 24.9952 6.96631 24.9952C6.96631 24.9952 6.32585 25.907 4.73537 25.9164H4.71908C3.39681 25.9164 2.81903 24.9717 2.81903 24.9717C5.98996 23.7329 5.67913 19.7364 5.67913 19.7364C5.67913 19.7364 5.26553 20.0258 4.4634 20.054H4.37943C2.62977 20.054 2.03695 18.294 2.03695 18.294H2.07329C2.39665 18.294 4.99231 18.2235 6.82844 16.027C8.03791 14.5835 9.03055 13.314 10.9845 12.8152L11.1813 12.7823L11.2226 12.5976C11.2778 12.3176 11.0722 12.0529 10.6085 11.7693C7.90756 10.1058 9.74119 7.98463 9.74119 7.98463C9.74119 7.98463 10.5082 9.67992 12.2391 9.67992L12.3644 9.67874C12.5599 9.66933 12.7517 9.6611 12.9409 9.62345L13.2593 9.5658C13.2593 9.5658 12.7655 8.30698 13.9561 7.15169C14.851 6.27874 15.9377 6.13051 16.5656 6.13051C16.8852 6.13051 17.082 6.16933 17.082 6.16933C16.4879 6.90227 16.0567 8.11992 16.7436 8.87051C17.3401 9.51639 18.7928 9.54698 18.7928 10.5082C18.7928 10.9164 18.3879 11.3917 17.6623 11.8187C15.4752 13.1129 13.3057 14.8305 12.4033 17.1329C11.2778 20.0034 12.5487 21.9093 14.3622 23.0035C14.3622 23.0035 13.792 23.4952 12.9673 23.5576C12.8056 23.5722 12.6434 23.5797 12.481 23.5799C10.7413 23.5799 9.84145 22.8129 9.84145 22.8129C9.84145 22.8129 9.99185 23.8729 10.8917 24.8587C11.7315 25.767 12.8281 26.3023 14.5013 26.3246C14.5013 26.3246 14.5552 27.054 13.8145 27.687C13.3395 28.087 12.2453 28.2164 12.2453 28.2164C12.2453 28.2164 14.2971 28.607 14.5227 31.454C14.6455 32.9976 15.0616 33.5329 15.0616 33.5329H15.0277ZM15.5328 33.227C15.5316 33.2211 15.1995 32.7329 15.0929 31.4152C14.9676 29.8364 14.3334 28.914 13.7055 28.3846C13.8872 28.3046 14.0564 28.2046 14.1968 28.0846C15.118 27.3058 15.0791 26.3905 15.0729 26.2893L15.0378 25.7952L14.5101 25.7882C13.1039 25.767 12.1225 25.3717 11.3267 24.5034C11.1551 24.3155 11.0024 24.1131 10.8704 23.8987C11.3091 24.0246 11.8455 24.1176 12.481 24.1176C12.6502 24.1176 12.8281 24.1082 13.0149 24.0964C13.6546 24.0364 14.2594 23.7942 14.7483 23.4023L15.296 22.9282L14.6718 22.5517C13.2731 21.7105 11.843 20.1164 12.9422 17.3199C13.6528 15.5023 15.296 13.8564 17.9681 12.2776C18.8705 11.7423 19.3643 11.1105 19.3643 10.5082C19.3643 9.57757 18.5371 9.21051 17.9305 8.94816C17.6347 8.81521 17.3264 8.68345 17.1772 8.51992C16.7072 8.00816 17.102 7.02816 17.5394 6.49639L18.0984 5.80816L17.1923 5.63992C17.1672 5.63639 16.9291 5.59521 16.5656 5.59521C15.89 5.59521 14.5979 5.74933 13.5451 6.77639C12.6665 7.63051 12.5512 8.53992 12.5963 9.12698C12.5111 9.13404 12.4258 9.13757 12.3356 9.1411H12.2391C10.9156 9.1411 10.2914 7.82345 10.2676 7.77286L9.89535 6.94933L9.29375 7.64345C9.25991 7.6858 8.37881 8.71639 8.59439 10.0093C8.73601 10.8682 9.31004 11.6093 10.2952 12.2187C10.4029 12.2835 10.4769 12.3387 10.5308 12.3846C8.67084 12.9529 7.63433 14.1987 6.53892 15.5082L6.381 15.694C4.70655 17.6976 2.33649 17.7576 2.05324 17.7576L1.24609 17.734L1.49175 18.4564C1.52057 18.5434 2.23497 20.594 4.37943 20.594L4.4822 20.5905C4.70905 20.5846 4.91335 20.5552 5.09383 20.5223C5.00609 21.6399 4.56743 23.707 2.59719 24.4752L1.99559 24.7105L2.32145 25.2435C2.35153 25.2917 3.08348 26.4529 4.74039 26.4529C5.33342 26.4584 5.91908 26.3293 6.44743 26.0764C6.51135 26.5823 6.6442 27.2305 6.90239 27.9564C7.50148 29.634 6.94375 30.8117 6.92244 30.8587L6.62665 31.4446L7.29468 31.6105C7.3398 31.6223 7.75089 31.7187 8.23719 31.7187C8.90627 31.7204 9.55377 31.4966 10.062 31.0882C10.2438 31.614 10.5559 32.2082 11.096 32.734C12.016 33.6223 13.3383 34.0705 15.0653 34.0705L16.1119 34.0576L15.5328 33.227Z" fill="#1A1919"/>
<path fill-rule="evenodd" clip-rule="evenodd" d="M5.48168 12.379C5.92285 11.9519 6.38784 11.8225 6.78891 11.8225C7.40555 11.8225 7.87304 12.1319 7.87304 12.1319C6.20611 12.9672 5.86269 14.306 4.91016 14.6084C4.75503 14.6589 4.59181 14.6839 4.42763 14.6825C3.72701 14.6825 3.04896 14.2566 2.81835 13.7707C2.81835 13.7707 4.10176 13.6966 5.48168 12.379ZM4.42763 15.219C4.65699 15.219 4.88134 15.186 5.0944 15.1178C5.69099 14.9319 6.072 14.486 6.47307 14.0202C6.88291 13.546 7.34413 13.0084 8.14376 12.6084L8.96595 12.1931L8.20142 11.6872C8.13875 11.6507 7.56597 11.2872 6.78891 11.2872C6.15221 11.2872 5.56064 11.5307 5.07309 11.999C3.88619 13.139 2.82211 13.2307 2.78325 13.2319L1.95605 13.2778L2.29445 13.9919C2.63787 14.7037 3.53525 15.219 4.42763 15.219ZM8.16632 21.459C8.07859 19.4343 8.63005 17.7931 9.49485 16.4402C9.01358 17.8496 9.07875 19.5743 10.7231 21.186C10.7231 21.186 7.45443 17.5037 12.0228 13.7319C13.8502 12.2955 15.8493 11.4084 16.877 10.7802C13.1596 11.9213 11.3435 10.6649 11.3435 10.6649C12.5304 11.6331 14.0683 11.6178 15.0221 11.4766C14.7639 11.5955 14.4931 11.719 14.2049 11.866C11.0678 13.4672 8.25155 16.1037 7.76776 19.7531V19.726C7.03957 23.3096 5.41776 24.2296 5.41776 24.2296C6.70869 23.6296 7.52085 22.0413 7.71888 21.4696C7.93445 24.6202 9.5688 26.806 11.4789 28.9107C12.4715 30.0013 12.8199 31.0613 12.8199 31.0613C12.8199 31.0613 12.6269 29.8602 11.7659 28.8825C9.98616 26.8672 8.29165 24.359 8.16632 21.459ZM22.7438 14.0743V14.799C23.0095 14.4943 23.5209 14.5566 23.5209 14.5566V15.6002C23.5209 15.6002 23.5046 16.1131 23.3103 16.3355H24.4208C24.2278 16.1131 24.209 15.6002 24.209 15.6002V14.5566C24.209 14.5566 24.7229 14.4943 24.9861 14.799V14.0743H22.7426H22.7438ZM22.2676 9.78251C22.6223 10.0472 22.8278 10.0919 22.8341 10.0955L22.9719 10.1555V9.47428L21.6685 8.95898C21.6685 8.95898 21.6798 9.35428 22.2676 9.78251ZM25.3683 9.78251C25.9574 9.35428 25.9699 8.95898 25.9699 8.95898L24.6652 9.47428V10.1566L24.8031 10.0955C24.8093 10.0919 25.0136 10.0472 25.3683 9.78251Z" fill="#1A1919"/>
<path fill-rule="evenodd" clip-rule="evenodd" d="M23.8184 7.96719L20.6763 6.80013C20.9432 6.20483 22.1752 5.69895 23.8184 5.69777C25.4627 5.69895 26.6948 6.20483 26.9617 6.80013L23.8184 7.96719ZM26.1608 11.6248L24.049 12.6719V8.43189L26.9153 7.5166L26.1608 11.6225V11.6248ZM27.4693 12.7495L28.4344 13.2766H28.4482L28.6913 13.4095C28.1461 13.5507 27.7288 13.8084 27.3791 14.1448L27.3415 14.1801C27.259 14.2627 27.18 14.3483 27.1046 14.4366L27.0607 14.4907C26.9855 14.5813 26.9141 14.6742 26.8477 14.7707L26.8113 14.819C26.73 14.9354 26.6527 15.0543 26.5795 15.1754C25.8901 16.2895 24.7935 16.9554 23.8184 16.9578C22.8433 16.9554 21.7453 16.2895 21.0585 15.1754C20.9855 15.0566 20.909 14.9397 20.8292 14.8248L20.784 14.7625C20.7185 14.6716 20.6508 14.5822 20.581 14.4942C20.5635 14.4707 20.5472 14.4531 20.5296 14.4331C20.456 14.3473 20.3795 14.2637 20.3003 14.1825C20.284 14.1707 20.2727 14.1554 20.2576 14.1425C19.8996 13.7905 19.4458 13.537 18.9454 13.4095L19.1911 13.2766H19.2011L20.1699 12.7495L21.1613 12.2142L23.8133 13.5719L23.8184 13.5672L23.8259 13.5719L26.4767 12.2142L27.4693 12.7495ZM31.2795 16.519C31.0626 17.0554 30.8834 17.6366 30.8834 18.2142L30.8859 21.9437C30.0575 21.8142 29.9584 20.9742 29.9559 20.9378L29.9409 20.7672L29.7617 20.7519C29.4577 20.7267 29.1737 20.5993 28.962 20.3931C28.5547 20.0107 28.5547 19.3919 28.5547 19.386C28.5497 19.4178 28.1085 19.9978 28.6199 20.6331C28.8355 20.9013 29.1488 21.0672 29.5524 21.1319C29.6476 21.5966 30.0161 22.2542 30.8859 22.3554V24.179H28.4407C27.3127 23.5895 27.7902 22.5519 27.8127 22.5072L27.908 22.3095L27.6924 22.2331C26.4704 21.8072 26.8076 20.6613 26.8239 20.6119L26.874 20.4448L26.706 20.3719C25.6984 19.9319 25.835 18.7484 25.8488 18.699C25.5379 18.9354 25.4264 19.4166 25.6395 19.8907C25.5241 20.0154 25.3687 20.1648 25.1995 20.3295C24.9051 20.2692 24.6401 20.1196 24.4453 19.9037C24.2505 19.6879 24.1367 19.4179 24.1217 19.1354L24.1204 18.9966L23.9825 18.9472C23.5752 18.806 23.2957 18.5919 23.1566 18.306C23.0024 17.9895 23.0563 17.659 23.0989 17.4978C23.3332 17.5434 23.5716 17.567 23.8108 17.5684H23.8271C23.9487 17.5684 24.0678 17.5613 24.1856 17.5507C24.8373 17.4895 25.5643 17.2272 26.3238 16.519H31.2795ZM28.2238 32.7719L28.4971 31.4342L28.5409 31.1872C28.7096 31.2492 28.8887 31.2823 29.0698 31.2848C29.4859 31.2848 29.7291 31.0778 29.8908 30.9025L30.0988 30.6731L29.9284 30.4213C29.9133 30.3966 29.5336 29.8331 29.2428 29.4472C29.185 29.371 29.1294 29.2933 29.0761 29.2142C28.744 28.7484 28.3291 28.1637 27.4969 28.1637L27.4229 28.166C27.3031 28.1721 27.1848 28.1947 27.072 28.2331C26.8188 28.1194 26.5418 28.0599 26.2611 28.059C25.9787 28.0653 25.6995 28.1162 25.4352 28.2095C25.38 28.2248 25.3299 28.2413 25.291 28.2484L23.7369 28.1048C23.7168 28.1001 23.6542 28.0648 23.5765 27.9801V27.9719L23.9124 27.846C23.8184 26.7919 22.7417 26.1437 22.1427 25.9237C22.1161 25.8109 22.0551 25.7079 21.9672 25.6272L21.6338 25.3295L21.3405 25.6601L21.1964 25.8295L19.0181 24.9884L20.4344 26.6601L19.8766 27.4566C19.6711 27.6601 19.8979 27.866 19.8979 27.866L20.4745 28.2401L21.0736 28.0295C21.0936 28.0295 21.1112 28.0342 21.1325 28.0366C21.1036 28.1225 21.066 28.4578 21.041 28.5507L20.002 28.359L18.9116 28.939C18.3488 29.3272 18.2724 29.9672 18.4817 30.406L18.602 30.6554L18.7737 31.0072L19.156 30.859C19.1622 30.8566 19.1672 30.8554 19.171 30.8519C19.0331 31.2648 19.0895 31.6566 19.3339 31.9142L19.5658 32.1884L19.8741 32.5554L20.2125 32.2131C20.3128 32.119 20.6361 31.779 20.7352 31.4872L20.8079 31.2648L20.6437 31.0942L20.6161 31.0625L20.8016 30.7742L22.1577 31.0754L22.4635 31.1413L22.6264 30.8884L22.7142 30.7519C22.7305 30.7225 22.7342 30.7178 22.7969 30.7178C22.8458 30.7178 22.8934 30.7225 22.9448 30.7342C23.4072 30.8199 23.8772 30.8652 24.3485 30.8695C24.7533 30.8695 24.9977 30.8554 25.286 30.7648C25.286 30.7648 26.0142 31.5413 26.0393 31.5719L25.5931 32.866L25.573 32.9437C24.7295 33.0084 24.3184 33.1825 23.8209 33.6495C23.0989 32.9766 22.5888 32.9048 20.6499 32.9048C18.3275 32.9048 16.7533 31.626 16.7533 29.5801V24.5825H30.8859L30.8884 29.5801C30.8884 31.2378 29.8532 32.3942 28.2238 32.7719ZM19.5194 29.946L19.5934 30.119C19.5432 30.2695 18.9918 30.4837 18.9918 30.4837L18.874 30.2378C18.7987 30.0693 18.7858 29.882 18.8374 29.7058C18.889 29.5296 19.002 29.3748 19.1585 29.266L20.0521 28.7542L21.0009 28.9425C20.9821 29.226 21.1625 29.4378 21.1625 29.4378L20.1699 29.259L19.5746 29.6448C19.4743 29.7107 19.4668 29.8331 19.5194 29.946ZM28.0734 31.3578L27.7689 32.8531C27.5733 32.879 27.3678 32.8931 27.1572 32.9001L27.4781 31.4648C27.5733 31.0366 26.3551 30.9037 25.7523 30.0648C25.4577 30.3754 24.905 30.4684 24.3485 30.4684C23.8397 30.4684 23.3333 30.3919 23.0237 30.3342C22.9492 30.3221 22.8738 30.3154 22.7981 30.3142C22.6189 30.3142 22.4572 30.366 22.3444 30.5437L22.2567 30.6848L20.5948 30.3166L20.1812 30.9601C20.1235 31.0648 20.1185 31.1519 20.2125 31.2495L20.3253 31.3648C20.2476 31.5919 19.9017 31.9366 19.9017 31.9366L19.6548 31.646C19.4593 31.4413 19.4919 31.0648 19.6949 30.7166L20.3541 29.6695L21.7616 29.8613L21.5436 29.3919C21.249 28.7719 21.6977 27.9837 21.7453 27.5295C21.7291 27.6672 21.5949 27.6978 21.4395 27.6978C21.2967 27.6978 21.1387 27.6731 21.0335 27.6731C20.9921 27.6731 20.9557 27.6766 20.9369 27.6895L20.5559 27.9072L20.2551 27.6578C20.2188 27.6107 20.2075 27.4966 20.2952 27.4119L20.9921 26.6778L20.1699 25.7742L21.3205 26.319L21.6727 25.9178C21.7692 26.0072 21.7265 26.239 21.7265 26.239C22.0863 26.2484 23.0952 26.7719 23.1478 27.9954C23.1516 28.0331 23.1516 28.0742 23.1516 28.1154L23.1779 28.1554C23.2493 28.2484 23.4461 28.4848 23.6955 28.506L25.2873 28.6542H25.2935C25.469 28.6542 25.8162 28.4613 26.2611 28.4613C26.5055 28.4613 26.775 28.5201 27.0632 28.6907C27.0632 28.6907 27.2086 28.5825 27.443 28.5707C27.4605 28.5684 27.4806 28.5684 27.4969 28.5684C28.2113 28.5684 28.5083 29.1754 28.8919 29.6801C29.1801 30.0637 29.5649 30.6331 29.5649 30.6331C29.4233 30.7919 29.2904 30.8801 29.0686 30.8801C28.9996 30.8804 28.9307 30.8741 28.863 30.8613C28.0985 30.7284 27.9869 29.2495 27.5508 29.1319C27.5279 29.1262 27.5043 29.1235 27.4806 29.1237C27.3402 29.1237 27.2788 29.2413 27.2788 29.2413C27.4793 29.746 27.3615 29.9495 27.5771 30.339C27.7375 30.6272 28.022 30.8637 28.1399 30.9766C28.1399 30.9766 28.1085 31.1954 28.0734 31.359V31.3578ZM26.6083 32.9107C26.3952 32.9107 26.1972 32.9131 26.0192 32.9201L26.4855 31.5542C26.5581 31.3648 26.1897 31.1213 26.038 30.9072C26.2674 31.0437 26.8627 31.3425 27.1497 31.4601C26.9637 31.9418 26.7832 32.4254 26.6083 32.9107ZM19.6748 20.6025L19.7413 18.2284L20.3078 17.6648L20.6637 18.366L19.9619 20.6448L19.6736 20.6037L19.6748 20.6025ZM20.0822 21.339C20.1682 21.4936 20.2984 21.6227 20.4582 21.7119C20.4538 21.9375 20.4307 22.1625 20.3892 22.3848C20.3767 22.4366 20.3642 22.4848 20.3479 22.5331C20.3404 22.5637 20.3303 22.5884 20.3241 22.6084C20.1499 22.6084 19.8102 22.5884 19.5332 22.4931C19.2249 22.3872 18.7649 21.8554 18.8715 21.2695C19.0043 21.1931 19.3126 21.0295 19.6021 21.0295C19.824 21.0295 19.9756 21.1284 20.0822 21.339ZM26.6446 21.9766C26.2097 22.279 25.0867 23.0495 24.6794 23.3178L20.759 22.6542L20.7865 22.5566C20.8367 22.3648 20.8906 22.1037 20.8931 21.7966L24.1881 21.846L24.2508 21.7872C24.3009 21.7401 25.3449 20.7907 25.8763 20.246C26.0029 20.3954 26.1608 20.5366 26.3689 20.6613C26.2987 21.026 26.3275 21.5413 26.6446 21.9766ZM21.3142 16.519C21.7867 16.959 22.2467 17.2331 22.6853 17.3837C22.6289 17.5954 22.5537 18.0354 22.7643 18.4719C22.9373 18.8248 23.2506 19.0954 23.7031 19.2766C23.7532 19.7119 24.0452 20.3672 24.8561 20.6566C24.5002 20.9931 24.1543 21.3107 24.0164 21.4378L20.7276 21.3895C20.619 21.3408 20.5289 21.262 20.4695 21.1637C20.4632 21.1484 20.4519 21.1401 20.4444 21.1237L20.9821 21.206L21.0159 21.2072C21.0665 21.2075 21.1155 21.1909 21.1541 21.1602C21.1927 21.1296 21.2184 21.087 21.2265 21.0401C21.2355 20.9874 21.2221 20.9335 21.189 20.8901C21.1559 20.8467 21.1058 20.8173 21.0497 20.8084L20.3892 20.7095L21.1212 18.3319L20.4281 16.959L19.3164 18.0648L19.2487 20.5366L18.5017 20.4248C18.3864 20.4037 18.2761 20.4837 18.2548 20.5931C18.2465 20.646 18.2606 20.6999 18.2941 20.7433C18.3276 20.7866 18.3778 20.8159 18.434 20.8248L18.7474 20.8695C18.6346 20.9295 18.5606 20.9778 18.5519 20.9837L18.4892 21.026L18.4716 21.099C18.2899 21.7931 18.701 22.4519 19.1447 22.746L19.1284 22.8342C19.1108 22.9401 19.1359 23.046 19.2036 23.1319C19.2421 23.1841 19.2937 23.2266 19.3538 23.2557C19.4139 23.2848 19.4806 23.2997 19.5483 23.299C19.6432 23.2982 19.7352 23.2674 19.8091 23.2114C19.883 23.1555 19.9347 23.0777 19.9556 22.9907C20.121 23.0084 20.2727 23.0131 20.3755 23.0131H20.4644L24.7772 23.746L24.8511 23.7001C25.1945 23.4742 26.5055 22.5766 26.9341 22.279C27.0532 22.3742 27.1848 22.4613 27.344 22.5331C27.2049 22.9719 27.1961 23.646 27.7451 24.1801H16.7533V18.2154C16.7533 17.6366 16.5741 17.0554 16.361 16.519H21.3142ZM20.7201 7.51895L23.589 8.43307V12.6707L21.4771 11.6237L20.7201 7.51777V7.51895ZM27.7187 7.00719C27.7187 5.97307 25.8676 5.04248 23.8246 5.04248H23.8121C21.7692 5.04248 19.9192 5.97307 19.9192 7.00719L19.9593 7.2613L20.7753 11.6648L19.9556 12.1119L17.8362 13.2766H17.8437C17.8437 13.2766 17.3675 13.5072 17.1456 13.6484C16.3385 14.1754 16.1668 14.9448 16.6355 15.2625C16.7508 14.6354 17.2785 13.9801 18.2648 13.9801C18.9767 13.9801 19.5182 14.326 19.9568 14.8425C20.0696 14.9731 20.1762 15.1131 20.2752 15.2625C20.398 15.4519 20.5221 15.619 20.6437 15.779H15.1816C15.5827 16.5378 15.965 17.3413 15.965 18.2142V29.5813C15.965 32.3319 18.2147 33.6448 20.6487 33.6448C22.5299 33.6448 22.7831 33.5648 23.8209 34.5366C24.8536 33.5648 25.108 33.6448 26.9905 33.6448C29.4258 33.6448 31.6717 32.3319 31.6717 29.5813V18.2142C31.6717 17.3413 32.054 16.5378 32.4576 15.779H26.9931C27.1159 15.619 27.2387 15.4519 27.3615 15.2625C27.4618 15.1131 27.5683 14.9731 27.6786 14.8425C28.1198 14.3237 28.6612 13.9801 29.3731 13.9801C30.3595 13.9801 30.8859 14.6354 31.0025 15.2625C31.4712 14.9448 31.302 14.1754 30.4886 13.6484C30.273 13.5072 29.7943 13.2766 29.7943 13.2766H29.803L27.6786 12.1119L26.864 11.6648L27.6786 7.2613L27.7187 7.00719Z" fill="#1A1919"/>
<path d="M62.8171 25.9529H66.5771V17.7412H71.7408V14.7529H57.6533V17.7412H62.8171V25.9529ZM83.1461 14.7529L76.8795 21.2706V14.7529H73.2448V25.9529H76.4533L82.72 19.4353V25.9529H86.3547V14.7529H83.1461ZM92.7429 21.7882H98.5834V25.9529H102.218V14.7529H98.5834V18.847H92.7429V14.7529H89.1082V25.9529H92.7429V21.7882ZM112.34 25.9529C113.167 25.9529 113.919 25.8823 114.621 25.6941C116.501 25.2 117.729 23.7647 117.729 21.8118C117.729 19.9529 116.677 18.6588 114.997 18.0706C114.195 17.7882 113.242 17.7647 112.34 17.7647H108.605V14.7529H104.97V25.9529H112.34ZM108.605 20.4H111.713C112.215 20.4 112.691 20.4 113.117 20.5412C113.719 20.7294 114.07 21.2 114.07 21.7647C114.07 22.3529 113.719 22.847 113.142 23.0823C112.741 23.247 112.34 23.247 111.713 23.247H108.605V20.4ZM123.244 21.7176H124.247L128.583 25.9529H133.421L127.38 20.1176L133.195 14.7529H128.633L124.247 18.9647H123.244V14.7529H119.609V25.9529H123.244V21.7176Z" fill="black"/>
<path d="M140.9 14.4471C136.012 14.4471 133.079 17.0353 133.079 20.3765C133.079 23.7177 136.012 26.3059 140.9 26.3059C145.763 26.3059 148.696 23.7177 148.696 20.3765C148.696 17.0353 145.763 14.4471 140.9 14.4471ZM140.9 23.5765C138.468 23.5765 136.914 22.2118 136.914 20.3765C136.914 18.5412 138.468 17.2 140.9 17.2C143.306 17.2 144.885 18.5412 144.885 20.3765C144.885 22.2118 143.306 23.5765 140.9 23.5765ZM160.8 15.2471V14.1177H157.166V15.2471C152.604 15.3412 149.871 17.153 149.871 20.353C149.871 23.553 152.604 25.2236 157.166 25.3177V26.4471H160.8V25.3177C165.388 25.2236 168.12 23.553 168.12 20.353C168.12 17.153 165.388 15.3412 160.8 15.2471ZM157.166 22.9177C154.659 22.8236 153.556 21.8589 153.556 20.353C153.556 18.8471 154.659 17.7647 157.166 17.6706V22.9177ZM160.8 22.9177V17.6706C163.332 17.7647 164.41 18.8471 164.41 20.353C164.41 21.8589 163.332 22.8236 160.8 22.9177ZM180.212 15.2471V14.1177H176.577V15.2471C172.015 15.3412 169.283 17.153 169.283 20.353C169.283 23.553 172.015 25.2236 176.577 25.3177V26.4471H180.212V25.3177C184.799 25.2236 187.531 23.553 187.531 20.353C187.531 17.153 184.799 15.3412 180.212 15.2471ZM176.577 22.9177C174.071 22.8236 172.968 21.8589 172.968 20.353C172.968 18.8471 174.071 17.7647 176.577 17.6706V22.9177ZM180.212 22.9177V17.6706C182.744 17.7647 183.822 18.8471 183.822 20.353C183.822 21.8589 182.744 22.8236 180.212 22.9177Z" fill="black"/>
</svg>
