<?xml version="1.0" encoding="utf-8"?><svg viewBox="0 0 512 512" xmlns="http://www.w3.org/2000/svg" xmlns:xlink="http://www.w3.org/1999/xlink"><style>:root>svg{display:none}:root>svg:target{display:block}</style><svg viewBox="0 0 13 20" id="arrow" xmlns="http://www.w3.org/2000/svg"><path fill-rule="evenodd" clip-rule="evenodd" d="M12.562.647a1.478 1.478 0 00-2.017 0L.979 9.75l9.566 9.102c.557.53 1.46.53 2.017 0a1.31 1.31 0 000-1.919L5.013 9.75l7.549-7.183c.557-.53.557-1.39 0-1.92z"/></svg><svg viewBox="0 0 14 10" id="arrow_1" xmlns="http://www.w3.org/2000/svg"><path fill-rule="evenodd" clip-rule="evenodd" d="M2 2.086l5 5 5-5L13.414 3.5 7 9.915.586 3.5 2 2.086z"/></svg><svg class="cbasket" viewBox="0 0 18 18" id="basket" xmlns="http://www.w3.org/2000/svg"><path d="M6.477.58a.564.564 0 01.267.57.57.57 0 01-.074.208L3.806 6.167h10.388L11.33 1.358a.57.57 0 01.193-.777.56.56 0 01.772.195l3.212 5.39h1.931a.569.569 0 01.563.567v1.134a.569.569 0 01-.563.566H.563A.56.56 0 010 7.867V6.733a.569.569 0 01.563-.566h1.931L5.704.776a.565.565 0 01.565-.27.56.56 0 01.207.075zM3.818 16.368l-1.665-6.8H1.062l1.716 7.282a.85.85 0 00.82.651h10.807a.84.84 0 00.82-.65l1.713-7.283h-1.093l-1.664 6.8H3.819z"/></svg><svg viewBox="0 0 23 18" id="burger" xmlns="http://www.w3.org/2000/svg"><path d="M0 0h19v2H0zm0 8h23v2H0zm0 8h15v2H0z"/></svg><svg viewBox="0 0 40 14" id="button_arrow" xmlns="http://www.w3.org/2000/svg"><path d="M0 7h39m0 0l-6-6m6 6l-6 6"/></svg><svg viewBox="0 0 72 72" id="clipboard" xmlns="http://www.w3.org/2000/svg"><path fill-rule="evenodd" clip-rule="evenodd" d="M48.846 32.157a2.248 2.248 0 010 3.186l-13.5 13.5a2.249 2.249 0 01-3.186 0l-6.75-6.75a2.252 2.252 0 113.186-3.186l5.157 5.162L45.66 32.157a2.25 2.25 0 013.186 0z"/><path d="M18 6.75h-4.5a9 9 0 00-9 9V63a9 9 0 009 9h45a9 9 0 009-9V15.75a9 9 0 00-9-9H54v4.5h4.5a4.5 4.5 0 014.5 4.5V63a4.5 4.5 0 01-4.5 4.5h-45A4.5 4.5 0 019 63V15.75a4.5 4.5 0 014.5-4.5H18v-4.5z"/><path d="M42.75 4.5A2.25 2.25 0 0145 6.75v4.5a2.25 2.25 0 01-2.25 2.25h-13.5A2.25 2.25 0 0127 11.25v-4.5a2.25 2.25 0 012.25-2.25h13.5zM29.25 0a6.75 6.75 0 00-6.75 6.75v4.5A6.75 6.75 0 0029.25 18h13.5a6.75 6.75 0 006.75-6.75v-4.5A6.75 6.75 0 0042.75 0h-13.5z"/></svg><svg viewBox="0 0 8 7" id="close" xmlns="http://www.w3.org/2000/svg"><path fill-rule="evenodd" clip-rule="evenodd" d="M7 .5c.229.229.229.6 0 .828L4.828 3.5 7 5.672a.585.585 0 11-.828.828L4 4.328 1.828 6.5A.585.585 0 011 5.672L3.172 3.5 1 1.328A.585.585 0 011.828.5L4 2.672 6.172.5A.585.585 0 017 .5z" fill-opacity=".7"/></svg><svg viewBox="0 0 10 10" id="close-gray" xmlns="http://www.w3.org/2000/svg"><path fill-rule="evenodd" clip-rule="evenodd" d="M9.596.404c.35.35.35.918 0 1.268L6.268 5l3.328 3.328a.897.897 0 11-1.268 1.268L5 6.268 1.672 9.596A.897.897 0 01.404 8.328L3.732 5 .404 1.672A.897.897 0 011.672.404L5 3.732 8.328.404a.897.897 0 011.268 0z"/></svg><svg viewBox="0 0 24 24" id="email" xmlns="http://www.w3.org/2000/svg"><path fill-rule="evenodd" clip-rule="evenodd" d="M1.25 9A5.75 5.75 0 017 3.25h10A5.75 5.75 0 0122.75 9v6A5.75 5.75 0 0117 20.75H7A5.75 5.75 0 011.25 15V9zM7 4.75A4.25 4.25 0 002.75 9v6A4.25 4.25 0 007 19.25h10A4.25 4.25 0 0021.25 15V9A4.25 4.25 0 0017 4.75H7zm-1.6 3.8a.75.75 0 011.05-.15l4.8 3.6a1.25 1.25 0 001.5 0l4.8-3.6a.75.75 0 11.9 1.2l-4.8 3.6a2.75 2.75 0 01-3.3 0l-4.8-3.6a.75.75 0 01-.15-1.05z"/></svg><svg viewBox="0 0 20 21" id="filters" xmlns="http://www.w3.org/2000/svg"><path fill-rule="evenodd" clip-rule="evenodd" d="M14.375 3a1.875 1.875 0 100 3.75 1.875 1.875 0 000-3.75zm-3.063 1.25a3.125 3.125 0 016.126 0H20V5.5h-2.563a3.125 3.125 0 01-6.125 0H0V4.25h11.313zm-5.687 5a1.875 1.875 0 100 3.75 1.875 1.875 0 000-3.75zM2.562 10.5a3.125 3.125 0 016.126 0H20v1.25H8.687a3.125 3.125 0 01-6.124 0H0V10.5h2.563zm11.813 5a1.875 1.875 0 100 3.75 1.875 1.875 0 000-3.75zm-3.063 1.25a3.125 3.125 0 016.126 0H20V18h-2.563a3.125 3.125 0 01-6.125 0H0v-1.25h11.313z"/></svg><svg viewBox="0 0 25 25" id="geolocation" xmlns="http://www.w3.org/2000/svg"><path fill-rule="evenodd" clip-rule="evenodd" d="M12.25 3.75C8.239 3.75 5 6.966 5 10.917c0 2.446 1.461 5.045 3.219 7.088.867 1.008 1.777 1.846 2.554 2.425.39.29.733.506 1.011.646.139.07.252.117.34.144a.52.52 0 00.126.03.531.531 0 00.127-.03c.087-.027.2-.074.339-.143a7.09 7.09 0 001.01-.647c.778-.579 1.688-1.417 2.555-2.425 1.758-2.043 3.219-4.642 3.219-7.088 0-3.951-3.238-7.167-7.25-7.167zM3.5 10.917c0-4.794 3.925-8.667 8.75-8.667S21 6.123 21 10.917c0 2.981-1.739 5.924-3.581 8.066-.933 1.084-1.923 1.999-2.796 2.65a8.6 8.6 0 01-1.232.783c-.355.179-.76.334-1.141.334s-.786-.155-1.14-.334a8.598 8.598 0 01-1.233-.783c-.873-.651-1.863-1.566-2.796-2.65C5.24 16.84 3.5 13.898 3.5 10.917zm5-.417a3.75 3.75 0 117.5 0 3.75 3.75 0 01-7.5 0zm3.75-2.25a2.25 2.25 0 100 4.5 2.25 2.25 0 000-4.5z"/></svg><svg viewBox="0 0 24 24" id="geolocation_blue" xmlns="http://www.w3.org/2000/svg"><path fill-rule="evenodd" clip-rule="evenodd" d="M12 3.25c-4.011 0-7.25 3.216-7.25 7.167 0 2.446 1.461 5.045 3.219 7.088.867 1.008 1.777 1.846 2.554 2.425.39.29.733.506 1.011.646.139.07.252.117.34.144a.52.52 0 00.126.03.531.531 0 00.127-.03c.087-.027.2-.074.339-.143a7.09 7.09 0 001.01-.647c.778-.579 1.688-1.417 2.555-2.425 1.758-2.043 3.219-4.642 3.219-7.088 0-3.951-3.238-7.167-7.25-7.167zm-8.75 7.167C3.25 5.623 7.175 1.75 12 1.75s8.75 3.873 8.75 8.667c0 2.981-1.739 5.924-3.581 8.066-.933 1.084-1.923 1.999-2.796 2.65a8.6 8.6 0 01-1.232.783c-.355.179-.76.334-1.141.334s-.786-.155-1.14-.334a8.598 8.598 0 01-1.233-.783c-.873-.651-1.863-1.566-2.796-2.65C4.99 16.34 3.25 13.398 3.25 10.417zm5-.417a3.75 3.75 0 117.5 0 3.75 3.75 0 01-7.5 0zM12 7.75a2.25 2.25 0 100 4.5 2.25 2.25 0 000-4.5z"/></svg><svg viewBox="0 0 502.664 502.664" id="icon" xmlns="http://www.w3.org/2000/svg"><path d="M153.821 358.226L0 274.337v-46.463l153.821-83.414v54.574L46.636 250.523l107.185 53.431v54.272zm26.273 29.358L282.103 115.08h32.227L212.084 387.584h-31.99zm168.749-29.358v-54.272l107.164-52.999-107.164-52.59v-53.927l153.821 83.522v46.183l-153.821 84.083z"/></svg><svg viewBox="0 0 106 81" id="logo" xmlns="http://www.w3.org/2000/svg"><path d="M0 0h13.25v47.107H0V0zm92.75 0H106v47.107H92.75V0z"/><path fill-rule="evenodd" clip-rule="evenodd" d="M28.228 0h-13.25v11.49h13.826c2.864 0 5.185 2.314 5.185 5.17 0 2.855-2.321 5.17-5.185 5.17H14.978v11.49h13.25c9.227 0 16.707-7.46 16.707-16.66C44.935 7.459 37.455 0 28.228 0zm49.544 13.787h13.25v11.49H77.196c-2.864 0-5.185 2.315-5.185 5.17 0 2.856 2.321 5.17 5.185 5.17h13.826v11.49h-13.25c-9.227 0-16.707-7.46-16.707-16.66s7.48-16.66 16.707-16.66z"/><path d="M29.956 35.617H14.978v11.49h14.978c1.153 0 7.49-.288 12.963-3.734 5.472-3.447 6.625-4.022 11.233-10.341 4.609-6.32 5.185-10.915 10.082-16.085 4.896-5.17 10.657-5.458 11.81-5.458h14.978V0H76.043c-1.152 0-6.337.287-11.521 2.872-5.185 2.585-8.066 5.17-11.81 10.34-3.745 5.171-4.32 9.48-9.794 15.799-5.472 6.319-11.81 6.606-12.962 6.606zM0 69.281V53.073h6.514c1.252 0 2.319.234 3.2.704.882.464 1.554 1.11 2.016 1.94.467.822.701 1.772.701 2.848 0 1.077-.236 2.026-.71 2.85-.472.822-1.157 1.464-2.055 1.923-.892.459-1.972.688-3.24.688H2.272V61.28H5.86c.672 0 1.225-.114 1.66-.34.441-.233.77-.552.984-.958.22-.412.33-.884.33-1.417 0-.538-.11-1.008-.33-1.408a2.188 2.188 0 00-.983-.942c-.441-.227-1-.34-1.677-.34H3.49V69.28H0zm29.87-8.104c0 1.767-.34 3.271-1.023 4.511-.677 1.24-1.602 2.187-2.773 2.841-1.167.65-2.478.974-3.934.974-1.468 0-2.784-.327-3.95-.981-1.167-.655-2.089-1.602-2.766-2.842s-1.016-2.74-1.016-4.503c0-1.768.339-3.271 1.016-4.511.677-1.24 1.6-2.184 2.765-2.833 1.167-.655 2.483-.982 3.95-.982 1.457 0 2.768.327 3.935.982 1.171.648 2.096 1.593 2.773 2.833.682 1.24 1.024 2.743 1.024 4.511zm-3.538 0c0-1.145-.175-2.11-.524-2.897-.344-.786-.83-1.382-1.46-1.788-.628-.407-1.365-.61-2.208-.61-.844 0-1.58.203-2.21.61-.628.406-1.117 1.002-1.467 1.788-.344.786-.515 1.752-.515 2.897 0 1.145.171 2.11.515 2.897.35.786.839 1.382 1.468 1.788.628.407 1.365.61 2.209.61.843 0 1.58-.203 2.209-.61.628-.406 1.115-1.002 1.459-1.788.349-.786.524-1.752.524-2.897zm15.081-3.443c-.064-.638-.341-1.134-.83-1.488-.49-.353-1.153-.53-1.991-.53-.57 0-1.051.08-1.443.237-.393.153-.694.367-.903.642a1.523 1.523 0 00-.307.934c-.01.29.051.543.186.76.14.216.33.403.572.561.242.153.521.288.838.404.318.11.656.206 1.016.285l1.484.348c.72.158 1.38.37 1.983.633a6.044 6.044 0 011.564.973c.44.386.782.84 1.024 1.362.247.522.373 1.121.379 1.796-.006.992-.264 1.852-.774 2.58-.505.723-1.236 1.285-2.193 1.686-.951.396-2.099.594-3.443.594-1.332 0-2.493-.2-3.482-.602-.984-.4-1.752-.994-2.306-1.78-.548-.792-.836-1.77-.862-2.937h3.377c.038.544.197.998.476 1.362.285.358.664.63 1.137.815.478.18 1.018.269 1.62.269.591 0 1.105-.085 1.54-.253.44-.17.782-.404 1.024-.705.242-.3.363-.646.363-1.037 0-.364-.11-.67-.33-.918-.216-.248-.533-.459-.952-.633a9.8 9.8 0 00-1.524-.475l-1.798-.443c-1.392-.332-2.49-.852-3.297-1.559-.806-.707-1.206-1.66-1.201-2.857-.005-.981.26-1.839.798-2.572.543-.734 1.287-1.306 2.233-1.718.946-.411 2.02-.617 3.225-.617 1.225 0 2.295.206 3.208.617.92.412 1.634.984 2.145 1.718.51.733.774 1.583.79 2.548h-3.346zm13.57 2.106v2.674h-7.53V59.84h7.53zm5.837 9.441h-3.74l5.699-16.208h4.498L72.97 69.28h-3.74l-4.136-12.504h-.13L60.82 69.28zm-.234-6.37h8.836v2.674h-8.836V62.91zm11.724-7.013v-2.825h13.56v2.825h-5.055v13.383h-3.45V55.898H72.31zm15.793-2.825h4.305l4.547 10.89h.193l4.547-10.89H106V69.28h-3.386V58.73h-.137l-4.273 10.471H95.9l-4.273-10.51h-.137v10.59h-3.386v-16.21zM5.49 77.218H4.353a1.19 1.19 0 00-.18-.445 1.247 1.247 0 00-.325-.333 1.418 1.418 0 00-.444-.205 1.916 1.916 0 00-.533-.07 1.75 1.75 0 00-.9.229 1.556 1.556 0 00-.614.666c-.148.291-.222.647-.222 1.067 0 .428.074.789.222 1.082.15.291.354.511.614.66.262.148.56.222.897.222.187 0 .361-.022.523-.066a1.5 1.5 0 00.441-.2 1.23 1.23 0 00.332-.321c.091-.128.154-.273.189-.437l1.137.005a2.048 2.048 0 01-.277.748c-.14.233-.323.439-.55.617a2.619 2.619 0 01-.797.415A3.282 3.282 0 012.853 81a3.086 3.086 0 01-1.466-.341 2.505 2.505 0 01-1.016-.986C.124 79.243 0 78.728 0 78.127c0-.602.125-1.117.374-1.545.25-.43.59-.758 1.02-.985a3.062 3.062 0 011.459-.342c.347 0 .67.044.967.131.298.088.564.216.797.385a2.136 2.136 0 01.873 1.447zm1.033 3.705v-5.591h4.052v.849H7.652v1.518h2.713v.849H7.652v1.526h2.947v.85H6.523zm5.203 0v-5.591h2.336c.479 0 .88.08 1.205.24.326.16.572.38.739.66a1.8 1.8 0 01.252.95c0 .36-.084.678-.252.956a1.727 1.727 0 01-.745.658c-.329.159-.733.238-1.214.238h-1.548v-.833h1.396c.28 0 .509-.043.687-.13a.877.877 0 00.396-.361c.087-.153.13-.329.13-.527a1.03 1.03 0 00-.13-.524.85.85 0 00-.399-.353c-.178-.085-.408-.128-.69-.128h-1.034v4.745h-1.129zm5.512 0v-5.591h2.385c.45 0 .824.063 1.122.19.3.126.524.298.672.517.15.218.226.466.226.742 0 .228-.05.423-.146.585-.098.16-.229.29-.393.39-.164.1-.348.172-.55.216v.055c.22.01.433.071.635.182.205.11.372.264.502.465.13.2.195.442.195.726 0 .29-.078.55-.234.78-.157.23-.392.411-.706.544-.314.133-.71.2-1.186.2h-2.522zm1.129-.846h1.213c.41 0 .705-.07.886-.21a.662.662 0 00.273-.546.773.773 0 00-.137-.448.912.912 0 00-.389-.317 1.417 1.417 0 00-.602-.117h-1.244v1.638zm0-2.367h1.116c.195 0 .37-.032.526-.096a.87.87 0 00.368-.276.684.684 0 00.137-.425.663.663 0 00-.255-.536c-.169-.14-.42-.21-.752-.21h-1.14v1.543zm4.501-2.378h1.119v3.811h.058l2.929-3.811h1.013v5.591h-1.129v-3.808h-.052l-2.938 3.808h-1v-5.591zm11.68 1.886H33.41a1.19 1.19 0 00-.179-.445 1.247 1.247 0 00-.325-.333 1.418 1.418 0 00-.444-.205 1.916 1.916 0 00-.533-.07 1.75 1.75 0 00-.9.229 1.557 1.557 0 00-.614.666c-.148.291-.223.647-.223 1.067 0 .428.075.789.223 1.082.15.291.354.511.614.66.262.148.56.222.897.222.187 0 .361-.022.523-.066a1.5 1.5 0 00.441-.2c.132-.087.243-.194.332-.321.091-.128.154-.273.188-.437l1.138.005a2.05 2.05 0 01-.277.748c-.14.233-.323.439-.55.617a2.62 2.62 0 01-.797.415A3.282 3.282 0 0131.91 81a3.086 3.086 0 01-1.466-.341 2.505 2.505 0 01-1.016-.986c-.247-.43-.371-.945-.371-1.546 0-.602.125-1.117.374-1.545.25-.43.59-.758 1.019-.985a3.07 3.07 0 011.46-.342c.347 0 .67.044.967.131.298.088.564.216.797.385a2.136 2.136 0 01.873 1.447zm1.033 3.705v-5.591h1.129v2.367h2.886v-2.367h1.132v5.591h-1.132v-2.375H36.71v2.375h-1.13zm7.174 0h-1.204l2.193-5.591h1.393l2.196 5.591h-1.205l-1.663-4.445h-.05l-1.66 4.445zm.04-2.192h3.285v.814h-3.285v-.814zm9.957 2.192h-1.131v-4.745h-1.035c-.28 0-.51.037-.69.112a.807.807 0 00-.398.322.96.96 0 00-.128.508c0 .198.042.366.128.502a.797.797 0 00.395.309c.18.07.41.104.687.104h1.515v.84h-1.667c-.478 0-.882-.07-1.21-.212a1.653 1.653 0 01-.749-.61 1.7 1.7 0 01-.252-.933c0-.357.083-.669.25-.937a1.66 1.66 0 01.742-.628c.326-.149.728-.223 1.204-.223h2.34v5.591zm-3.22-2.533h1.23l-1.514 2.533H47.99l1.542-2.533zm10.299 2.533l-2.05-2.443h-.553v2.443h-1.129v-5.591h1.129v2.299h.283l2.214-2.3h1.39l-2.46 2.55 2.566 3.042h-1.39zm7.389-2.796c0 .603-.126 1.12-.378 1.549-.25.427-.59.755-1.022.983a3.08 3.08 0 01-1.463.34 3.098 3.098 0 01-1.466-.34 2.57 2.57 0 01-1.022-.986c-.25-.43-.374-.945-.374-1.546 0-.602.125-1.117.374-1.545a2.54 2.54 0 011.022-.985 3.09 3.09 0 011.466-.342 3.07 3.07 0 011.463.342c.432.227.773.556 1.022.985.252.428.377.943.377 1.546zm-1.135 0c0-.424-.074-.781-.222-1.072a1.526 1.526 0 00-.608-.664 1.75 1.75 0 00-.898-.227 1.75 1.75 0 00-.897.227c-.26.15-.463.37-.611.663-.146.292-.22.65-.22 1.073 0 .425.074.783.22 1.076.148.291.352.513.611.664.26.149.559.224.897.224.339 0 .638-.075.898-.224.26-.151.462-.373.608-.664.148-.293.222-.651.222-1.076zm2.201-2.795h1.381l1.85 4.052h.073l1.849-4.052h1.38v5.591h-1.082v-3.841h-.058l-1.721 3.825h-.81l-1.721-3.833h-.058v3.85h-1.083v-5.592zm12.845 0v5.591h-1.12v-4.75h-2.724v4.75h-1.12v-5.591h4.964zm2.149 5.591h-1.204l2.193-5.591h1.393l2.196 5.591h-1.204l-1.664-4.445h-.049l-1.66 4.445zm.04-2.192h3.285v.814H83.32v-.814zm5.359 2.192v-5.591h1.128v2.367h2.887v-2.367h1.131v5.591h-1.131v-2.375h-2.887v2.375H88.68zm6.373-5.591h1.12v3.811h.058l2.929-3.811h1.013v5.591h-1.129v-3.808h-.052l-2.938 3.808h-1v-5.591zM106 80.923h-1.131v-4.745h-1.035c-.279 0-.51.037-.69.112a.81.81 0 00-.399.322.961.961 0 00-.127.508c0 .198.042.366.127.502a.8.8 0 00.396.309c.18.07.409.104.687.104h1.515v.84h-1.667c-.478 0-.882-.07-1.21-.212a1.656 1.656 0 01-.749-.61 1.702 1.702 0 01-.252-.933c0-.357.083-.669.249-.937a1.67 1.67 0 01.743-.628c.326-.149.727-.223 1.204-.223H106v5.591zm-3.221-2.533h1.232l-1.515 2.533h-1.259l1.542-2.533z"/></svg><svg viewBox="0 0 106 81" id="logo_white" xmlns="http://www.w3.org/2000/svg"><path d="M0 0h13.25v47.107H0V0zm92.75 0H106v47.107H92.75V0z"/><path fill-rule="evenodd" clip-rule="evenodd" d="M28.228 0h-13.25v11.49h13.826c2.864 0 5.185 2.314 5.185 5.17 0 2.855-2.321 5.17-5.185 5.17H14.978v11.49h13.25c9.227 0 16.707-7.46 16.707-16.66C44.935 7.459 37.455 0 28.228 0zm49.544 13.787h13.25v11.49H77.196c-2.864 0-5.185 2.315-5.185 5.17 0 2.856 2.321 5.17 5.185 5.17h13.826v11.49h-13.25c-9.227 0-16.707-7.46-16.707-16.66s7.48-16.66 16.707-16.66z"/><path d="M29.956 35.617H14.978v11.49h14.978c1.153 0 7.49-.288 12.963-3.734 5.472-3.447 6.625-4.022 11.233-10.341 4.609-6.32 5.185-10.915 10.082-16.085 4.896-5.17 10.657-5.458 11.81-5.458h14.978V0H76.043c-1.152 0-6.337.287-11.521 2.872-5.185 2.585-8.066 5.17-11.81 10.34-3.745 5.171-4.32 9.48-9.794 15.799-5.472 6.319-11.81 6.606-12.962 6.606zM0 69.281V53.073h6.514c1.252 0 2.319.234 3.2.704.882.464 1.554 1.11 2.016 1.94.467.822.701 1.772.701 2.848 0 1.077-.236 2.026-.71 2.85-.472.822-1.157 1.464-2.055 1.923-.892.459-1.972.688-3.24.688H2.272V61.28H5.86c.672 0 1.225-.114 1.66-.34.441-.233.77-.552.984-.958.22-.412.33-.884.33-1.417 0-.538-.11-1.008-.33-1.408a2.188 2.188 0 00-.983-.942c-.441-.227-1-.34-1.677-.34H3.49V69.28H0zm29.87-8.104c0 1.767-.34 3.271-1.023 4.511-.677 1.24-1.602 2.187-2.773 2.841-1.167.65-2.478.974-3.934.974-1.468 0-2.784-.327-3.95-.981-1.167-.655-2.089-1.602-2.766-2.842s-1.016-2.74-1.016-4.503c0-1.768.339-3.271 1.016-4.511.677-1.24 1.6-2.184 2.765-2.833 1.167-.655 2.483-.982 3.95-.982 1.457 0 2.768.327 3.935.982 1.171.648 2.096 1.593 2.773 2.833.682 1.24 1.024 2.743 1.024 4.511zm-3.538 0c0-1.145-.175-2.11-.524-2.897-.344-.786-.83-1.382-1.46-1.788-.628-.407-1.365-.61-2.208-.61-.844 0-1.58.203-2.21.61-.628.406-1.117 1.002-1.467 1.788-.344.786-.515 1.752-.515 2.897 0 1.145.171 2.11.515 2.897.35.786.839 1.382 1.468 1.788.628.407 1.365.61 2.209.61.843 0 1.58-.203 2.209-.61.628-.406 1.115-1.002 1.459-1.788.349-.786.524-1.752.524-2.897zm15.081-3.443c-.064-.638-.341-1.134-.83-1.488-.49-.353-1.153-.53-1.991-.53-.57 0-1.051.08-1.443.237-.393.153-.694.367-.903.642a1.523 1.523 0 00-.307.934c-.01.29.051.543.186.76.14.216.33.403.572.561.242.153.521.288.838.404.318.11.656.206 1.016.285l1.484.348c.72.158 1.38.37 1.983.633a6.044 6.044 0 011.564.973c.44.386.782.84 1.024 1.362.247.522.373 1.121.379 1.796-.006.992-.264 1.852-.774 2.58-.505.723-1.236 1.285-2.193 1.686-.951.396-2.099.594-3.443.594-1.332 0-2.493-.2-3.482-.602-.984-.4-1.752-.994-2.306-1.78-.548-.792-.836-1.77-.862-2.937h3.377c.038.544.197.998.476 1.362.285.358.664.63 1.137.815.478.18 1.018.269 1.62.269.591 0 1.105-.085 1.54-.253.44-.17.782-.404 1.024-.705.242-.3.363-.646.363-1.037 0-.364-.11-.67-.33-.918-.216-.248-.533-.459-.952-.633a9.8 9.8 0 00-1.524-.475l-1.798-.443c-1.392-.332-2.49-.852-3.297-1.559-.806-.707-1.206-1.66-1.201-2.857-.005-.981.26-1.839.798-2.572.543-.734 1.287-1.306 2.233-1.718.946-.411 2.02-.617 3.225-.617 1.225 0 2.295.206 3.208.617.92.412 1.634.984 2.145 1.718.51.733.774 1.583.79 2.548h-3.346zm13.57 2.106v2.674h-7.53V59.84h7.53zm5.837 9.441h-3.74l5.699-16.208h4.498L72.97 69.28h-3.74l-4.136-12.504h-.13L60.82 69.28zm-.234-6.37h8.836v2.674h-8.836V62.91zm11.724-7.013v-2.825h13.56v2.825h-5.055v13.383h-3.45V55.898H72.31zm15.793-2.825h4.305l4.547 10.89h.193l4.547-10.89H106V69.28h-3.386V58.73h-.137l-4.273 10.471H95.9l-4.273-10.51h-.137v10.59h-3.386v-16.21zM5.49 77.218H4.353a1.19 1.19 0 00-.18-.445 1.247 1.247 0 00-.325-.333 1.418 1.418 0 00-.444-.205 1.916 1.916 0 00-.533-.07 1.75 1.75 0 00-.9.229 1.556 1.556 0 00-.614.666c-.148.291-.222.647-.222 1.067 0 .428.074.789.222 1.082.15.291.354.511.614.66.262.148.56.222.897.222.187 0 .361-.022.523-.066a1.5 1.5 0 00.441-.2 1.23 1.23 0 00.332-.321c.091-.128.154-.273.189-.437l1.137.005a2.048 2.048 0 01-.277.748c-.14.233-.323.439-.55.617a2.619 2.619 0 01-.797.415A3.282 3.282 0 012.853 81a3.086 3.086 0 01-1.466-.341 2.505 2.505 0 01-1.016-.986C.124 79.243 0 78.728 0 78.127c0-.602.125-1.117.374-1.545.25-.43.59-.758 1.02-.985a3.062 3.062 0 011.459-.342c.347 0 .67.044.967.131.298.088.564.216.797.385a2.136 2.136 0 01.873 1.447zm1.033 3.705v-5.591h4.052v.849H7.652v1.518h2.713v.849H7.652v1.526h2.947v.85H6.523zm5.203 0v-5.591h2.336c.479 0 .88.08 1.205.24.326.16.572.38.739.66a1.8 1.8 0 01.252.95c0 .36-.084.678-.252.956a1.727 1.727 0 01-.745.658c-.329.159-.733.238-1.214.238h-1.548v-.833h1.396c.28 0 .509-.043.687-.13a.877.877 0 00.396-.361c.087-.153.13-.329.13-.527a1.03 1.03 0 00-.13-.524.85.85 0 00-.399-.353c-.178-.085-.408-.128-.69-.128h-1.034v4.745h-1.129zm5.512 0v-5.591h2.385c.45 0 .824.063 1.122.19.3.126.524.298.672.517.15.218.226.466.226.742 0 .228-.05.423-.146.585-.098.16-.229.29-.393.39-.164.1-.348.172-.55.216v.055c.22.01.433.071.635.182.205.11.372.264.502.465.13.2.195.442.195.726 0 .29-.078.55-.234.78-.157.23-.392.411-.706.544-.314.133-.71.2-1.186.2h-2.522zm1.129-.846h1.213c.41 0 .705-.07.886-.21a.662.662 0 00.273-.546.773.773 0 00-.137-.448.912.912 0 00-.389-.317 1.417 1.417 0 00-.602-.117h-1.244v1.638zm0-2.367h1.116c.195 0 .37-.032.526-.096a.87.87 0 00.368-.276.684.684 0 00.137-.425.663.663 0 00-.255-.536c-.169-.14-.42-.21-.752-.21h-1.14v1.543zm4.501-2.378h1.119v3.811h.058l2.929-3.811h1.013v5.591h-1.129v-3.808h-.052l-2.938 3.808h-1v-5.591zm11.68 1.886H33.41a1.19 1.19 0 00-.179-.445 1.247 1.247 0 00-.325-.333 1.418 1.418 0 00-.444-.205 1.916 1.916 0 00-.533-.07 1.75 1.75 0 00-.9.229 1.557 1.557 0 00-.614.666c-.148.291-.223.647-.223 1.067 0 .428.075.789.223 1.082.15.291.354.511.614.66.262.148.56.222.897.222.187 0 .361-.022.523-.066a1.5 1.5 0 00.441-.2c.132-.087.243-.194.332-.321.091-.128.154-.273.188-.437l1.138.005a2.05 2.05 0 01-.277.748c-.14.233-.323.439-.55.617a2.62 2.62 0 01-.797.415A3.282 3.282 0 0131.91 81a3.086 3.086 0 01-1.466-.341 2.505 2.505 0 01-1.016-.986c-.247-.43-.371-.945-.371-1.546 0-.602.125-1.117.374-1.545.25-.43.59-.758 1.019-.985a3.07 3.07 0 011.46-.342c.347 0 .67.044.967.131.298.088.564.216.797.385a2.136 2.136 0 01.873 1.447zm1.033 3.705v-5.591h1.129v2.367h2.886v-2.367h1.132v5.591h-1.132v-2.375H36.71v2.375h-1.13zm7.174 0h-1.204l2.193-5.591h1.393l2.196 5.591h-1.205l-1.663-4.445h-.05l-1.66 4.445zm.04-2.192h3.285v.814h-3.285v-.814zm9.957 2.192h-1.131v-4.745h-1.035c-.28 0-.51.037-.69.112a.807.807 0 00-.398.322.96.96 0 00-.128.508c0 .198.042.366.128.502a.797.797 0 00.395.309c.18.07.41.104.687.104h1.515v.84h-1.667c-.478 0-.882-.07-1.21-.212a1.653 1.653 0 01-.749-.61 1.7 1.7 0 01-.252-.933c0-.357.083-.669.25-.937a1.66 1.66 0 01.742-.628c.326-.149.728-.223 1.204-.223h2.34v5.591zm-3.22-2.533h1.23l-1.514 2.533H47.99l1.542-2.533zm10.299 2.533l-2.05-2.443h-.553v2.443h-1.129v-5.591h1.129v2.299h.283l2.214-2.3h1.39l-2.46 2.55 2.566 3.042h-1.39zm7.389-2.796c0 .603-.126 1.12-.378 1.549-.25.427-.59.755-1.022.983a3.08 3.08 0 01-1.463.34 3.098 3.098 0 01-1.466-.34 2.57 2.57 0 01-1.022-.986c-.25-.43-.374-.945-.374-1.546 0-.602.125-1.117.374-1.545a2.54 2.54 0 011.022-.985 3.09 3.09 0 011.466-.342 3.07 3.07 0 011.463.342c.432.227.773.556 1.022.985.252.428.377.943.377 1.546zm-1.135 0c0-.424-.074-.781-.222-1.072a1.526 1.526 0 00-.608-.664 1.75 1.75 0 00-.898-.227 1.75 1.75 0 00-.897.227c-.26.15-.463.37-.611.663-.146.292-.22.65-.22 1.073 0 .425.074.783.22 1.076.148.291.352.513.611.664.26.149.559.224.897.224.339 0 .638-.075.898-.224.26-.151.462-.373.608-.664.148-.293.222-.651.222-1.076zm2.201-2.795h1.381l1.85 4.052h.073l1.849-4.052h1.38v5.591h-1.082v-3.841h-.058l-1.721 3.825h-.81l-1.721-3.833h-.058v3.85h-1.083v-5.592zm12.845 0v5.591h-1.12v-4.75h-2.724v4.75h-1.12v-5.591h4.964zm2.149 5.591h-1.204l2.193-5.591h1.393l2.196 5.591h-1.204l-1.664-4.445h-.049l-1.66 4.445zm.04-2.192h3.285v.814H83.32v-.814zm5.359 2.192v-5.591h1.128v2.367h2.887v-2.367h1.131v5.591h-1.131v-2.375h-2.887v2.375H88.68zm6.373-5.591h1.12v3.811h.058l2.929-3.811h1.013v5.591h-1.129v-3.808h-.052l-2.938 3.808h-1v-5.591zM106 80.923h-1.131v-4.745h-1.035c-.279 0-.51.037-.69.112a.81.81 0 00-.399.322.961.961 0 00-.127.508c0 .198.042.366.127.502a.8.8 0 00.396.309c.18.07.409.104.687.104h1.515v.84h-1.667c-.478 0-.882-.07-1.21-.212a1.656 1.656 0 01-.749-.61 1.702 1.702 0 01-.252-.933c0-.357.083-.669.249-.937a1.67 1.67 0 01.743-.628c.326-.149.727-.223 1.204-.223H106v5.591zm-3.221-2.533h1.232l-1.515 2.533h-1.259l1.542-2.533z"/></svg><svg viewBox="-64 0 512 512" id="marker" xmlns="http://www.w3.org/2000/svg"><path d="M172.268 501.67C26.97 291.031 0 269.413 0 192 0 85.961 85.961 0 192 0s192 85.961 192 192c0 77.413-26.97 99.031-172.268 309.67-9.535 13.774-29.93 13.773-39.464 0zM192 272c44.183 0 80-35.817 80-80s-35.817-80-80-80-80 35.817-80 80 35.817 80 80 80z"/></svg><svg viewBox="0 0 14 2" id="minus" xmlns="http://www.w3.org/2000/svg"><path d="M6.103 0h6.5c.496 0 .897.448.897 1s-.401 1-.897 1H1.397C.9 2 .5 1.552.5 1s.401-1 .897-1h4.706z"/></svg><svg viewBox="0 0 24 24" id="phone" xmlns="http://www.w3.org/2000/svg"><path fill-rule="evenodd" clip-rule="evenodd" d="M4.538 3.12c1.197-1.196 3.136-1.14 4.33.053l1.993 1.993c1.194 1.194 1.25 3.133.052 4.33l-.276.277a.583.583 0 00-.033.786c.417.505.865 1.006 1.348 1.489.483.483.984.93 1.489 1.348.24.197.577.175.786-.033l.276-.277c1.197-1.197 3.136-1.141 4.33.053l1.993 1.993c1.194 1.194 1.25 3.133.053 4.33l-1.287 1.287c-1.308 1.307-3.447 1.202-5.529.438-2.146-.788-4.542-2.371-6.71-4.54-2.17-2.169-3.753-4.564-4.54-6.71-.764-2.082-.87-4.222.438-5.53l1.287-1.286zm3.27 1.114c-.642-.64-1.63-.632-2.21-.052L4.312 5.468c-.647.647-.812 1.987-.091 3.952.697 1.899 2.141 4.116 4.192 6.166 2.05 2.051 4.268 3.496 6.167 4.193 1.964.72 3.305.556 3.951-.091l1.287-1.287c.58-.58.588-1.568-.052-2.208l-1.993-1.994c-.641-.64-1.63-.631-2.21-.052l-.276.276a2.083 2.083 0 01-2.8.13 22.55 22.55 0 01-1.596-1.445 22.548 22.548 0 01-1.444-1.595 2.083 2.083 0 01.13-2.8l.276-.277c.58-.58.588-1.568-.053-2.209L7.807 4.234z"/></svg><svg viewBox="0 0 25 26" id="phone_1" xmlns="http://www.w3.org/2000/svg"><path d="M17.274 15.758c-.506-.5-1.138-.5-1.64 0-.384.38-.767.76-1.144 1.147-.104.107-.19.13-.316.058-.248-.135-.513-.245-.751-.393-1.112-.7-2.043-1.598-2.868-2.61-.41-.503-.774-1.041-1.028-1.647-.052-.123-.042-.203.058-.303.383-.37.757-.75 1.134-1.131.525-.529.525-1.147-.003-1.68-.3-.302-.6-.599-.9-.901-.309-.31-.615-.622-.927-.929-.506-.493-1.138-.493-1.64.004-.387.38-.758.77-1.151 1.144a1.868 1.868 0 00-.587 1.26c-.061.802.136 1.56.413 2.298.567 1.527 1.43 2.884 2.478 4.128a15.336 15.336 0 005.079 3.973c.89.432 1.811.764 2.813.819.69.038 1.29-.136 1.77-.674.328-.367.699-.702 1.047-1.054.515-.522.519-1.153.006-1.669a499.67 499.67 0 00-1.843-1.84z"/></svg><svg viewBox="0 0 14 14" id="plus" xmlns="http://www.w3.org/2000/svg"><path fill-rule="evenodd" clip-rule="evenodd" d="M7 .5c.495 0 .897.401.897.897v4.706h4.706a.897.897 0 110 1.794H7.897v4.706a.897.897 0 11-1.794 0V7.897H1.397a.897.897 0 010-1.794h4.706V1.397C6.103.9 6.505.5 7 .5z"/></svg><svg viewBox="0 0 24 24" id="time" xmlns="http://www.w3.org/2000/svg"><path fill-rule="evenodd" clip-rule="evenodd" d="M1.25 7A5.75 5.75 0 017 1.25h10A5.75 5.75 0 0122.75 7v10A5.75 5.75 0 0117 22.75H7A5.75 5.75 0 011.25 17V7zM7 2.75A4.25 4.25 0 002.75 7v10A4.25 4.25 0 007 21.25h10A4.25 4.25 0 0021.25 17V7A4.25 4.25 0 0017 2.75H7zm5 3.5a.75.75 0 01.75.75v4.625l3.7 2.775a.75.75 0 11-.9 1.2l-3.8-2.85a1.25 1.25 0 01-.5-1V7a.75.75 0 01.75-.75z"/></svg><svg viewBox="0 0 80 32" id="web-studio" xmlns="http://www.w3.org/2000/svg"><path d="M31.798 25.773c1.823 0 3.25-.398 4.281-1.194 1.04-.797 1.56-1.895 1.56-3.295 0-.735-.155-1.356-.466-1.864-.302-.508-.81-.945-1.52-1.313-.712-.376-1.672-.717-2.881-1.023-1.13-.28-1.983-.521-2.56-.723-.57-.21-.956-.42-1.16-.63a1.13 1.13 0 01-.308-.8c0-.543.263-.967.787-1.274.525-.315 1.21-.455 2.054-.42.88.035 1.596.254 2.147.657.551.393.98.883 1.079 1.557 0 0 .748.19 1.544.044.867-.159 1.205-.512 1.205-.512-.16-1.26-.787-2.266-1.88-3.019-1.094-.761-2.468-1.142-4.122-1.142-1.689 0-3.045.39-4.067 1.168-1.023.77-1.534 1.799-1.534 3.085 0 .692.151 1.282.453 1.772.312.481.827.902 1.547 1.26.73.36 1.712.7 2.948 1.024 1.129.298 1.97.547 2.52.748.552.202.912.416 1.08.644.178.218.267.507.267.866 0 .613-.248 1.094-.746 1.444-.49.35-1.17.525-2.04.525-.961 0-1.766-.21-2.415-.63-.64-.42-1.169-1.027-1.346-1.771 0 0-.542-.267-1.444-.178a2.044 2.044 0 00-1.29.636c.248 1.383.924 2.455 2.026 3.216 1.103.762 2.53 1.142 4.281 1.142zm17.035-.38s.233-.44.233-1.15c0-.8-.233-1.174-.233-1.174-.943.14-1.765.17-2.468.092-.693-.087-1.2-.398-1.52-.932-.169-.289-.262-.643-.28-1.063-.009-.42-.013-.915-.013-1.483V13.42h4.28s.143-.214.143-1.078c0-.863-.142-1.127-.142-1.127h-4.281V7.278s-.268-.174-1.4-.174c-1.034 0-1.401.174-1.401.174v3.938h-2.76s-.12.24-.12 1.103c0 .912.12 1.102.12 1.102h2.76v6.393c0 .77.009 1.461.027 2.074.026.604.195 1.199.506 1.785a3.227 3.227 0 001.56 1.444c.685.306 1.463.473 2.335.499.871.026 1.756-.048 2.654-.223zm8.747.394c1.396 0 2.663-.346 3.801-1.037 1.138-.7 1.987-1.685 2.547-2.954 0 0-.427-.395-1.33-.662-1.175-.346-1.404-.191-1.404-.191-.729 1.505-1.978 2.258-3.747 2.258-1.21 0-2.16-.36-2.854-1.077s-1.098-1.733-1.214-3.045h10.736c.098-1.698-.106-3.164-.613-4.398-.507-1.234-1.276-2.183-2.308-2.848-1.03-.674-2.28-1.01-3.747-1.01-1.405 0-2.636.31-3.694.931-1.058.621-1.885 1.5-2.48 2.639-.588 1.137-.881 2.48-.881 4.03 0 1.46.298 2.747.893 3.859a6.581 6.581 0 002.521 2.586c1.085.612 2.343.919 3.774.919zm-.026-12.536c2.178 0 3.414 1.229 3.707 3.688h-7.815c.178-1.199.61-2.113 1.294-2.743.684-.63 1.622-.945 2.814-.945zm9.149 18.443s.164.306 1.388.306 1.413-.306 1.413-.306v-7.299c.507.446 1.09.788 1.747 1.024.667.245 1.41.367 2.227.367 1.343 0 2.499-.328 3.468-.984.978-.665 1.73-1.562 2.254-2.691.533-1.129.8-2.402.8-3.82 0-1.426-.267-2.7-.8-3.82-.534-1.129-1.294-2.017-2.28-2.664-.979-.657-2.144-.985-3.495-.985-.89 0-1.69.149-2.4.446a5.387 5.387 0 00-1.841 1.221v-1.273s-.607-.35-1.274-.35c-.666 0-1.207.35-1.207.35v20.478zm6.388-8.389c-1.369 0-2.364-.468-2.987-1.404-.613-.936-.92-2.14-.92-3.61 0-1.47.307-2.669.92-3.597.614-.927 1.578-1.391 2.894-1.391.925 0 1.685.223 2.28.67.596.446 1.036 1.045 1.321 1.798.293.752.44 1.592.44 2.52 0 .936-.142 1.785-.427 2.547-.284.752-.72 1.352-1.307 1.798-.578.446-1.316.67-2.214.67zM0 25.317s.62.435 1.946.435 1.892-.435 1.892-.435.25-3.16 1.858-4.86c2.78-2.942 7.66-2.93 10.454 0 1.617 1.696 1.892 4.86 1.892 4.86s.708.435 2.035.435c1.255 0 1.804-.435 1.804-.435L13.603.246S12.559 0 10.896 0C9.233 0 8.278.246 8.278.246L0 25.317zm6.828-9.07l4.068-12.362 4.122 12.361s-1.707-.94-4.228-.94c-2.786 0-3.962.94-3.962.94z"/></svg></svg>