<svg width="188" height="56" viewBox="0 0 188 56" fill="none" xmlns="http://www.w3.org/2000/svg">
<path fill-rule="evenodd" clip-rule="evenodd" d="M13.1909 55.0986C15.9955 50.3608 17.5403 41.3471 18.1345 25.5617H20.1785C20.7727 41.3702 22.3176 50.3839 25.0983 55.0986C23.2445 55.6764 21.2243 56 19.1565 56C17.0888 56 15.0923 55.6995 13.1909 55.0986ZM76.6737 46.2931H70.4465V27.6187H83.2809C89.8408 27.6187 89.8408 32.865 89.8408 34.0207C89.8408 35.2455 89.8408 40.908 83.2809 40.908H76.6737V46.2931ZM76.6499 32.2411V36.2626H81.1182C81.9025 36.2626 83.6374 36.2626 83.6374 34.1824C83.6374 32.2642 81.8787 32.2642 81.1893 32.2642H76.6499V32.2411ZM86.751 46.2931H93.2871L94.8081 42.4564H101.772L103.246 46.2931H113.679L118.623 32.8188L123.567 46.2931H130.126L121.974 27.6187H115.153L108.427 43.173L101.796 27.6187H94.8081L86.751 46.2931ZM98.2782 32.8881L100.275 38.1577H96.3055L98.2306 32.8419L98.2782 32.8881ZM181.44 34.7139C188 34.7139 188 38.3425 188 40.3765C188 42.5026 188 46.3162 181.511 46.3162H168.867V27.6418H187.073V32.3104H175.094V34.737H181.44V34.7139ZM180.418 41.948C181.797 41.948 181.797 40.8849 181.797 40.4458C181.797 40.0297 181.797 39.0822 180.395 39.0822H175.094V41.9711H180.418V41.948ZM59.6324 46.2931H52.8824L55.9485 41.0235L48.2478 27.6187H55.2118L59.2046 35.5691L63.2213 27.6187H69.9713L59.6324 46.2931ZM145.385 46.2931H136.877C132.194 46.2931 128.558 42.5488 128.558 37.2101C128.558 31.2011 132.218 27.6187 136.948 27.6187H145.385V32.2873H139.942C136.567 32.2873 134.785 33.2579 134.785 37.1177C134.785 40.9542 136.615 41.6708 139.942 41.6708H145.385V46.2931ZM167.608 46.2931H161.381V33.1193L154.108 46.2931H146.669V27.6187H152.919V40.4689L160.026 27.6187H167.608V46.2931ZM19.1803 24.4062C28.6636 24.4062 36.7445 30.7851 36.7445 39.0129C36.7445 41.6243 35.865 44.2822 34.1774 46.7322C29.6856 42.6183 25.7163 35.0838 24.1953 26.1625C24.0287 26.0932 22.6741 25.7929 21.6283 25.7236C21.6283 27.0177 22.7454 46.1774 29.7091 52.9723C34.8668 49.6211 38.313 43.8431 38.313 37.3487C38.313 28.4275 31.9195 20.9624 23.3396 19.1135C22.888 13.1044 22.888 10.6777 22.8405 7.69624H21.3193C21.3193 7.71937 21.3906 16.0627 21.4144 18.813C20.8915 18.7437 20.3687 18.7206 19.7982 18.6744C19.7982 13.8671 19.7982 5.10771 19.7745 0H18.5148C18.491 5.10771 18.491 13.8902 18.491 18.6744C17.9206 18.6975 17.3977 18.7437 16.8748 18.813C16.8986 16.0627 16.9699 7.74247 16.9699 7.69624H15.425C15.425 10.6777 15.425 13.1044 14.9735 19.1135C6.39344 20.9624 0 28.4275 0 37.3487C0 43.8662 3.39873 49.6211 8.60378 52.9723C15.5676 46.1774 16.6847 27.0177 16.6847 25.7236C15.6389 25.7929 14.2842 26.0932 14.1178 26.1625C12.573 35.0838 8.62756 42.6183 4.13553 46.7322C2.42427 44.3053 1.56865 41.6243 1.56865 39.0129C1.61618 30.762 9.64956 24.4062 19.1803 24.4062Z" fill="#0E3263"/>
</svg>
