<svg width="118" height="56" viewBox="0 0 118 56" fill="none" xmlns="http://www.w3.org/2000/svg">
<path fill-rule="evenodd" clip-rule="evenodd" d="M0 56.3815H57.0153V0H0V56.3815Z" fill="#001689"/>
<path fill-rule="evenodd" clip-rule="evenodd" d="M17.3095 18.2164C17.7302 19.1354 18.4189 20.0781 20.304 21.3505C20.7218 21.6356 21.187 22.2277 20.8359 23.0611C20.4781 23.8936 19.8155 25.0757 20.2101 25.5385C20.6096 25.9985 22.0295 26.2389 23.1834 25.7809C23.1834 25.7809 23.4252 26.5012 23.8498 26.963C23.8498 26.963 23.6495 27.3603 22.9851 27.1597C22.9851 27.1597 23.2269 27.7518 22.8932 28.3885C22.8932 28.3885 22.1194 28.2573 21.7867 27.5541C21.7867 27.5541 21.4743 28.1015 20.8543 28.2992C20.8543 28.2992 20.3446 28.0388 20.4577 27.0258C20.4577 27.0258 20.0786 27.9276 18.9286 28.0787C18.9286 28.0787 18.2612 27.2472 19.1259 26.1296C19.1259 26.1296 18.5049 26.6779 17.3781 26.4147C17.3781 26.4147 17.1982 25.8445 18.2167 25.0558C18.2167 25.0558 17.0638 25.0111 16.6218 24.0466C16.6218 24.0466 17.1093 23.4536 18.3047 23.5866C18.3047 23.5866 17.1982 23.3443 16.9535 22.0291C16.9535 22.0291 17.7515 21.5254 19.0156 22.336C19.0156 22.336 18.7912 21.9207 18.2612 21.5045C17.7302 21.0864 17.086 19.9251 17.3095 18.2164ZM21.9492 31.439C21.7933 31.2379 21.6633 31.0186 21.5623 30.7861C21.7615 32.3807 21.8302 33.4555 22.7017 34.4885C22.7017 34.4885 23.2269 33.7976 22.8893 32.1194C22.7225 32.0714 22.5642 31.9983 22.4202 31.9027C22.4202 31.9027 22.6185 32.5841 22.4928 33.2692C22.4928 33.2692 22.1813 33.045 21.9492 31.439ZM20.4423 31.2736C20.2912 31.0833 20.1541 30.8826 20.0322 30.673C19.9606 31.5996 19.712 34.0352 20.538 34.7992C20.538 34.7992 21.1048 34.3897 21.3021 30.8336C21.1832 31.0332 20.9733 31.2451 20.8698 31.361C20.8698 31.361 21.0081 32.489 20.599 33.2854C20.599 33.2854 20.1898 32.9775 20.4423 31.2736ZM18.474 33.1362C19.1656 32.3142 19.3754 29.852 19.3754 29.852C19.4722 29.7873 19.5669 29.7189 19.6666 29.6419C19.7014 29.6096 19.742 29.5783 19.7778 29.5431C19.7778 29.6315 19.7817 29.7256 19.7913 29.8187C19.6907 31.3012 19.5727 32.8274 19.1046 33.5876C18.6462 34.3336 17.8018 34.7194 17.8018 34.7194C17.0135 33.3291 17.9662 31.4646 18.769 30.1675C18.8657 30.1313 18.9653 30.0848 19.0679 30.0344C18.7874 31.0322 18.2525 32.2201 18.474 33.1353M16.5125 28.8617C16.5074 29.018 16.5364 29.1736 16.5976 29.3179C15.9351 29.9603 15.4447 30.5751 14.4639 31.9217C13.4822 33.2692 11.9269 33.3234 11.9269 33.3234C12.0778 32.2315 12.3767 31.3696 13.2104 30.4392C14.0422 29.5098 15.1062 28.6593 15.8877 28.0977C16.1611 28.2162 16.4647 28.25 16.7582 28.1946C16.6653 28.3131 16.5973 28.4484 16.5579 28.5928C15.9641 28.9283 14.2463 29.7902 13.5499 31.1805C13.5499 31.1805 14.6371 30.8403 16.5125 28.8617ZM15.2822 27.5038L15.3451 27.3878C15.3702 27.3498 15.3896 27.3156 15.4166 27.2833C14.7763 27.5275 12.5005 28.3771 11.7644 28.7534C11.0274 29.1335 9.96058 29.9888 9.38219 31.7307C9.38219 31.7307 10.9181 31.8656 12.1852 30.8298C13.4542 29.7892 14.9321 28.3429 15.5627 27.8839C15.5084 27.8352 15.4594 27.7811 15.4166 27.7223C15.4166 27.7223 13.6998 29.2238 11.8863 29.8738C11.8863 29.8738 12.2732 29.1763 12.9918 28.6717C13.8643 28.0587 14.5181 27.8525 15.2822 27.5038ZM13.9784 26.4746C14.0035 26.4147 14.0287 26.3577 14.0558 26.3045C13.3033 26.4546 11.4278 26.6779 10.5873 26.9307C9.74973 27.1873 8.23314 27.7926 7.33266 29.4918C7.33266 29.4918 8.65388 29.8938 11.1464 28.7353C13.6389 27.5741 14.4214 27.3327 14.8963 27.2082C14.6183 27.1919 14.3486 27.1097 14.1099 26.9687C13.1156 27.4078 11.7857 27.9247 10.4655 27.9599C10.4655 27.9599 11.1145 27.5057 11.8002 27.2187C12.5411 26.9146 13.3574 26.6342 13.9784 26.4746ZM14.0432 25.2544C14.286 25.3675 14.4736 25.4235 14.7928 25.4559C14.6187 25.568 14.4543 25.7086 14.3072 25.8987C13.428 26.1496 11.9289 26.4223 9.45763 26.5991C6.9893 26.773 5.67003 26.3263 5.67003 26.3263C6.53085 25.8056 7.90429 25.2772 8.83281 25.1004C9.76134 24.9218 12.1987 24.9427 13.2675 24.7982C13.2791 24.8106 13.4087 24.9142 13.6196 25.0396C12.72 25.1194 10.805 25.2069 9.8184 25.7048C9.8184 25.7048 11.6406 25.9434 14.0432 25.2544ZM13.8565 23.8489C13.9823 23.7767 14.1312 23.7035 14.3159 23.636C13.0644 23.2626 11.3485 22.6629 8.76221 22.4976C6.86744 22.374 5.50076 22.4824 4.7918 22.6629C4.7918 22.6629 6.51924 23.865 8.49042 24.2879C10.4655 24.7137 12.0681 24.4457 13.2394 24.4561C13.3149 24.3421 13.4039 24.2129 13.5412 24.0846C12.1697 24.0931 9.89191 23.7425 9.07655 23.4726C9.07655 23.4726 11.0642 23.0639 13.8565 23.8489ZM13.8507 22.3949C13.8565 22.4301 14.0035 23.1267 14.8208 23.5125C13.0644 22.7522 9.60562 22.3151 7.7447 21.5511C5.23188 20.5171 4.77148 19.2276 4.77148 19.2276C6.94771 19.1705 8.70611 19.6951 10.0621 20.1075C11.6493 20.5874 14.0664 21.4807 14.9117 21.8542C14.571 21.8656 14.24 21.9681 13.9542 22.1507C12.7742 21.7022 12.2239 21.5121 11.1522 21.2156C10.3039 20.9809 9.67912 20.9353 9.15006 20.8849C9.15006 20.8849 9.89481 21.3714 11.1212 21.7592C12.337 22.144 12.8632 22.2077 13.8497 22.3949M13.7182 20.4991C13.7878 20.6217 13.9958 20.9153 14.078 21.0312C11.3011 20.5713 8.24668 18.4949 7.30268 17.2072C6.35868 15.9186 6.62563 13.998 6.62563 13.998C7.54158 14.1786 9.53211 15.8768 10.0476 16.389C10.5641 16.8974 12.1194 18.397 13.1978 19.2323L13.5335 20.1988C12.6437 19.4983 11.7435 18.8109 10.833 18.1366C10.3068 17.7451 9.5205 17.1882 8.73706 16.925C8.73706 16.925 9.4586 17.8525 10.0399 18.3067C10.7111 18.8313 11.394 19.2855 11.955 19.5896C12.4531 19.8614 12.7094 20.0144 13.7182 20.4991Z" fill="white"/>
<path fill-rule="evenodd" clip-rule="evenodd" d="M21.5494 28.1853C21.6258 28.1196 21.6985 28.0498 21.767 27.9762C21.8956 28.1349 22.3251 28.6642 22.5379 29.1926C22.6955 29.643 22.8667 30.2569 22.9518 30.6076C23.0369 30.9563 23.2875 31.6881 23.4422 31.938C23.4422 31.938 22.7652 32.0216 22.2651 31.4429C21.7728 30.8756 21.6074 30.3044 21.53 29.719C21.4652 29.26 21.4894 28.6233 21.5494 28.1862M20.4835 28.2727C20.6092 28.439 20.7301 28.5065 20.7418 28.5141L20.8346 28.5606L20.9275 28.5283C21.0145 28.5027 21.0899 28.4722 21.1625 28.4361C21.2621 28.707 21.3027 28.8372 21.3259 29.0662C21.3569 29.3722 21.4169 29.8549 21.3027 30.2474C21.1625 30.7264 20.8694 31.02 20.7098 31.2034C20.7098 31.2034 20.2668 30.7216 20.1411 30.3253C20.0096 29.9091 19.9622 29.4254 20.1256 28.9293C20.2146 28.6604 20.3558 28.4143 20.4835 28.2727ZM18.9592 28.3183C19.34 28.2731 19.7026 28.1327 20.0125 27.9106C20.0705 28.0684 20.1595 28.2803 20.0947 28.5806C20.025 28.8818 19.8152 29.2135 19.5144 29.4549C19.0549 29.8141 18.4466 30.1533 17.7714 30.0507C17.7714 30.0507 17.6167 29.548 18.9592 28.3192M18.4466 27.482C18.5036 27.9277 18.7183 28.2081 18.7329 28.2299C18.5762 28.4162 18.0074 29.3807 16.8216 29.2211C16.8216 29.2211 16.4986 28.5625 17.2898 28.0389C17.8237 27.6844 18.08 27.6113 18.4466 27.482ZM18.551 26.6553C18.1465 26.752 17.7241 26.7497 17.3207 26.6486L17.1834 26.6163L17.1408 26.4852C16.5315 26.9765 15.8061 27.0601 15.5575 27.5058C15.5575 27.5058 15.8622 28.0598 16.6533 27.9695C17.0069 27.9332 17.3493 27.8271 17.6601 27.6576C17.9709 27.4881 18.2437 27.2587 18.462 26.9831C18.4785 26.9052 18.5143 26.7569 18.55 26.6562M17.1834 25.9644C17.2936 25.799 17.371 25.5434 17.6089 25.2849C17.0763 25.1882 16.5294 25.1953 15.9995 25.3058C15.2702 25.4398 14.5255 25.6099 14.1531 26.7104C14.1531 26.7104 14.6193 27.1038 15.4714 26.9337C16.1949 26.7855 16.8226 26.4795 17.1834 25.9644ZM16.8719 24.7737C16.6695 24.6008 16.5078 24.3868 16.398 24.1465L16.339 24.0096C15.7064 23.7549 15.0478 23.6248 14.3997 23.8604C13.7546 24.1009 13.5853 24.3736 13.4229 24.6131C13.4229 24.6131 14.1386 25.2051 14.9588 25.2251C15.7809 25.2526 16.5411 25.016 16.8719 24.7746M17.0634 23.4898C17.1718 23.4489 17.2936 23.4109 17.431 23.3834C17.0834 23.0727 16.8433 22.663 16.7443 22.2116C16.4502 22.2791 15.7616 22.2791 15.4579 22.166C15.1532 22.051 14.5564 22.0453 14.0912 22.3485C14.0912 22.3485 14.2459 23.1572 15.2983 23.4328C16.2926 23.6913 16.6582 23.6247 17.0634 23.4898ZM16.6843 21.9152L16.8226 21.8268C16.8419 21.8154 17.077 21.6719 17.4793 21.6405C17.1408 21.3915 16.3303 20.7206 15.7616 20.3985C15.1348 20.0526 14.098 19.5945 13.5708 19.5251C13.5708 19.5251 14.066 20.8081 14.6396 21.3279C15.2402 21.8657 15.6581 22.0644 16.6833 21.9152M17.7511 21.3241C17.4958 21 17.2975 20.5524 17.1515 20.0231C17.0325 19.5945 16.7588 18.5273 16.5972 18.2517C16.4357 17.9742 15.8525 17.0087 14.7131 16.7065C14.7131 16.7065 14.4094 17.9685 14.983 18.9635C15.4762 19.8235 16.4909 20.7292 17.7511 21.3241ZM24.0738 27.1817C24.214 27.3243 24.3224 27.4003 24.5768 27.5267C24.5768 27.5267 24.9404 28.2128 24.4994 29.0424C24.0574 29.8711 23.6869 30.715 23.5099 31.1873C23.5099 31.1873 23.273 31.1511 23.0099 29.8549C22.8329 28.9759 22.6075 28.7554 22.3715 28.4542C22.6288 28.5815 22.8358 28.6195 22.8532 28.6233L23.0292 28.6528L23.1085 28.4979C23.2794 28.1768 23.3459 27.812 23.2991 27.4526C23.7092 27.463 23.9268 27.2587 24.0119 27.1551C24.0177 27.1437 24.0254 27.138 24.0293 27.1285L24.0738 27.1817Z" fill="white"/>
<path fill-rule="evenodd" clip-rule="evenodd" d="M14.3942 17.235C14.3889 17.367 14.3876 17.4992 14.3903 17.6313L14.4135 17.9411C13.7394 17.0915 12.9356 16.069 12.1676 15.1244C11.6405 14.4782 11.1946 14.0867 10.7013 13.7712C11.1143 14.9685 11.8639 15.9255 12.3911 16.4035C12.9172 16.8786 13.6852 17.6836 14.4299 18.1739L14.5015 18.4172C14.5596 18.6396 14.6485 18.8686 14.7733 19.0834C14.9455 19.3865 15.1747 19.6849 15.4446 19.9738C15.2279 19.8674 14.9803 19.7524 14.7288 19.6478L14.4986 19.5528C12.4462 18.4771 10.415 16.2486 9.59001 14.6977C8.76401 13.1478 9.10931 11.3479 9.32596 10.3843C10.2574 11.1654 11.597 12.7011 12.1812 13.5383C12.9008 14.5628 13.8235 16.0158 14.3913 17.1989L14.3942 17.235ZM43.1571 23.8491C43.0119 23.7647 42.859 23.6934 42.7006 23.6363C43.9493 23.2628 45.668 22.6631 48.2524 22.4978C50.1482 22.3743 51.5177 22.4826 52.2248 22.6631C52.2248 22.6631 50.4993 23.8653 48.5242 24.2882C46.5511 24.7139 44.9484 24.4459 43.7771 24.4564C43.6916 24.3211 43.59 24.1964 43.4744 24.0848C44.8459 24.0934 47.1266 23.7427 47.94 23.4728C47.94 23.4728 45.9524 23.0642 43.1581 23.8491M43.1649 22.3952C43.1581 22.4303 43.0111 23.1269 42.1938 23.5127C43.9503 22.7525 47.4119 22.3153 49.2699 21.5513C51.7847 20.5174 52.2441 19.2278 52.2441 19.2278C50.0679 19.1708 48.3095 19.6953 46.9534 20.1078C45.3672 20.5877 42.9492 21.481 42.1019 21.8544C42.4211 21.8658 42.7664 21.958 43.0614 22.1509C44.2424 21.7024 44.7917 21.5123 45.8653 21.2158C46.7107 20.9811 47.3355 20.9355 47.8655 20.8851C47.8655 20.8851 47.1217 21.3717 45.8944 21.7594C44.6766 22.1443 44.1514 22.2079 43.1649 22.3952ZM43.2974 20.4993C43.2297 20.6219 43.0198 20.9155 42.9376 21.0315C45.7145 20.5715 48.7699 18.4951 49.7129 17.2075C50.6608 15.9188 50.3909 13.9983 50.3909 13.9983C49.473 14.1788 47.4835 15.877 46.968 16.3892C46.4524 16.8977 44.8962 18.3972 43.8168 19.2325L43.4812 20.199C44.4039 19.4635 45.4997 18.6453 46.1845 18.1368C46.7087 17.7453 47.4951 17.1884 48.2776 16.9252C48.2776 16.9252 47.558 17.8527 46.9757 18.307C46.3739 18.7851 45.7334 19.2141 45.0606 19.5899C44.5635 19.8616 44.3081 20.0146 43.2974 20.4993ZM42.6232 17.235C42.6271 17.3576 42.63 17.4897 42.6242 17.6313L42.601 17.9411C43.2742 17.0915 44.0808 16.069 44.8488 15.1244C45.3759 14.4782 45.8228 14.0867 46.3161 13.7712C45.8982 14.9685 45.1535 15.9255 44.6234 16.4035C44.0973 16.8786 43.3341 17.6836 42.5874 18.1739L42.5139 18.4172C42.4559 18.6396 42.3689 18.8686 42.2431 19.0834C42.069 19.3865 41.8437 19.6849 41.5709 19.9738C41.7876 19.8674 42.0352 19.7524 42.2866 19.6478L42.5168 19.5528C44.5693 18.4771 46.6033 16.2486 47.4255 14.6977C48.2476 13.1478 47.9091 11.3479 47.6895 10.3843C46.7581 11.1654 45.4175 12.7011 44.8324 13.5383C44.1137 14.5628 43.1939 16.0158 42.6232 17.1989V17.235ZM17.0134 29.4816C16.168 30.3178 14.3864 32.1928 14.5518 34.2274C14.5518 34.2274 16.2096 33.7161 16.8896 32.5149C17.5734 31.3166 17.9941 30.564 18.2795 30.2941C18.0957 30.3169 17.9119 30.3169 17.733 30.2874L17.584 30.2646C17.1633 31.022 16.3305 32.2584 15.5819 32.6907C15.5819 32.6907 15.3894 31.6882 17.5927 29.6545C17.6227 29.5718 17.6682 29.4749 17.7301 29.3704C17.5289 29.4436 17.2987 29.4844 17.0414 29.4806M39.7061 18.2167C39.2854 19.1356 38.5938 20.0783 36.7155 21.3508C36.2928 21.6359 35.8286 22.2279 36.1826 23.0613C36.5356 23.8938 37.203 25.076 36.8016 25.5388C36.405 25.9987 34.9861 26.2391 33.8313 25.7811C33.8313 25.7811 33.5895 26.5014 33.1687 26.9633C33.1687 26.9633 33.366 27.3605 34.0334 27.16C34.0334 27.16 33.7897 27.752 34.1205 28.3887C34.1205 28.3887 34.8971 28.2576 35.227 27.5544C35.227 27.5544 35.5384 28.1017 36.1613 28.2994C36.1613 28.2994 36.6729 28.039 36.5598 27.026C36.5598 27.026 36.9351 27.9278 38.0899 28.0789C38.0899 28.0789 38.7554 27.2474 37.8878 26.1298C37.8878 26.1298 38.5097 26.6782 39.6404 26.4149C39.6404 26.4149 39.8174 25.8448 38.795 25.056C38.795 25.056 39.9518 25.0113 40.3957 24.0468C40.3957 24.0468 39.9063 23.4538 38.7109 23.5868C38.7109 23.5868 39.8174 23.3445 40.0611 22.0293C40.0611 22.0293 39.2631 21.5256 38.0009 22.3362C38.0009 22.3362 38.2215 21.921 38.7525 21.5047C39.2854 21.0866 39.9295 19.9253 39.7061 18.2167ZM35.0674 31.4392C35.2207 31.2363 35.3508 31.0173 35.4552 30.7863C35.2569 32.3809 35.1844 33.4557 34.3139 34.4887C34.3139 34.4887 33.7897 33.7978 34.1253 32.1196C34.2743 32.0778 34.4367 32.0084 34.5973 31.9029C34.5973 31.9029 34.3971 32.5843 34.5199 33.2695C34.5199 33.2695 34.8391 33.0452 35.0674 31.4392ZM36.5743 31.2738C36.6787 31.1436 36.8809 30.869 36.9844 30.6732C37.056 31.5998 37.3026 34.0354 36.4766 34.7995C36.4766 34.7995 35.9108 34.3899 35.7106 30.8338C35.8315 31.0334 36.0414 31.2453 36.1419 31.3613C36.1419 31.3613 36.0065 32.4893 36.4157 33.2856C36.4157 33.2856 36.8258 32.9777 36.5743 31.2738ZM38.5435 33.1364C37.8471 32.3144 37.6392 29.8522 37.6392 29.8522C37.4977 29.7588 37.3633 29.6556 37.2368 29.5433C37.2368 29.6317 37.2339 29.7258 37.2262 29.8189C37.3229 31.3014 37.4457 32.8276 37.911 33.5878C38.3694 34.3338 39.2109 34.7196 39.2109 34.7196C40.0031 33.3293 39.0465 31.4649 38.2476 30.1677C38.146 30.1291 38.0469 30.0847 37.9506 30.0346C38.2292 31.0325 38.7631 32.2203 38.5435 33.1355M40.5002 28.862C40.5079 29.0197 40.476 29.1518 40.4547 29.2164C40.4443 29.2507 40.4327 29.2846 40.4199 29.3181C41.0786 29.9605 41.5709 30.5754 42.5517 31.9219C43.5334 33.2695 45.0877 33.3236 45.0877 33.3236C44.9397 32.2317 44.6389 31.3698 43.8061 30.4395C42.9743 29.5101 41.9123 28.6596 41.1289 28.0979C40.8795 28.2056 40.6046 28.2431 40.3348 28.2063C40.3087 28.2049 40.2828 28.2011 40.2574 28.1949C40.3609 28.3317 40.4238 28.4676 40.4586 28.593C41.0506 28.9285 42.7732 29.7904 43.4666 31.1807C43.4666 31.1807 42.3785 30.8405 40.5002 28.862ZM41.7353 27.504L41.6696 27.3881C41.6494 27.3518 41.6268 27.3168 41.6019 27.2835C42.2402 27.5277 44.517 28.3773 45.2521 28.7536C45.9882 29.1338 47.0521 29.989 47.6305 31.7309C47.6305 31.7309 46.0975 31.8659 44.8285 30.83C43.5614 29.7895 42.0816 28.3431 41.4529 27.8841C41.5167 27.8261 41.5641 27.7701 41.6009 27.7226C41.6009 27.7226 43.3167 29.224 45.1283 29.874C45.1283 29.874 44.7414 29.1765 44.0276 28.6719C43.1513 28.059 42.4994 27.8527 41.7353 27.504ZM43.0343 26.4748C43.0126 26.4168 42.9877 26.3601 42.9598 26.3047C43.7114 26.4549 45.5897 26.6782 46.4292 26.931C47.2649 27.1875 48.7834 27.7929 49.6829 29.492C49.6829 29.492 48.3627 29.894 45.8673 28.7356C43.3738 27.5743 42.5962 27.3329 42.1203 27.2084C42.4975 27.1809 42.7664 27.0545 42.9066 26.969C43.9009 27.408 45.2318 27.925 46.5511 27.9601C46.5511 27.9601 45.8982 27.5059 45.2163 27.2189C44.5061 26.9248 43.7772 26.6763 43.0343 26.4748ZM42.9743 25.2546C42.7394 25.3678 42.4847 25.4361 42.2238 25.4561C42.3979 25.5682 42.5633 25.7089 42.7122 25.8989C43.5905 26.1498 45.0848 26.4225 47.558 26.5993C50.0282 26.7732 51.3446 26.3266 51.3446 26.3266C50.4847 25.8058 49.1142 25.2774 48.1857 25.1007C47.2552 24.922 44.8169 24.9429 43.7471 24.7985C43.6363 24.8873 43.519 24.968 43.396 25.0399C44.2965 25.1197 46.2106 25.2071 47.1991 25.7051C47.1991 25.7051 45.3759 25.9436 42.9743 25.2546Z" fill="white"/>
<path fill-rule="evenodd" clip-rule="evenodd" d="M35.4651 28.1853C35.3893 28.1179 35.3158 28.0481 35.2445 27.9762C35.1188 28.1349 34.6903 28.6642 34.4804 29.1926C34.3199 29.643 34.1487 30.2569 34.0655 30.6076C33.9785 30.9563 33.725 31.6881 33.5722 31.938C33.5722 31.938 34.2493 32.0216 34.7503 31.4429C35.2436 30.8756 35.408 30.3044 35.4883 29.719C35.5417 29.209 35.5339 28.6945 35.4651 28.1862M36.529 28.2727C36.4042 28.439 36.2853 28.5065 36.2727 28.5141L36.1827 28.5606L36.085 28.5283C36.0053 28.5038 35.9276 28.473 35.8529 28.4361C35.7695 28.6378 35.7148 28.8498 35.6904 29.0662C35.6566 29.3722 35.5976 29.8549 35.7107 30.2474C35.8539 30.7264 36.1421 31.02 36.3046 31.2034C36.3046 31.2034 36.7476 30.7216 36.8753 30.3253C37.0058 29.9091 37.0532 29.4254 36.8927 28.9293C36.8141 28.6901 36.6908 28.4674 36.529 28.2727ZM38.0572 28.3183C37.6762 28.2729 37.3133 28.1325 37.0029 27.9106C36.9468 28.0684 36.8559 28.2803 36.9236 28.5806C36.9884 28.8818 37.1993 29.2135 37.5059 29.4549C37.9585 29.8141 38.5698 30.1533 39.2459 30.0507C39.2459 30.0507 39.4007 29.548 38.0572 28.3192M38.566 27.482C38.5128 27.9277 38.2971 28.2081 38.2797 28.2299C38.4373 28.4162 39.006 29.3807 40.1986 29.2211C40.1986 29.2211 40.5159 28.5625 39.7285 28.0389C39.1888 27.6844 38.9354 27.6113 38.566 27.482ZM38.4625 26.6553C38.8683 26.7518 39.2919 26.7496 39.6966 26.6486L39.834 26.6163L39.8727 26.4852C40.4839 26.9765 41.2084 27.0601 41.4579 27.5058C41.4579 27.5058 41.1532 28.0598 40.363 27.9695C40.0092 27.9333 39.6665 27.8272 39.3553 27.6577C39.0442 27.4882 38.7711 27.2588 38.5524 26.9831C38.5314 26.872 38.5014 26.7626 38.4625 26.6562M39.834 25.9644C39.7208 25.799 39.6405 25.5434 39.4065 25.2849C39.9392 25.1883 40.486 25.1954 41.0159 25.3058C41.7452 25.4398 42.4899 25.6099 42.8633 26.7104C42.8633 26.7104 42.3922 27.1038 41.5411 26.9337C40.8215 26.7855 40.1928 26.4795 39.834 25.9644ZM40.1425 24.7737C40.3263 24.6159 40.4946 24.4126 40.6164 24.1465L40.6764 24.0096C41.3109 23.7549 41.9705 23.6248 42.6128 23.8604C43.2608 24.1009 43.4291 24.3736 43.5955 24.6131C43.5955 24.6131 42.8797 25.2051 42.0557 25.2251C41.2335 25.2526 40.4733 25.016 40.1425 24.7746M39.952 23.4898C39.8316 23.4445 39.7077 23.4089 39.5815 23.3834C39.863 23.1401 40.1386 22.7666 40.2721 22.2116C40.5661 22.2791 41.2558 22.2791 41.5595 22.166C41.8632 22.051 42.459 22.0453 42.9252 22.3485C42.9252 22.3485 42.7733 23.1572 41.7162 23.4328C40.7199 23.6913 40.3553 23.6247 39.952 23.4898ZM40.3301 21.9152L40.1928 21.8268C40.1735 21.8154 39.9375 21.6719 39.5322 21.6405C39.8746 21.3915 40.6803 20.7206 41.2558 20.3985C41.8806 20.0526 42.9155 19.5945 43.4475 19.5251C43.4475 19.5251 42.9503 20.8081 42.3739 21.3279C41.7761 21.8657 41.3573 22.0644 40.3301 21.9152ZM39.2633 21.3241C39.5187 21 39.7169 20.5524 39.863 20.0231C39.9849 19.5945 40.2576 18.5273 40.4201 18.2517C40.5836 17.9742 41.1649 17.0087 42.3042 16.7065C42.3042 16.7065 42.6079 17.9685 42.0334 18.9635C41.5382 19.8235 40.5265 20.7292 39.2633 21.3241ZM32.9455 27.1817C32.7988 27.3254 32.6271 27.4422 32.4387 27.5267C32.4387 27.5267 32.0731 28.2128 32.516 29.0424C32.9551 29.8711 33.3266 30.715 33.5065 31.1873C33.5065 31.1873 33.7425 31.1511 34.0046 29.8549C34.1835 28.9759 34.4089 28.7554 34.642 28.4542C34.3857 28.5815 34.1816 28.6195 34.1632 28.6233L33.9881 28.6528L33.9069 28.4979C33.7708 28.2437 33.701 27.9603 33.7038 27.673C33.7038 27.5951 33.7076 27.521 33.7163 27.4535C33.3062 27.463 33.0877 27.2587 33.0064 27.1551C32.9967 27.1437 32.99 27.138 32.9851 27.1285L32.9455 27.1817Z" fill="white"/>
<path fill-rule="evenodd" clip-rule="evenodd" d="M40.0031 29.4815C40.8475 30.3178 42.6301 32.1927 42.4608 34.2273C42.4608 34.2273 40.805 33.7161 40.126 32.5149C39.4422 31.3166 39.0234 30.5639 38.7361 30.294C38.9179 30.3168 39.1017 30.3168 39.2826 30.2874L39.4344 30.2646C39.8532 31.022 40.686 32.2583 41.4356 32.6907C41.4356 32.6907 41.6252 31.6881 39.4238 29.6545C39.3857 29.5562 39.3395 29.4611 39.2855 29.3703C39.4857 29.4435 39.7168 29.4844 39.9732 29.4806M27.2146 13.2532C27.2146 13.103 27.795 12.9795 28.5078 12.9795C29.2235 12.9795 29.801 13.103 29.801 13.2532C29.801 13.4024 29.2226 13.525 28.5078 13.525C27.794 13.525 27.2146 13.4014 27.2146 13.2532ZM28.7603 13.8528C28.7605 13.8856 28.7542 13.9181 28.7416 13.9485C28.7291 13.9788 28.7105 14.0065 28.6871 14.0298C28.6636 14.0531 28.6357 14.0716 28.6049 14.0843C28.5742 14.097 28.5412 14.1036 28.5078 14.1037C28.4401 14.1035 28.3752 14.077 28.3272 14.03C28.2792 13.983 28.252 13.9194 28.2515 13.8528C28.2515 13.7141 28.3676 13.602 28.5078 13.602C28.649 13.602 28.7593 13.7141 28.7593 13.8528M27.1208 12.9871C26.6933 11.9731 26.4051 11.2233 26.4148 10.9734C26.4225 10.8233 26.6053 10.7102 26.7784 10.6579C26.9477 10.6047 27.0995 10.5942 27.2137 10.6807C27.439 10.8508 27.6451 12.2202 27.7234 12.7885C27.5067 12.8294 27.3752 12.8569 27.1218 12.9871M27.9081 12.7676C28.0155 12.7533 28.1287 12.7486 28.2418 12.7438C28.1581 12.1348 28.0347 11.5317 27.8724 10.9383C27.7592 10.58 27.617 10.3234 27.3791 10.2588C27.3791 10.2588 27.5628 10.7567 27.6654 11.2709C27.766 11.7859 27.8424 12.2772 27.9072 12.7676M26.5463 14.5827C27.0202 14.4724 27.5067 13.9707 27.5067 13.9707C26.7397 14.08 26.5463 14.5827 26.5463 14.5827ZM27.2572 14.538C26.5947 14.9181 25.8547 14.8611 25.8547 14.8611C25.9979 14.6007 26.1323 14.3603 26.5463 14.0686C26.9603 13.7759 27.6354 13.7027 27.9004 13.7388C27.8414 13.9336 27.5715 14.3546 27.2572 14.5371M24.7869 15.6128V15.5605C24.137 15.6423 23.3709 15.609 23.3709 15.609C23.4096 15.8475 23.5102 16.029 23.6814 16.1402C23.723 15.6175 24.7869 15.6128 24.7869 15.6128ZM22.6291 14.9238C22.6291 14.9238 23.4512 15.2251 24.2753 15.1871C25.0955 15.1452 26.6121 15.1291 27.0995 14.8925C27.0995 14.8925 27.0212 15.1985 26.6295 15.3743C26.6295 15.3743 26.8355 15.3743 27.0357 15.5491C27.0357 15.5491 26.9187 15.801 26.5685 15.9349C26.5685 15.9349 27.1953 16.5774 27.8675 16.5317C27.8675 16.5317 27.558 16.9119 26.8713 16.7655C26.1846 16.6192 25.964 16.239 25.848 16.0927C25.848 16.0927 25.937 16.4567 25.8944 16.603C25.8944 16.603 25.5926 16.585 25.3576 16.2923C25.3576 16.2923 25.5288 16.585 25.5646 16.832C25.5646 16.832 25.375 16.8529 25.0355 16.6553C25.0355 16.6553 25.1061 16.8377 25.1197 17.0468C25.1197 17.0468 24.3256 16.7959 23.9406 16.4386C23.9406 16.4386 23.9358 16.6857 23.9551 16.8244C23.9551 16.8244 22.7239 16.7009 22.6291 14.9238ZM22.4395 15.0474C22.4695 15.4322 22.5691 15.8114 22.7055 16.0803C22.7055 16.0803 22.2209 15.7211 22.1029 15.4151C21.982 15.111 21.953 14.901 22.4385 15.0474M21.4655 16.5089C21.5194 16.5089 21.5711 16.4879 21.6092 16.4505C21.6472 16.4131 21.6686 16.3623 21.6686 16.3094C21.6686 16.2564 21.6472 16.2057 21.6092 16.1683C21.5711 16.1308 21.5194 16.1098 21.4655 16.1098C21.4392 16.1102 21.4131 16.1157 21.3889 16.126C21.3647 16.1362 21.3428 16.1511 21.3245 16.1698C21.3061 16.1884 21.2917 16.2104 21.2821 16.2345C21.2724 16.2586 21.2677 16.2844 21.2682 16.3103C21.2682 16.4215 21.3572 16.5099 21.4655 16.5099M22.6533 16.2752C22.9773 16.4215 23.2665 16.7684 23.2665 16.7684C22.7751 16.8795 22.5575 17.0183 22.5575 17.0183C21.6155 16.3626 20.8407 17.0221 20.8407 17.0221C20.331 16.7389 20.2333 16.0414 20.4877 15.6727C20.7421 15.302 21.3166 15.3686 21.5884 15.4322C21.7615 15.972 22.3612 16.145 22.6523 16.2752M23.3738 16.8881C23.3738 16.8881 23.7153 17.3404 23.9667 17.5391C23.9667 17.5391 22.6997 17.5277 22.3805 18.612C22.3805 18.612 21.9424 17.9467 22.2625 17.5144C22.6078 17.0487 22.9241 16.9917 23.3738 16.8881Z" fill="white"/>
<path fill-rule="evenodd" clip-rule="evenodd" d="M24.7628 17.1579C24.7628 17.1579 25.1719 17.2767 25.3093 17.3118C25.3093 17.3118 25.3131 17.078 25.3054 16.965C25.4282 16.9944 25.5811 17.0334 25.7126 17.0467C25.7126 17.0467 26.1198 17.9476 26.4399 18.3106C26.4399 18.3106 26.4583 18.5101 26.2804 18.8142C26.2804 18.8142 26.0482 18.2821 25.6333 17.8544C25.3992 17.615 25.2493 17.4924 24.7628 17.1579ZM23.6873 16.965C23.8198 17.0001 24.4736 17.2025 24.787 17.4287C25.1845 17.7081 25.4573 18.0302 25.4137 18.5852C25.4137 18.5852 25.0945 18.1452 24.7415 17.9476C24.462 17.7889 23.9552 17.3517 23.6873 16.965ZM23.6969 12.8891C23.8169 12.8891 24.05 12.9461 24.05 13.1371C24.05 13.3319 23.7492 13.7957 23.6669 14.0019H23.6592C23.5789 13.7957 23.2733 13.3319 23.2733 13.1371C23.2733 12.9471 23.5103 12.8901 23.6302 12.8901H23.696M23.4309 14.3868C23.3748 14.1169 23.2665 13.4156 23.0992 13.2616C22.9396 13.1124 22.7026 13.0982 22.5866 13.1048C22.5531 13.1072 22.5206 13.1171 22.4916 13.1337C22.4626 13.1502 22.4378 13.1731 22.419 13.2004C22.4003 13.2278 22.3882 13.259 22.3835 13.2917C22.3788 13.3243 22.3818 13.3576 22.3922 13.389C22.4386 13.5505 22.9628 14.3269 23.0315 14.4248C23.1534 14.4039 23.1301 14.4115 23.4309 14.3868ZM23.8962 14.3868C23.9542 14.1169 24.0606 13.4156 24.2289 13.2616C24.3875 13.1124 24.6254 13.0982 24.7415 13.1048C24.7751 13.1072 24.8077 13.117 24.8369 13.1335C24.8661 13.15 24.8912 13.1727 24.9102 13.2C24.9293 13.2273 24.9418 13.2585 24.9469 13.2912C24.952 13.3239 24.9496 13.3573 24.9398 13.389C24.8876 13.5505 24.3643 14.3269 24.2947 14.4248C24.1747 14.4039 24.1979 14.4115 23.8962 14.3868ZM24.2337 11.9474H23.8246V11.5017H23.4957V11.9483H23.0827V12.2296H23.4948V12.7532H23.8236V12.2305H24.2337V11.9474ZM19.2806 14.8315C19.2806 14.7431 19.2845 14.6576 19.298 14.573C19.329 14.3545 19.3319 14.1692 19.3077 14.0143C19.0127 14.1264 18.8144 14.1967 18.4082 14.8439C18.4082 14.8439 19.0553 14.4505 19.2806 14.8315ZM19.8445 15.855C19.8532 15.6953 19.9606 15.1869 20.096 14.8325C20.2604 14.3906 20.1637 13.7548 19.9645 13.3671C19.7729 12.9946 19.6685 12.6449 19.7004 12.2581C19.7004 12.2581 19.3213 12.3845 19.0998 12.5185C19.0649 12.967 19.329 13.4156 19.4547 13.6703C19.6037 13.9715 19.5727 14.364 19.5398 14.6053C19.4818 15.014 19.5669 15.4473 19.8445 15.855ZM19.8871 12.4292C19.8697 12.3465 19.874 12.2608 19.8996 12.1802C19.8996 12.1802 20.5032 11.6005 21.01 11.5017C21.3292 11.4351 21.5246 11.5767 21.6213 11.6537C21.6213 11.6537 21.4443 11.6347 21.1735 11.8533C20.9026 12.069 20.5661 12.3294 20.3146 12.3949C20.0621 12.4615 20.0099 12.4425 19.8871 12.4292ZM21.6716 11.6974C21.896 11.9217 22.0894 12.1593 22.0836 12.3645C22.0807 12.5774 21.8302 13.1124 21.7006 13.3148C21.5691 13.5182 21.3766 13.7852 21.3979 14.1093C21.4104 14.2708 21.5236 14.4362 21.659 14.574C21.659 14.574 20.921 14.401 20.8291 13.9506C20.7518 13.5467 20.9259 13.2664 21.0448 13.0431C21.1541 12.8321 21.4936 12.3436 21.5807 12.1403C21.658 11.955 21.7006 11.801 21.6716 11.6984M25.9805 16.772C26.1256 17.29 26.3771 17.7746 26.6247 18.1547C26.8471 18.5035 26.9884 19.0661 26.968 19.2571C26.968 19.2571 27.3008 18.5301 27.1325 18.0169C26.9971 17.6178 26.6402 17.022 25.9805 16.772ZM26.8104 16.9421C26.8104 16.9421 27.3172 16.9516 27.5532 17.1056C27.8569 17.3033 28.1451 17.7375 28.2583 18.2574C28.2583 18.2574 27.7457 18.169 27.4942 17.921C27.2408 17.671 26.9294 17.2976 26.8104 16.9421ZM24.1921 17.8459C24.0954 17.8535 23.8352 17.9124 23.7085 17.9504C23.7085 17.9504 24.1389 18.0749 24.3546 18.2517C24.5394 18.4009 24.698 18.6318 24.7705 19.0214C24.876 19.5659 25.198 20.1523 25.2948 20.3281L25.3344 20.3214C25.2764 19.9461 25.5104 19.1687 25.5743 19.0556C25.5743 19.0556 25.2309 18.8447 25.0733 18.6242C24.9572 18.4626 24.756 18.1927 24.1931 17.8468M26.4341 19.0157C26.5589 19.3008 26.8936 19.8083 26.7369 20.3366C26.5821 20.865 26.231 21.0921 26.0163 21.5416C26.0163 21.5416 25.848 20.731 25.8828 20.1067C25.9215 19.4823 26.1517 19.2419 26.4341 19.0157ZM27.4052 19.0366C27.4052 19.0366 27.9082 20.0012 27.9991 20.3784C28.0861 20.7529 28.0049 21.0028 27.8327 21.2318C27.6654 21.457 27.3743 21.7022 27.1064 22.1783C27.1064 22.1783 26.7959 21.7725 26.7591 21.5606C26.7233 21.3487 26.7814 20.8422 26.8491 20.6312C26.9148 20.4155 27.1799 19.7332 27.4052 19.0366ZM27.6625 22.1146C27.5532 22.2334 26.9661 22.9319 26.8868 23.1353C26.8075 23.3377 26.6711 23.7235 26.852 23.9924C27.0357 24.2614 27.4565 24.6862 27.8192 24.8667C27.8192 24.8667 27.4226 24.2547 27.4652 23.752C27.4884 23.4299 27.7408 23.1438 27.7892 22.9471C27.8376 22.7532 27.8066 22.4216 27.6625 22.1146ZM26.5115 21.7298C26.6024 21.8533 26.7591 22.1546 26.7814 22.4472C26.8036 22.7352 26.7553 22.9671 26.5957 23.39C26.3964 23.924 26.083 24.518 25.938 24.7869C25.938 24.7869 25.6623 24.3954 25.5095 24.0466C25.5095 24.0466 25.9409 23.4612 26.1266 23.0488C26.3384 22.5622 26.4264 22.1127 26.5115 21.7298ZM26.3132 21.5045C26.3132 21.5045 26.1256 22.8777 25.3093 23.8965C24.756 24.5864 24.3072 24.8278 24.0084 24.8278C23.5605 24.8278 23.1089 24.4571 22.9599 24.0333C22.8071 23.6123 22.8574 22.9547 23.1475 22.7219C23.1475 22.7219 23.4145 23.5458 23.99 23.5753C24.6409 23.6123 25.4756 22.891 26.3132 21.5036" fill="white"/>
<path fill-rule="evenodd" clip-rule="evenodd" d="M25.6421 20.9309C25.7098 21.176 25.732 21.5524 25.6421 21.9078C25.5744 22.1786 25.409 22.5293 25.0888 22.7279C24.8132 22.8989 24.1584 22.9388 23.9127 22.3307C23.9127 22.3307 25.1024 22.419 25.6421 20.9309ZM27.5881 26.4664C27.7506 26.8798 28.3309 27.4015 28.329 27.7246C28.3203 28.577 27.9411 29.0997 27.8521 29.381C27.8521 29.381 27.1606 28.8393 27.0377 28.2178C26.9749 27.8985 27.0474 26.9396 27.5891 26.4664M26.8143 27.0708C26.8936 26.8484 27.1499 26.244 27.443 26.0349C27.443 26.0349 27.8193 24.9402 26.6093 24.2645C26.6093 24.2645 26.1112 24.9174 25.9806 25.5313C25.8481 26.149 26.5058 26.5167 26.8143 27.0708ZM25.3006 24.3035C25.1072 24.5382 24.8306 24.8585 24.6178 24.9592C24.6178 24.9592 24.5452 25.4476 24.5849 25.7736C24.6497 26.2564 24.9602 26.7486 25.0956 27.1088C25.0956 27.1088 25.6246 26.4255 25.6856 26.0245C25.7456 25.6216 25.7378 25.2918 25.7581 25.0979C25.7581 25.0979 25.4631 24.6247 25.3006 24.3035ZM23.903 26.6526C23.7531 26.4246 23.2714 25.5978 23.2646 24.9944C23.2646 24.9944 23.8605 25.308 24.3605 25.077C24.3605 25.077 24.4243 25.862 24.3305 26.1271C24.2493 26.3419 24.1467 26.4702 23.903 26.6526ZM24.0423 26.8189C24.139 26.7344 24.3769 26.5177 24.4775 26.4046C24.4775 26.4046 24.8722 27.1211 24.9399 27.3311C24.9399 27.3311 24.7416 27.3825 24.523 27.2266C24.3495 27.1062 24.1885 26.9693 24.0423 26.818M25.8761 26.3979C25.8287 26.5785 25.1884 27.4585 25.0782 27.5668C25.0782 27.5668 25.1256 27.8842 25.3645 28.3432C25.6005 28.7994 25.9303 29.1215 26.1063 29.2831C26.1063 29.2831 26.5038 28.6017 26.6209 28.3043C26.7515 27.9602 26.7369 27.6229 26.6818 27.4965C26.5464 27.1991 26.0821 26.7695 25.8761 26.3979ZM26.8385 28.6986C26.9797 28.9809 27.4063 29.4456 27.473 29.8133C27.5262 30.1003 27.4798 30.336 27.3995 30.5384C27.3192 30.7323 27.0648 31.121 26.8936 31.4165C26.8936 31.4165 26.3085 30.8701 26.1808 30.4814C26.0866 30.1595 26.1148 29.815 26.2601 29.5121C26.3994 29.2517 26.705 28.9695 26.8385 28.6996M25.1846 28.6198C25.3345 28.9486 25.6972 29.2736 25.7794 29.5596C25.8761 29.8989 25.908 30.1117 25.7426 30.5071C25.5956 30.8511 25.4177 31.0535 25.3587 31.2645C25.3587 31.2645 24.8847 30.6563 24.8035 30.4035C24.7261 30.1507 24.7 29.7345 24.7986 29.4722C24.8934 29.2042 25.0666 28.8621 25.1855 28.6198M27.5223 30.9347C27.5223 30.9347 26.7041 31.9107 26.7234 32.4286C26.7486 33.0719 27.1809 33.5024 27.2409 33.8977C27.2409 33.8977 27.6684 33.4188 27.8328 33.0966C28.0166 32.7355 28.1549 32.4286 28.1104 32.018C28.0582 31.6075 27.9498 31.3462 27.5223 30.9347ZM26.0164 30.8387C26.146 31.0259 26.5096 31.6645 26.4071 32.0418C26.3046 32.4238 25.9022 32.9579 25.7659 33.186C25.7659 33.186 25.4438 32.5303 25.3693 32.229C25.2977 31.9316 25.3645 31.4403 26.0164 30.8387ZM28.5156 12.1966C28.5717 11.8298 29.0012 11.0411 29.0012 10.698C29.0041 10.6324 28.9935 10.5668 28.97 10.5053C28.9465 10.4438 28.9105 10.3876 28.8643 10.3401C28.8181 10.2927 28.7625 10.2549 28.701 10.2291C28.6395 10.2032 28.5733 10.1899 28.5065 10.1899C28.4396 10.1899 28.3734 10.2032 28.3119 10.2291C28.2504 10.2549 28.1949 10.2927 28.1486 10.3401C28.1024 10.3876 28.0664 10.4438 28.0429 10.5053C28.0194 10.5668 28.0088 10.6324 28.0117 10.698C28.0117 11.0411 28.446 11.8298 28.4992 12.1966H28.5156ZM29.8939 12.9873C30.3253 11.9733 30.6106 11.2235 30.6 10.9736C30.5932 10.8234 30.4104 10.7103 30.2412 10.6581C30.0671 10.6049 29.9133 10.5944 29.8011 10.6809C29.5786 10.851 29.3678 12.2204 29.2914 12.7887C29.5119 12.8295 29.6425 12.8571 29.8939 12.9873ZM29.1076 12.7678C28.9993 12.7535 28.8871 12.7487 28.7758 12.744C28.8435 12.2004 29.0331 11.2938 29.1453 10.9384C29.2556 10.5802 29.3968 10.3236 29.6376 10.259C29.6376 10.259 29.4519 10.7569 29.3513 11.271C29.2556 11.7676 29.1743 12.2667 29.1076 12.7678ZM29.5119 13.9708C29.5119 13.9708 29.9945 14.4726 30.4714 14.5828C30.4714 14.5828 30.276 14.0792 29.5119 13.9708ZM29.1153 13.739C29.3823 13.7029 30.0564 13.776 30.4714 14.0687C30.8863 14.3605 31.0198 14.6009 31.1619 14.8613C31.1619 14.8613 30.4211 14.9183 29.7595 14.5382C29.4461 14.3548 29.1763 13.9338 29.1153 13.739ZM33.3333 16.1404C33.5065 16.0292 33.6042 15.8477 33.6467 15.6082C33.6467 15.6082 32.8787 15.6424 32.2249 15.5607V15.613C32.2249 15.613 33.2927 15.6187 33.3333 16.1404ZM33.0625 16.8246C33.0809 16.6849 33.0741 16.4388 33.0741 16.4388C32.6882 16.7961 31.897 17.047 31.897 17.047C31.9086 16.8379 31.9763 16.6554 31.9763 16.6554C31.6407 16.8531 31.4521 16.8322 31.4521 16.8322C31.4869 16.5851 31.6591 16.2924 31.6591 16.2924C31.5286 16.4621 31.3348 16.5739 31.1204 16.6032C31.0788 16.4568 31.1687 16.0929 31.1687 16.0929C31.0517 16.2392 30.8331 16.6193 30.1435 16.7657C29.4548 16.913 29.1492 16.5319 29.1492 16.5319C29.8195 16.5775 30.4452 15.9351 30.4452 15.9351C30.097 15.8021 29.98 15.5493 29.98 15.5493C30.1831 15.3744 30.3872 15.3744 30.3872 15.3744C29.9945 15.1986 29.9133 14.8936 29.9133 14.8936C30.4056 15.1293 31.9193 15.1464 32.7433 15.1882C33.5655 15.2262 34.3847 14.924 34.3847 14.924C34.2918 16.7011 33.0616 16.8246 33.0616 16.8246M34.5781 15.0475C34.5532 15.4049 34.4628 15.7548 34.3112 16.0805C34.3112 16.0805 34.7967 15.7213 34.9128 15.4153C35.0308 15.1112 35.0617 14.9012 34.5772 15.0475M35.7485 16.3105C35.7482 16.2576 35.7267 16.207 35.6887 16.1696C35.6507 16.1323 35.5991 16.1112 35.5454 16.1109C35.4915 16.1109 35.4398 16.1319 35.4017 16.1694C35.3636 16.2068 35.3422 16.2576 35.3422 16.3105C35.3422 16.3634 35.3636 16.4142 35.4017 16.4516C35.4398 16.489 35.4915 16.51 35.5454 16.51C35.5992 16.51 35.6509 16.489 35.689 16.4516C35.7271 16.4142 35.7485 16.3634 35.7485 16.3105ZM35.4274 15.4324C35.7001 15.3678 36.2737 15.3032 36.5271 15.6728C36.7844 16.0415 36.6838 16.7391 36.174 17.0223C36.174 17.0223 35.3974 16.3618 34.4582 17.0185C34.4582 17.0185 34.2377 16.8797 33.7473 16.7685C33.7473 16.7685 34.0375 16.4217 34.3634 16.2753C34.6526 16.1451 35.2552 15.9712 35.4274 15.4324ZM33.6419 16.8883C33.6419 16.8883 33.3014 17.3406 33.0499 17.5392C33.0499 17.5392 34.316 17.5278 34.6362 18.6121C34.6362 18.6121 35.0743 17.9469 34.7522 17.5145C34.4089 17.0489 34.0926 16.9918 33.6419 16.8883Z" fill="white"/>
<path fill-rule="evenodd" clip-rule="evenodd" d="M32.2522 17.1578C32.2522 17.1578 31.8431 17.2766 31.7067 17.3118C31.7067 17.3118 31.6999 17.078 31.7135 16.9649C31.5897 16.9944 31.4378 17.0333 31.3053 17.0466C31.3053 17.0466 30.8952 17.9475 30.578 18.3105C30.578 18.3105 30.5586 18.5101 30.7366 18.8142C30.7366 18.8142 30.9677 18.282 31.3807 17.8544C31.6167 17.6149 31.7657 17.4923 32.2522 17.1578ZM33.3268 16.9649C33.1991 17.0001 32.5433 17.2025 32.2261 17.4286C31.8315 17.708 31.5597 18.0302 31.6013 18.5852C31.6013 18.5852 31.9224 18.1452 32.2744 17.9475C32.5559 17.7888 33.0618 17.3517 33.3268 16.9649ZM33.3181 12.889C33.1991 12.889 32.9641 12.9461 32.9641 13.1371C32.9641 13.3319 33.2678 13.7956 33.3481 14.0018H33.3558C33.4361 13.7956 33.7407 13.3319 33.7407 13.1371C33.7407 12.947 33.5067 12.89 33.3848 12.89H33.3181M33.586 14.3867C33.6421 14.1168 33.7475 13.4155 33.9177 13.2616C34.0773 13.1124 34.3143 13.0981 34.4323 13.1048C34.4658 13.1069 34.4984 13.1166 34.5275 13.1331C34.5566 13.1496 34.5813 13.1726 34.5999 13.2001C34.6184 13.2276 34.6303 13.259 34.6344 13.2917C34.6386 13.3245 34.6349 13.3578 34.6238 13.3889C34.5774 13.5505 34.0522 14.3269 33.9816 14.4247C33.8607 14.4038 33.8849 14.4114 33.586 14.3867ZM33.1198 14.3867C33.0618 14.1168 32.9554 13.4155 32.7861 13.2616C32.6255 13.1124 32.3886 13.0981 32.2715 13.1048C32.2382 13.1075 32.206 13.1175 32.1772 13.1342C32.1484 13.1509 32.1238 13.1737 32.1053 13.2011C32.0868 13.2284 32.0748 13.2595 32.0703 13.292C32.0657 13.3246 32.0687 13.3577 32.0791 13.3889C32.1265 13.5505 32.6497 14.3269 32.7203 14.4247C32.8422 14.4038 32.8171 14.4114 33.1198 14.3867ZM32.7851 11.9473H33.1914V11.5016H33.5202V11.9482H33.9313V12.2295H33.5202V12.7531H33.1914V12.2305H32.7851V11.9473ZM27.9336 9.3026H28.3398V8.85596H28.6735V9.3026H29.0826V9.58199H28.6735V10.1085H28.3398V9.58199H27.9336V9.3026ZM37.7382 14.8315C37.7349 14.7451 37.7281 14.6588 37.7179 14.573C37.6883 14.3881 37.6844 14.2001 37.7063 14.0142C38.0023 14.1263 38.2006 14.1967 38.6068 14.8438C38.6068 14.8438 37.9607 14.4504 37.7382 14.8315Z" fill="white"/>
<path fill-rule="evenodd" clip-rule="evenodd" d="M37.1696 15.8549C37.1599 15.6952 37.0555 15.1868 36.923 14.8324C36.7566 14.3905 36.8504 13.7547 37.0487 13.367C37.2412 12.9945 37.3485 12.6448 37.3127 12.258C37.3127 12.258 37.6948 12.3844 37.9144 12.5184C37.9511 12.9669 37.688 13.4155 37.5623 13.6701C37.4114 13.9714 37.4414 14.3639 37.4752 14.6052C37.5333 15.0139 37.4443 15.4472 37.1696 15.8549ZM37.1299 12.429C37.1438 12.3459 37.1382 12.2607 37.1135 12.1801C37.1135 12.1801 36.5138 11.6004 36.006 11.5015C35.8988 11.4766 35.7869 11.4774 35.68 11.5038C35.5731 11.5303 35.4743 11.5817 35.3919 11.6536C35.3919 11.6536 35.5718 11.6346 35.8416 11.8532C36.1115 12.0689 36.4461 12.3293 36.7005 12.3948C36.9539 12.4614 37.01 12.4423 37.1299 12.429ZM35.3425 11.6973C35.1181 11.9216 34.9266 12.1592 34.9315 12.3644C34.9344 12.5773 35.1839 13.1123 35.3155 13.3147C35.447 13.5181 35.6385 13.7851 35.6153 14.1092C35.6037 14.2707 35.4895 14.4361 35.358 14.5739C35.358 14.5739 36.095 14.4009 36.183 13.9505C36.2643 13.5466 36.0921 13.2663 35.9722 13.0429C35.8619 12.832 35.5205 12.3435 35.4354 12.1402C35.358 11.9548 35.3155 11.8009 35.3425 11.6983M31.0355 16.7719C30.8883 17.2606 30.6711 17.7261 30.3904 18.1546C30.166 18.5034 30.0248 19.066 30.0509 19.257C30.0509 19.257 29.7153 18.53 29.8865 18.0168C30.0161 17.6177 30.373 17.0219 31.0355 16.7719ZM30.2028 16.942C30.2028 16.942 29.6998 16.9515 29.4638 17.1055C29.1582 17.3031 28.8661 17.7374 28.7558 18.2573C28.7558 18.2573 29.2684 18.1689 29.5218 17.9208C29.7753 17.6709 30.0848 17.2974 30.2028 16.942ZM32.8229 17.8458C32.9216 17.8534 33.1789 17.9123 33.3066 17.9503C33.3066 17.9503 32.8742 18.0748 32.6614 18.2516C32.4776 18.4007 32.3152 18.6317 32.2436 19.0213C32.1411 19.5658 31.8151 20.1522 31.7184 20.328L31.6826 20.3213C31.7406 19.9459 31.5037 19.1686 31.4437 19.0555C31.4437 19.0555 31.7861 18.8445 31.9408 18.6241C32.055 18.4625 32.26 18.1926 32.8229 17.8467M30.5809 19.0156C30.4581 19.3007 30.1225 19.8081 30.2763 20.3365C30.4339 20.8649 30.785 21.092 30.9978 21.5415C30.9978 21.5415 31.169 20.7309 31.1313 20.1065C31.0926 19.4822 30.8653 19.2418 30.58 19.0156M28.513 20.4952C28.5372 20.1845 29.2617 19.4394 29.2249 19.0365C29.1872 18.6307 28.6446 18.3475 28.5101 18.2877H28.5034C28.3709 18.3475 27.8273 18.6307 27.7886 19.0365C27.7499 19.4394 28.4773 20.1845 28.4985 20.4952H28.513ZM29.6099 19.0365C29.6099 19.0365 29.1069 20.0011 29.015 20.3783C28.927 20.7527 29.0092 21.0027 29.1814 21.2317C29.3506 21.4569 29.6389 21.7021 29.9097 22.1782C29.9097 22.1782 30.2182 21.7724 30.2579 21.5605C30.2946 21.3486 30.2337 20.8421 30.166 20.6311C30.1002 20.4154 29.8323 19.7331 29.6099 19.0365ZM28.513 22.7664C28.7413 22.5707 28.9464 22.2789 29.0121 22.106C29.075 21.9349 29.0914 21.6831 28.9386 21.4883C28.7558 21.2593 28.5275 20.9998 28.513 20.7898H28.5014C28.484 20.9998 28.2577 21.2593 28.0739 21.4892C27.9211 21.6831 27.9375 21.934 28.0043 22.1069C28.0672 22.2789 28.2732 22.5707 28.5034 22.7664H28.513ZM29.3536 22.1145C29.4638 22.2333 30.0509 22.9318 30.1302 23.1352C30.2095 23.3376 30.344 23.7234 30.1621 23.9923C29.9784 24.2613 29.5615 24.6861 29.194 24.8666C29.194 24.8666 29.5905 24.2546 29.5509 23.7519C29.5247 23.4298 29.2723 23.1437 29.2249 22.947C29.1795 22.7531 29.2114 22.4215 29.3536 22.1145ZM30.5026 21.7297C30.4117 21.8532 30.256 22.1544 30.2318 22.4471C30.2124 22.7351 30.2598 22.967 30.4204 23.3898C30.6216 23.9239 30.932 24.5178 31.0752 24.7868C31.0752 24.7868 31.3518 24.3953 31.5046 24.0465C31.5046 24.0465 31.0742 23.4611 30.8895 23.0487C30.6757 22.5621 30.5896 22.1126 30.5026 21.7297ZM30.7038 21.5044C30.7038 21.5044 30.8895 22.8776 31.7058 23.8963C32.2581 24.5863 32.7088 24.8276 33.0057 24.8276C33.4536 24.8276 33.9053 24.457 34.0571 24.0332C34.2061 23.6122 34.1596 22.9546 33.8695 22.7218C33.8695 22.7218 33.6006 23.5457 33.0251 23.5751C32.3771 23.6122 31.5404 22.8909 30.7038 21.5035" fill="white"/>
<path fill-rule="evenodd" clip-rule="evenodd" d="M31.3723 20.9307C31.3046 21.1758 31.2843 21.5522 31.3723 21.9076C31.441 22.1784 31.6083 22.5291 31.9275 22.7277C32.2041 22.8987 32.8531 22.9387 33.1026 22.3305C33.1026 22.3305 31.913 22.4188 31.3723 20.9307ZM28.5074 25.0075C28.6757 24.9267 28.8169 24.8678 29.0133 24.576C29.1612 24.348 29.3054 23.9232 29.226 23.621C29.1235 23.2475 28.9214 23.0983 28.7976 22.8655C28.698 22.9586 28.636 23.0308 28.5132 23.1002H28.5074C28.3826 23.0308 28.3198 22.9577 28.2172 22.8655C28.0915 23.0993 27.8923 23.2475 27.7888 23.621C27.7095 23.9232 27.8516 24.347 28.0016 24.576C28.195 24.8678 28.3391 24.9276 28.5074 25.0075ZM28.5074 27.3234C28.5877 26.9584 29.3595 26.2562 29.287 25.8722C29.1806 25.3002 28.8072 25.4208 28.5132 25.1795H28.5074C28.2095 25.4208 27.8323 25.3002 27.7249 25.8732C27.6572 26.2562 28.4233 26.9584 28.5035 27.3234H28.5074ZM29.4282 26.4662C29.2657 26.8796 28.6825 27.4013 28.6873 27.7244C28.697 28.5768 29.0732 29.0995 29.1641 29.3808C29.1641 29.3808 29.8557 28.8391 29.9766 28.2176C30.0414 27.8983 29.9669 26.9394 29.4282 26.4662ZM30.1991 27.0706C30.1198 26.8482 29.8663 26.2438 29.5704 26.0347C29.5704 26.0347 29.1941 24.94 30.4051 24.2643C30.4051 24.2643 30.9022 24.9172 31.0357 25.5311C31.1672 26.1488 30.5076 26.5165 30.1991 27.0706ZM31.7176 24.3033C31.9101 24.538 32.1819 24.8583 32.3985 24.959C32.3985 24.959 32.4681 25.4475 32.4304 25.7734C32.3656 26.2562 32.0532 26.7484 31.9217 27.1086C31.9217 27.1086 31.3907 26.4253 31.3278 26.0243C31.2649 25.6214 31.2794 25.2916 31.2601 25.0977C31.2601 25.0977 31.5512 24.6245 31.7176 24.3033ZM33.1094 26.6524C33.2603 26.4244 33.7468 25.5976 33.7526 24.9942C33.7526 24.9942 33.1549 25.3078 32.6539 25.0768C32.6539 25.0768 32.59 25.8618 32.6877 26.1269C32.7651 26.3417 32.8686 26.47 33.1094 26.6524ZM32.9721 26.8187C32.8205 26.689 32.6768 26.5507 32.5417 26.4044C32.5417 26.4044 32.1432 27.1209 32.0774 27.331C32.0774 27.331 32.2737 27.3823 32.4914 27.2264C32.709 27.0696 32.7564 27.0269 32.9721 26.8178M31.1382 26.3978C31.1866 26.5783 31.8259 27.4583 31.9362 27.5666C31.9362 27.5666 31.8849 27.884 31.648 28.343C31.4129 28.7992 31.085 29.1213 30.9071 29.2829C30.9071 29.2829 30.5124 28.6015 30.3944 28.3041C30.26 27.9601 30.2764 27.6227 30.3364 27.4963C30.467 27.1989 30.9322 26.7693 31.1382 26.3978ZM28.5132 31.6016C28.5732 31.3612 28.9436 31.0742 29.0955 30.6551C29.1874 30.408 29.1845 30.1201 29.0858 29.9224C28.9697 29.6906 28.5538 29.1261 28.5074 28.9636C28.4552 29.1251 28.046 29.6906 27.9271 29.9224C27.8275 30.1201 27.8255 30.409 27.9155 30.6551C28.0702 31.0742 28.4397 31.3612 28.5016 31.6016H28.5132ZM30.1759 28.6984C30.0366 28.9807 29.61 29.4454 29.5423 29.8131C29.4891 30.1001 29.5375 30.3358 29.6129 30.5382C29.6932 30.7321 29.9534 31.1208 30.1217 31.4163C30.1217 31.4163 30.7049 30.8699 30.8336 30.4812C30.9285 30.1593 30.8999 29.8144 30.7533 29.5119C30.614 29.2515 30.3103 28.9693 30.1759 28.6994M31.8337 28.6196C31.6818 28.9484 31.3181 29.2734 31.2359 29.5594C31.1382 29.8987 31.1073 30.1115 31.2717 30.5069C31.4216 30.8509 31.5948 31.0533 31.6576 31.2643C31.6576 31.2643 32.1316 30.6561 32.2089 30.4033C32.2921 30.1505 32.3134 29.7343 32.2186 29.472C32.12 29.204 31.9488 28.8619 31.8337 28.6196ZM28.5074 36.2657C28.5374 35.9692 29.1593 35.0493 29.1874 34.0734C29.2028 33.5839 28.7637 32.8218 28.5132 32.5301H28.4987C28.2511 32.8218 27.811 33.5849 27.8255 34.0734C27.8555 35.0484 28.4755 35.9692 28.5074 36.2657ZM29.4949 30.9345C29.4949 30.9345 30.3122 31.9105 30.2939 32.4284C30.2697 33.0717 29.8325 33.5022 29.7754 33.8975C29.7754 33.8975 29.346 33.4186 29.1835 33.0964C28.9997 32.7353 28.8595 32.4284 28.9117 32.0178C28.9572 31.6073 29.0645 31.346 29.4949 30.9345ZM30.9989 30.8385C30.8674 31.0257 30.5057 31.6643 30.6082 32.0416C30.7146 32.4236 31.115 32.9577 31.2485 33.1858C31.2485 33.1858 31.5706 32.5301 31.645 32.2288C31.7176 31.9314 31.6479 31.4401 30.998 30.8385" fill="white"/>
<path fill-rule="evenodd" clip-rule="evenodd" d="M29.0646 37.8308C29.1149 37.0734 29.5512 36.6182 29.6256 36.2248C29.7127 35.7905 29.6837 35.3752 29.3432 34.8753C29.1351 35.5921 28.8616 36.289 28.5259 36.9574C28.5172 36.9689 28.5133 36.9841 28.5075 36.9974C28.5008 36.9841 28.4979 36.9689 28.4882 36.9574C28.2512 36.4918 27.9494 35.8076 27.6738 34.8744C27.3333 35.3752 27.3034 35.7905 27.3875 36.2248C27.4649 36.6182 27.9001 37.0734 27.9485 37.8308C27.9968 38.591 27.1331 38.8799 27.1331 38.8799C27.4233 38.9844 27.756 39.032 28.2841 38.5369C28.3808 38.4475 28.4524 38.3487 28.5075 38.2442C28.5636 38.3487 28.6362 38.4475 28.7319 38.5369C29.2562 39.031 29.5918 38.9844 29.8829 38.8799C29.8829 38.8799 29.0173 38.591 29.0646 37.8308ZM26.3468 32.7847C26.4358 33.0698 26.7046 33.5943 26.7395 33.754C26.8043 34.0552 26.7163 34.4192 26.162 34.806C26.162 34.806 25.8032 34.557 25.6601 34.232C25.5285 33.925 25.6049 33.7074 25.7423 33.5506C25.8815 33.3929 26.2085 33.0241 26.3458 32.7847M27.5113 33.9089C27.5113 34.0609 27.3972 34.92 27.1515 35.3486C26.8043 35.9473 26.2945 36.3901 25.8487 36.3901C25.4366 36.3901 25.3476 36.1459 25.1445 36.048C25.1445 36.048 25.248 35.5272 25.7123 35.3923C26.2829 35.2222 27.1573 34.5465 27.5113 33.9089Z" fill="white"/>
<path fill-rule="evenodd" clip-rule="evenodd" d="M26.0219 35.0035C25.9271 34.9294 25.843 34.8819 25.7288 34.7498C25.7288 34.7498 25.2897 34.9094 24.927 35.1508C24.5643 35.3922 24.2084 35.8036 24.0178 36.0175C24.0178 36.0175 24.5595 36.1553 24.9048 36.0004C24.9048 36.0004 25.0286 35.4872 25.4164 35.2572C25.5015 35.2088 25.7723 35.1289 26.0219 35.0035ZM25.5731 34.5645C25.4861 34.4352 25.3149 34.1967 25.3516 33.8223C25.3516 33.8223 24.5875 34.3031 24.3651 34.4808C24.1329 34.668 23.6551 35.1536 23.5487 35.3142C23.5487 35.3142 24.1271 35.1879 24.5711 35.0406C25.0556 34.8819 25.3913 34.668 25.5741 34.5645M24.2799 35.3789C23.8698 35.5262 22.9432 35.6716 22.5583 35.7856C22.1714 35.8996 21.8909 36.0963 21.5214 36.4945C21.5214 36.4945 22.0892 36.6523 22.3929 36.7454C22.3929 36.7454 22.8746 36.4223 23.4027 36.2208C23.748 36.0897 23.9153 35.7343 24.2799 35.3789ZM23.4191 38.0777C23.5081 37.9798 23.6203 37.8687 23.5342 37.6425C23.4742 37.4743 23.1386 37.2937 22.9394 37.1977C22.6076 37.0409 21.6878 36.7967 21.386 36.7093C21.386 36.7093 21.2361 36.8822 21.1587 37.0647C21.1239 37.135 21.1694 37.2082 21.3 37.231C21.5563 37.2747 22.1704 37.1607 22.3233 37.2576C22.4819 37.3621 22.4239 37.5009 22.4239 37.6425C22.4239 37.6425 22.7063 37.4695 22.8823 37.5094C23.1299 37.5608 23.2789 37.6767 23.4191 38.0777ZM22.6009 36.811C22.6666 36.8338 23.0264 36.9412 23.3756 37.1597C23.3756 37.1597 23.5303 37.1008 23.6077 36.9602C23.6812 36.8252 23.9946 36.3653 24.2857 36.3045C24.2857 36.3045 24.0391 36.2807 23.8969 36.236C23.8969 36.236 23.599 36.3121 23.3872 36.3976C23.1754 36.4831 22.9123 36.6124 22.6009 36.811ZM24.9734 36.2303C24.9183 36.256 24.8235 36.3016 24.6078 36.3111C24.6078 36.3111 23.8002 36.8642 23.7054 37.4192C23.6261 37.8905 23.8776 38.1176 23.9985 38.1756C24.1194 38.2383 24.6852 38.4673 25.0527 37.7176C25.0527 37.7176 24.426 37.9209 24.2558 37.6244C24.0865 37.3251 24.3641 36.8927 24.5343 36.7682C24.7558 36.601 25.1582 36.4917 25.4 36.5325C25.4 36.5325 25.2046 36.3482 24.9725 36.2303" fill="white"/>
<path fill-rule="evenodd" clip-rule="evenodd" d="M19.6782 42.5774C19.7759 42.1688 19.8861 41.7431 20.0738 41.3496C20.4394 40.5837 21.335 38.5481 23.2027 38.187C23.3787 38.1547 23.0006 37.7233 22.8352 37.747C22.6659 37.7651 22.3332 37.9799 22.1871 38.0777C22.1871 38.0777 22.1871 37.6425 22.1813 37.5636C22.1775 37.4819 22.1069 37.4581 22.0343 37.4591C21.9618 37.461 21.512 37.4582 21.3669 37.6188C20.9414 38.1072 20.2227 39.4186 19.8155 40.3936C19.4074 41.3696 19.1307 41.6708 18.7003 41.5197C18.2709 41.3696 18.0136 40.8821 17.265 41.0294C17.0048 41.0826 16.7156 41.2546 16.4912 41.5083C16.5531 41.6281 16.6334 41.7735 16.9845 41.7735C17.3337 41.7735 18.001 41.9179 18.3744 42.1764C18.7497 42.4349 19.1414 42.5185 19.6782 42.5774ZM27.1364 36.2627C27.1789 36.5782 27.3337 36.8737 27.5039 37.1797C27.5039 37.1797 26.9332 39.774 24.8799 39.9755C24.8799 39.9755 24.9195 39.4386 25.5279 39.0281C26.1372 38.6194 27.0474 37.9818 26.9826 37.0172C26.9826 37.0172 26.8201 37.0505 26.528 37.4125C26.2359 37.7736 25.5946 38.818 24.6003 38.8256C24.6003 38.8256 24.7493 38.3372 25.1884 38.0549C25.6285 37.7737 26.1866 37.4125 26.44 36.9763C26.6934 36.543 26.9603 36.3425 27.1364 36.2617M26.1672 45.7163L27.4188 47.4496L28.3667 45.7809L28.032 45.187C27.7834 45.6241 27.5184 46.0974 27.3675 46.3568C27.2505 46.1981 26.9342 45.759 26.5202 45.187L26.1672 45.7163Z" fill="white"/>
<path fill-rule="evenodd" clip-rule="evenodd" d="M25.848 44.2489C24.6265 42.5602 23.1205 40.4695 22.9667 40.2576L23.4397 39.9212L21.9492 39.3558L21.9753 40.9646L22.4792 40.6045L25.4931 44.781L25.848 44.2489ZM15.5559 34.761C15.9235 34.3638 16.5464 34.7078 17.176 35.2809C17.8095 35.8548 18.2051 36.4421 17.8395 36.8384C17.4962 37.2062 16.8481 36.8916 16.2127 36.3205C15.5811 35.7456 15.1835 35.1573 15.5559 34.7601" fill="white"/>
<path fill-rule="evenodd" clip-rule="evenodd" d="M16.5726 41.8163C16.5517 41.801 16.5317 41.7845 16.5127 41.7669C16.178 41.478 15.9875 41.0295 15.9875 40.541C15.9875 39.6031 16.7574 38.8391 17.7091 38.8391C18.657 38.8391 19.4259 39.6031 19.4259 40.541C19.4259 40.6684 19.4017 40.8755 19.4017 40.8755C19.4801 40.7311 19.7625 40.0811 19.8196 39.9604C19.6919 39.5059 19.4165 39.1049 19.0353 38.8186C18.6541 38.5322 18.188 38.3762 17.7081 38.3744C16.8425 38.3744 16.0929 38.8723 15.736 39.5945C15.8704 38.7345 16.3028 37.9629 16.6084 37.6778C16.976 37.3366 17.5979 37.2264 17.5979 37.2264C17.1887 37.2929 16.65 37.0439 16.0484 36.4947C15.4758 35.9777 15.1837 35.5244 15.1653 35.1452C15.2002 35.6802 15.1847 35.9796 15.0299 36.4148C14.8229 37.0069 14.2562 38.1007 14.4593 39.3361C14.5695 40.0146 15.0667 41.0228 15.8985 41.8477C16.0755 42.0321 16.1403 42.3067 16.1625 42.4473C16.1625 42.4473 17.387 42.4474 17.6772 42.4759C17.6772 42.4759 17.9693 42.4473 17.9644 42.2696C17.9615 42.0891 17.8 42.0435 17.653 42.0435C17.5079 42.0435 16.8986 42.0587 16.5726 41.8163ZM23.3518 42.2297C22.5626 42.5091 21.7753 42.6612 21.0305 42.7743C20.562 42.8462 20.0873 42.8716 19.6135 42.8503C19.6266 42.9338 19.6137 43.0192 19.5768 43.0955C19.5768 43.0955 19.6696 43.2019 19.6696 43.3188C20.131 43.3359 20.6117 43.3093 21.1011 43.2332C21.9194 43.1097 22.7744 42.9482 23.6381 42.6251L23.3518 42.2297ZM24.6421 42.1689C25.6896 41.6063 26.709 40.733 27.6308 39.3408L27.7952 39.0681C27.5428 39.1793 27.2216 39.0985 27.2216 39.0985C27.2023 39.1232 27.1636 39.1859 27.1443 39.223C26.2854 40.4755 25.3346 41.2642 24.3645 41.7812L24.6421 42.1689ZM17.7478 42.6137C17.6037 42.5899 17.1443 42.6032 16.8696 42.6422C16.5668 42.6906 16.2244 42.7505 16.1877 42.9158C16.1548 43.0726 16.2631 43.238 16.4159 43.4746C16.5098 43.621 16.7351 43.5364 16.8589 43.4908C16.9827 43.4461 17.6907 43.0707 17.802 42.9491C17.918 42.8246 17.9645 42.6498 17.7478 42.6137ZM18.4674 43.0745C18.4004 43.0346 18.3252 43.0097 18.2473 43.0018C18.1693 42.9939 18.0905 43.0032 18.0167 43.0289C17.8232 43.0993 17.1268 43.505 17.0824 43.6979C17.034 43.888 17.1307 43.9811 17.2381 44.0249C17.3454 44.0676 17.476 44.1085 17.5737 44.118C17.6564 44.1202 17.7385 44.1038 17.8138 44.07C17.8891 44.0363 17.9555 43.986 18.008 43.9232C18.096 43.8139 18.4239 43.4252 18.4674 43.3359C18.5148 43.2504 18.5399 43.123 18.4674 43.0745ZM18.5535 43.5022C18.4077 43.6655 18.2686 43.8344 18.1366 44.0087C18.1047 44.0638 18.154 44.1512 18.243 44.1408C18.3291 44.1313 18.8108 44.0838 19.0864 43.8985C19.3611 43.7113 19.5458 43.3511 19.3553 43.2218C19.1657 43.0917 18.8698 43.1525 18.5525 43.5022M18.7092 42.4683C18.6164 42.4473 18.2527 42.358 18.1772 42.4759C18.0766 42.6222 18.1463 42.78 18.4287 42.9158C18.7092 43.047 19.2392 43.1544 19.3476 43.0118C19.4482 42.8645 19.304 42.6222 18.7092 42.4683ZM30.6688 32.7847C30.5779 33.0698 30.31 33.5943 30.2732 33.754C30.2103 34.0552 30.2955 34.4192 30.8516 34.806C30.8516 34.806 31.2095 34.557 31.3526 34.232C31.4871 33.925 31.4106 33.7074 31.2714 33.5506C31.1321 33.3929 30.8081 33.0241 30.6688 32.7847ZM29.5004 33.9089C29.5004 34.0609 29.6136 34.92 29.8631 35.3486C30.2103 35.9473 30.7191 36.3901 31.165 36.3901C31.5789 36.3901 31.6679 36.1459 31.8691 36.048C31.8691 36.048 31.7656 35.5272 31.2994 35.3923C30.7317 35.2222 29.8563 34.5465 29.5004 33.9089Z" fill="white"/>
<path fill-rule="evenodd" clip-rule="evenodd" d="M30.9922 35.0035C31.0879 34.9294 31.1673 34.8819 31.2824 34.7498C31.2824 34.7498 31.7253 34.9094 32.088 35.1508C32.4478 35.3922 32.8009 35.8036 32.9972 36.0175C32.9972 36.0175 32.4527 36.1553 32.1074 36.0004C32.1074 36.0004 31.9826 35.4872 31.5948 35.2572C31.5125 35.2088 31.2417 35.1289 30.9922 35.0035ZM31.441 34.5645C31.5261 34.4352 31.6992 34.1967 31.6596 33.8223C31.6596 33.8223 32.4217 34.3031 32.651 34.4808C32.8821 34.668 33.358 35.1536 33.4654 35.3142C33.4654 35.3142 32.886 35.1879 32.443 35.0406C31.9575 34.8819 31.6218 34.668 31.441 34.5645ZM32.7341 35.3789C33.1462 35.5262 34.066 35.6716 34.4558 35.7856C34.8427 35.8996 35.1241 36.0963 35.4936 36.4945C35.4936 36.4945 34.9229 36.6523 34.6231 36.7454C34.6231 36.7454 34.1395 36.4223 33.6095 36.2208C33.2671 36.0897 33.0968 35.7343 32.7341 35.3789ZM33.594 38.0777C33.506 37.9798 33.3938 37.8687 33.4779 37.6425C33.5389 37.4743 33.8745 37.2937 34.0776 37.1977C34.4094 37.0409 35.3282 36.7967 35.6271 36.7093C35.6271 36.7093 35.776 36.8822 35.8563 37.0647C35.8902 37.135 35.8418 37.2082 35.7161 37.231C35.4578 37.2747 34.8427 37.1607 34.6908 37.2576C34.5303 37.3621 34.5873 37.5009 34.5873 37.6425C34.5873 37.6425 34.3088 37.4695 34.1269 37.5094C33.8851 37.5608 33.7323 37.6767 33.594 38.0777ZM34.4132 36.811C34.3455 36.8338 33.9876 36.9412 33.6375 37.1597C33.6375 37.1597 33.4828 37.1008 33.4054 36.9602C33.3328 36.8252 33.0185 36.3653 32.7283 36.3045C32.7283 36.3045 32.974 36.2807 33.1143 36.236C33.1143 36.236 33.4141 36.3121 33.6288 36.3976C33.8406 36.4831 34.1047 36.6124 34.4123 36.811M32.0377 36.2303C32.0938 36.256 32.1886 36.3016 32.4024 36.3111C32.4024 36.3111 33.2129 36.8642 33.3058 37.4192C33.3909 37.8905 33.1375 38.1176 33.0146 38.1756C32.8918 38.2383 32.3279 38.4673 31.9613 37.7176C31.9613 37.7176 32.5862 37.9209 32.7574 37.6244C32.9266 37.3251 32.651 36.8927 32.4817 36.7682C32.2583 36.601 31.8569 36.4917 31.6112 36.5325C31.6112 36.5325 31.8066 36.3482 32.0377 36.2303Z" fill="white"/>
<path fill-rule="evenodd" clip-rule="evenodd" d="M37.3353 42.5774C37.2366 42.1688 37.1303 41.7431 36.9407 41.3496C36.577 40.5837 35.6804 38.5481 33.8088 38.187C33.6347 38.1547 34.01 37.7233 34.1822 37.747C34.3485 37.7651 34.6813 37.9799 34.8302 38.0777C34.8302 38.0777 34.8302 37.6425 34.8331 37.5636C34.838 37.4819 34.9066 37.4581 34.9782 37.4591C35.0507 37.461 35.5024 37.4582 35.6436 37.6188C36.0721 38.1072 36.7908 39.4186 37.1989 40.3936C37.6071 41.3696 37.8856 41.6708 38.3122 41.5197C38.7436 41.3696 39.0037 40.8821 39.7495 41.0294C40.0106 41.0826 40.2969 41.2546 40.5261 41.5083C40.4613 41.6281 40.3801 41.7735 40.0329 41.7735C39.6789 41.7735 39.0105 41.9179 38.6401 42.1764C38.2648 42.4349 37.874 42.5185 37.3353 42.5774ZM29.8742 36.2627C29.8355 36.5782 29.6798 36.8737 29.5115 37.1797C29.5115 37.1797 30.0793 39.774 32.1375 39.9755C32.1375 39.9755 32.094 39.4386 31.4866 39.0281C30.8753 38.6194 29.9651 37.9818 30.0309 37.0172C30.0309 37.0172 30.1934 37.0505 30.4845 37.4125C30.7805 37.7736 31.4218 38.818 32.4122 38.8256C32.4122 38.8256 32.2671 38.3372 31.8261 38.0549C31.3869 37.7737 30.826 37.4125 30.5735 36.9763C30.322 36.543 30.0561 36.3425 29.8742 36.2617M28.5104 38.7791C28.6323 39.1231 29.408 40.2112 29.7485 40.52C30.0909 40.8298 30.9198 41.6509 31.3637 42.0614C31.3637 42.0614 30.1005 41.7516 29.3896 41.114C29.3896 41.114 28.8838 41.4038 28.5153 41.4038H28.4979C28.1284 41.4038 27.6225 41.114 27.6225 41.114C26.9126 41.7507 25.6514 42.0614 25.6514 42.0614C26.0934 41.6509 26.9223 40.8298 27.2627 40.52C27.6061 40.2112 28.3847 39.1231 28.5037 38.7791H28.5104Z" fill="white"/>
<path fill-rule="evenodd" clip-rule="evenodd" d="M28.5137 41.6602C28.7932 41.6602 29.0573 41.55 29.2072 41.4863C29.0573 41.7971 28.7768 42.2798 28.5079 42.4794H28.504C28.2342 42.2798 27.9537 41.7971 27.8076 41.4863C27.9537 41.55 28.2177 41.6593 28.4982 41.6593H28.5137" fill="white"/>
<path fill-rule="evenodd" clip-rule="evenodd" d="M29.5956 47.4497L34.5342 40.6056L35.0372 40.9648L35.0672 39.356L33.5709 39.9214L34.0458 40.2587L29.6459 46.3568L27.4097 42.3485L27.1331 42.7666L25.1426 45.741L24.6435 45.4113L24.6377 46.9935L26.1485 46.4015L25.6417 46.0689C25.9164 45.6584 26.9967 44.0476 27.3565 43.505L29.5956 47.4487" fill="white"/>
<path fill-rule="evenodd" clip-rule="evenodd" d="M30.4957 44.7611C30.1621 44.2641 29.8274 43.7623 29.6562 43.5048C29.5314 43.7357 29.278 44.1871 28.9937 44.686L28.6406 44.0607L29.602 42.3483L29.8806 42.7664L30.8691 44.2441L30.4957 44.7611ZM31.5161 45.2058L31.8711 45.7408L32.3683 45.4111L32.3779 46.9933L30.8652 46.4013L31.3701 46.0687C31.3179 45.9908 31.2415 45.8691 31.1409 45.7218L31.5161 45.2058ZM41.4581 34.761C41.0906 34.3638 40.4667 34.7078 39.8332 35.2809C39.2036 35.8548 38.807 36.4421 39.1745 36.8384C39.516 37.2062 40.1708 36.8916 40.8014 36.3205C41.4301 35.7456 41.8286 35.1573 41.4591 34.7601" fill="white"/>
<path fill-rule="evenodd" clip-rule="evenodd" d="M40.4423 41.8166C40.4645 41.7995 40.481 41.7843 40.5003 41.7672C40.835 41.4783 41.0294 41.0298 41.0294 40.5413C41.0294 39.6034 40.2566 38.8393 39.3077 38.8393C38.3579 38.8393 37.588 39.6034 37.588 40.5413C37.588 40.6687 37.6132 40.8758 37.6132 40.8758C37.5358 40.7314 37.2505 40.0814 37.1944 39.9607C37.3212 39.5056 37.5966 39.1039 37.9782 38.8174C38.3598 38.5309 38.8265 38.3754 39.3068 38.3746C40.1724 38.3746 40.922 38.8726 41.277 39.5948C41.1416 38.7348 40.7141 37.9632 40.4065 37.6781C40.0399 37.3369 39.417 37.2267 39.417 37.2267C39.8242 37.2932 40.363 37.0442 40.9665 36.4949C41.5372 35.978 41.8341 35.5247 41.8486 35.1455C41.8138 35.6805 41.8293 35.9799 41.9811 36.4151C42.19 37.0072 42.7588 38.101 42.5576 39.3363C42.4463 40.0149 41.9482 41.0231 41.1193 41.848C40.9404 42.0324 40.8737 42.307 40.8543 42.4476C40.8543 42.4476 39.6269 42.4476 39.3348 42.4761C39.3348 42.4761 39.0456 42.4476 39.0505 42.2699C39.0563 42.0894 39.2149 42.0438 39.3629 42.0438C39.5051 42.0438 40.1173 42.059 40.4423 41.8166ZM32.369 42.1673C31.3244 41.6019 30.3049 40.7333 29.3832 39.3411L29.2178 39.0674C29.4712 39.1786 29.7933 39.0997 29.7933 39.0997C29.8126 39.1235 29.8503 39.1862 29.8687 39.2233C30.7276 40.4739 31.6784 41.2655 32.6485 41.7815L32.369 42.1673ZM33.6611 42.2281C34.4514 42.5094 35.2377 42.6615 35.9825 42.7745C36.4709 42.8468 36.9468 42.8734 37.3994 42.8506C37.3873 42.9343 37.4007 43.0196 37.4381 43.0957C37.4381 43.0957 37.3482 43.2022 37.3482 43.3191C36.8829 43.3362 36.4051 43.3096 35.9109 43.2335C35.1004 43.11 34.2376 42.9484 33.3778 42.6234L33.6611 42.2281ZM39.2662 42.6139C39.4122 42.5902 39.8726 42.6035 40.1463 42.6424C40.4471 42.6909 40.7905 42.7508 40.8272 42.9161C40.8601 43.0729 40.7518 43.2383 40.6009 43.4749C40.5032 43.6213 40.2788 43.5367 40.1579 43.4911C40.0322 43.4464 39.3242 43.071 39.2091 42.9494C39.0988 42.8249 39.0505 42.65 39.2662 42.6139ZM38.5436 43.0748C38.6114 43.035 38.6872 43.0102 38.7658 43.0023C38.8443 42.9944 38.9237 43.0036 38.9982 43.0292C39.1897 43.0995 39.8852 43.5053 39.9335 43.6982C39.979 43.8883 39.8832 43.9814 39.7749 44.0251C39.6685 44.0679 39.537 44.1088 39.4402 44.1183C39.3578 44.1203 39.2761 44.1037 39.2011 44.07C39.1262 44.0362 39.0601 43.9861 39.0079 43.9235C38.917 43.8142 38.5949 43.4255 38.5436 43.3362C38.4991 43.2506 38.4759 43.1233 38.5436 43.0748ZM38.4624 43.5025C38.562 43.6156 38.8454 43.952 38.8773 44.009C38.9122 44.0641 38.8599 44.1515 38.7719 44.1411C38.6829 44.1316 38.2051 44.0841 37.9295 43.8987C37.6538 43.7115 37.471 43.3514 37.6615 43.2221C37.8463 43.0919 38.1432 43.1528 38.4624 43.5025ZM38.3067 42.4685C38.3976 42.4476 38.7613 42.3583 38.8386 42.4761C38.9354 42.6225 38.8657 42.7802 38.5843 42.9161C38.3067 43.0473 37.7747 43.1547 37.6693 43.0121C37.5658 42.8648 37.7118 42.6225 38.3067 42.4685Z" fill="white"/>
<mask id="mask0_2_1094" style="mask-type:alpha" maskUnits="userSpaceOnUse" x="0" y="0" width="118" height="57">
<path d="M0 56.4074H117.695V0.0258789H0V56.4074Z" fill="white"/>
</mask>
<g mask="url(#mask0_2_1094)">
<path fill-rule="evenodd" clip-rule="evenodd" d="M60.6797 56.3815H117.695V0H60.6797V56.3815Z" fill="#CC003D"/>
<path fill-rule="evenodd" clip-rule="evenodd" d="M106.609 17.8837C106.614 17.6347 106.661 15.8843 106.665 15.6486H107.096C108.762 15.6486 109.041 15.9394 109.196 17.8847H106.609V17.8837ZM111.348 16.9125C111.087 14.7363 110.054 13.6035 107.613 13.6035H104.508L104.086 25.9005H106.348C106.348 25.9005 106.557 20.1967 106.569 19.9269L109.427 19.9297C109.453 20.1777 109.882 25.8995 109.882 25.8995H112.216C112.216 25.8995 111.414 17.4523 111.349 16.9125H111.348ZM79.161 34.7715C79.1659 34.5226 79.2123 32.7721 79.2162 32.5355L79.6224 32.5108C81.2879 32.5108 81.5926 32.8272 81.7474 34.7725H79.161V34.7715ZM83.9004 33.8003C83.6392 31.6241 82.6043 30.4904 80.164 30.4904H77.0593L76.6376 42.7873H78.8999C78.8999 42.7873 79.1078 37.0836 79.1204 36.8137L81.9785 36.8166C82.0046 37.0656 82.4331 42.7873 82.4331 42.7873H84.768C84.768 42.7873 83.9652 34.3401 83.8994 33.8003H83.9004ZM66.9258 13.6035V25.8967H69.2123V15.6476H72.0452V25.8967H74.3346V13.6035H66.9258ZM91.1119 17.8847H89.8671C89.3526 17.8847 88.9705 17.7706 88.7277 17.5416C88.5556 17.3819 88.4714 17.1653 88.4714 16.884V13.6035H86.1791V17.113C86.1791 17.9227 86.5041 18.6069 87.1425 19.1505C87.7721 19.6883 88.544 19.9601 89.4386 19.9601H91.1119V25.8967H93.4003V13.6035H91.1119V17.8847ZM95.9335 13.6035V15.6476H97.8331V25.8967H100.149V15.6476H102.048V13.6035H95.9335ZM92.5763 30.4904V34.4199H89.4386V30.4904H87.156V42.7892H89.4386V36.464H92.5772V42.7892H94.8599V30.4904H92.5763ZM69.9928 40.8858C69.7704 40.8858 69.2123 40.8345 69.2123 40.8345V36.5068C69.2123 36.5068 69.3912 36.465 69.5885 36.465C70.7482 36.465 72.1188 36.3985 72.1188 38.6735C72.1188 40.7584 70.6128 40.8858 69.9928 40.8858ZM70.2704 34.514C69.8758 34.514 69.5256 34.5235 69.2123 34.5378V32.5355H73.3152V30.4914H66.9258V42.7845H70.3961C73.8559 42.7845 74.3917 39.7435 74.3917 38.6174C74.3917 37.2851 73.8597 34.514 70.2704 34.514ZM78.7654 19.772C78.7848 16.443 79.6166 15.3483 80.4938 15.3321C81.3701 15.3483 82.2019 16.444 82.2213 19.771V19.772C82.2019 23.022 81.3701 24.1319 80.4938 24.149C79.6166 24.1319 78.7848 23.022 78.7654 19.772M84.4991 19.3158C84.4594 17.5577 84.1538 16.2976 83.6808 15.4025C82.9361 13.8725 81.7474 13.3023 80.5209 13.2871L80.5132 13.2861H80.4658C79.2394 13.3013 78.0516 13.8725 77.3059 15.4025C76.832 16.2976 76.5273 17.5577 76.4877 19.3158L76.4828 19.7149V19.714C76.4847 20.8097 76.6086 21.8712 76.8484 22.7274C77.4771 25.2457 78.9279 26.1371 80.4416 26.1646L80.4735 26.1656H80.5132L80.5451 26.1646C82.0588 26.1371 83.5096 25.2466 84.1383 22.7274C84.3801 21.8721 84.5029 20.8097 84.5039 19.714L84.4991 19.3158M106.249 42.7854L103.497 35.5793C104.069 35.1583 104.513 34.3525 104.711 33.5494C104.903 32.7702 105.156 30.4904 105.156 30.4904H102.905C102.869 31.0928 102.824 31.6947 102.772 32.296C102.668 33.4706 102.317 34.5549 101.102 34.5549H100.164C100.162 34.457 100.164 30.4904 100.164 30.4904H97.8756V42.7892H100.164V36.5448C100.164 36.5448 101.374 36.5467 101.545 36.5448L103.793 42.7854H106.25H106.249Z" fill="white"/>
</g>
</svg>
