<svg class="basket" width="18" height="18" viewBox="0 0 18 18" fill="none" xmlns="http://www.w3.org/2000/svg">
<path d="M6.47662 0.580606C6.54001 0.618846 6.5953 0.669292 6.63934 0.729062C6.68337 0.788833 6.71528 0.856757 6.73325 0.928954C6.75122 1.00115 6.75489 1.07621 6.74406 1.14984C6.73323 1.22346 6.70811 1.29422 6.67013 1.35807L3.80587 6.16676H14.1941L11.3287 1.35807C11.2521 1.22912 11.2294 1.07477 11.2657 0.928964C11.302 0.783162 11.3942 0.657854 11.5222 0.580606C11.6502 0.503358 11.8035 0.480498 11.9482 0.517055C12.0929 0.553611 12.2173 0.64659 12.294 0.775538L15.5059 6.16676H17.4375C17.5867 6.16676 17.7298 6.22646 17.8352 6.33273C17.9407 6.439 18 6.58313 18 6.73342V7.86675C18 8.01703 17.9407 8.16117 17.8352 8.26744C17.7298 8.37371 17.5867 8.43341 17.4375 8.43341H0.5625C0.413316 8.43341 0.270242 8.37371 0.164752 8.26744C0.0592632 8.16117 0 8.01703 0 7.86675V6.73342C0 6.58313 0.0592632 6.439 0.164752 6.33273C0.270242 6.22646 0.413316 6.16676 0.5625 6.16676H2.49412L5.70375 0.775538C5.74171 0.711679 5.79178 0.65598 5.85112 0.611622C5.91045 0.567264 5.97787 0.535115 6.04954 0.517013C6.12121 0.498911 6.19571 0.495211 6.2688 0.506122C6.34189 0.517033 6.41212 0.542343 6.4755 0.580606H6.47662ZM3.81825 16.3667L2.15325 9.56673H1.062L2.77763 16.8495C2.82205 17.0349 2.92709 17.1998 3.07584 17.3178C3.2246 17.4358 3.40842 17.5 3.59775 17.5H14.4045C14.594 17.5002 14.7781 17.4362 14.9271 17.3182C15.0761 17.2002 15.1813 17.0351 15.2257 16.8495L16.938 9.56673H15.8445L14.1806 16.3667H3.81938H3.81825Z" fill="#FF5707"/>
</svg>
