<svg width="8" height="7" viewBox="0 0 8 7" fill="none" xmlns="http://www.w3.org/2000/svg">
<path fill-rule="evenodd" clip-rule="evenodd" d="M7 0.499997C7.22853 0.728529 7.22853 1.09905 7 1.32758L4.82759 3.49999L7 5.67241C7.22853 5.90094 7.22853 6.27146 7 6.49999C6.77147 6.72852 6.40094 6.72852 6.17241 6.49999L4 4.32758L1.82759 6.49999C1.59906 6.72852 1.22853 6.72852 1 6.49999C0.771471 6.27146 0.771472 5.90094 1 5.67241L3.17241 3.49999L1 1.32758C0.771471 1.09905 0.771471 0.728529 1 0.499997C1.22853 0.271466 1.59906 0.271466 1.82759 0.499997L4 2.67241L6.17241 0.499997C6.40094 0.271466 6.77147 0.271466 7 0.499997Z" fill="white" fill-opacity="0.7"/>
</svg>
