<svg width="24" height="24" viewBox="0 0 24 24" fill="none" xmlns="http://www.w3.org/2000/svg">
<path fill-rule="evenodd" clip-rule="evenodd" d="M12 3.25C7.98851 3.25 4.75 6.46601 4.75 10.4167C4.75 12.8629 6.21128 15.4619 7.96856 17.5046C8.83605 18.513 9.74629 19.351 10.5233 19.9302C10.9124 20.2203 11.2561 20.4365 11.5342 20.5765C11.673 20.6464 11.7861 20.6926 11.8732 20.7203C11.9559 20.7465 11.9952 20.7496 11.9997 20.75C12.0002 20.75 12.0003 20.75 12 20.75C11.9997 20.75 11.9998 20.75 12.0003 20.75C12.0048 20.7496 12.0441 20.7465 12.1268 20.7203C12.2139 20.6926 12.327 20.6464 12.4658 20.5765C12.7439 20.4365 13.0876 20.2203 13.4767 19.9302C14.2537 19.351 15.164 18.513 16.0314 17.5046C17.7887 15.4619 19.25 12.8629 19.25 10.4167C19.25 6.46601 16.0115 3.25 12 3.25ZM3.25 10.4167C3.25 5.62281 7.17493 1.75 12 1.75C16.8251 1.75 20.75 5.62281 20.75 10.4167C20.75 13.3982 19.0113 16.3409 17.1686 18.4829C16.236 19.5669 15.2463 20.482 14.3733 21.1328C13.9374 21.4577 13.5186 21.7258 13.1405 21.9162C12.786 22.0947 12.3812 22.25 12 22.25C11.6188 22.25 11.214 22.0947 10.8595 21.9162C10.4814 21.7258 10.0626 21.4577 9.62674 21.1328C8.75371 20.482 7.76395 19.5669 6.83144 18.4829C4.98872 16.3409 3.25 13.3982 3.25 10.4167ZM8.25 10C8.25 7.92893 9.92893 6.25 12 6.25C14.0711 6.25 15.75 7.92893 15.75 10C15.75 12.0711 14.0711 13.75 12 13.75C9.92893 13.75 8.25 12.0711 8.25 10ZM12 7.75C10.7574 7.75 9.75 8.75736 9.75 10C9.75 11.2426 10.7574 12.25 12 12.25C13.2426 12.25 14.25 11.2426 14.25 10C14.25 8.75736 13.2426 7.75 12 7.75Z" fill="#167FE1"/>
</svg>
