<svg width="25" height="25" viewBox="0 0 25 25" fill="none" xmlns="http://www.w3.org/2000/svg">
<path fill-rule="evenodd" clip-rule="evenodd" d="M12.25 3.75C8.23851 3.75 5 6.96601 5 10.9167C5 13.3629 6.46128 15.9619 8.21856 18.0046C9.08605 19.013 9.99629 19.851 10.7733 20.4302C11.1624 20.7203 11.5061 20.9365 11.7842 21.0765C11.923 21.1464 12.0361 21.1926 12.1232 21.2203C12.2059 21.2465 12.2452 21.2496 12.2497 21.25C12.2502 21.25 12.2503 21.25 12.25 21.25C12.2497 21.25 12.2498 21.25 12.2503 21.25C12.2548 21.2496 12.2941 21.2465 12.3768 21.2203C12.4639 21.1926 12.577 21.1464 12.7158 21.0765C12.9939 20.9365 13.3376 20.7203 13.7267 20.4302C14.5037 19.851 15.414 19.013 16.2814 18.0046C18.0387 15.9619 19.5 13.3629 19.5 10.9167C19.5 6.96601 16.2615 3.75 12.25 3.75ZM3.5 10.9167C3.5 6.12281 7.42493 2.25 12.25 2.25C17.0751 2.25 21 6.12281 21 10.9167C21 13.8982 19.2613 16.8409 17.4186 18.9829C16.486 20.0669 15.4963 20.982 14.6233 21.6328C14.1874 21.9577 13.7686 22.2258 13.3905 22.4162C13.036 22.5947 12.6312 22.75 12.25 22.75C11.8688 22.75 11.464 22.5947 11.1095 22.4162C10.7314 22.2258 10.3126 21.9577 9.87674 21.6328C9.00371 20.982 8.01395 20.0669 7.08144 18.9829C5.23872 16.8409 3.5 13.8982 3.5 10.9167ZM8.5 10.5C8.5 8.42893 10.1789 6.75 12.25 6.75C14.3211 6.75 16 8.42893 16 10.5C16 12.5711 14.3211 14.25 12.25 14.25C10.1789 14.25 8.5 12.5711 8.5 10.5ZM12.25 8.25C11.0074 8.25 10 9.25736 10 10.5C10 11.7426 11.0074 12.75 12.25 12.75C13.4926 12.75 14.5 11.7426 14.5 10.5C14.5 9.25736 13.4926 8.25 12.25 8.25Z" fill="#FF5707"/>
</svg>
