<svg width="106" height="81" viewBox="0 0 106 81" fill="none" xmlns="http://www.w3.org/2000/svg">
<path d="M0 0H13.25V47.1066H0V0Z" fill="white"/>
<path d="M92.7496 0H106V47.1066H92.7496V0Z" fill="white"/>
<path fill-rule="evenodd" clip-rule="evenodd" d="M28.2283 0H14.9783V11.4891H28.8044C31.6678 11.4891 33.9891 13.8039 33.9891 16.6594C33.9891 19.5148 31.6678 21.8296 28.8044 21.8296H14.9783V33.3193H28.2283C37.4551 33.3193 44.9348 25.8605 44.9348 16.6596C44.9348 7.45877 37.4551 0 28.2283 0Z" fill="white"/>
<path fill-rule="evenodd" clip-rule="evenodd" d="M77.7718 13.7874H91.0219V25.2768H77.1958C74.3323 25.2768 72.011 27.5916 72.011 30.4471C72.011 33.3025 74.3323 35.6173 77.1958 35.6173H91.0219V47.1067H77.7718C68.5451 47.1067 61.0653 39.6479 61.0653 30.447C61.0653 21.2462 68.5451 13.7874 77.7718 13.7874Z" fill="white"/>
<path d="M29.9565 35.6171H14.9783V47.1066H29.9565C31.1087 47.1066 37.4457 46.8193 42.9185 43.3725C48.3913 39.9257 49.5435 39.3512 54.1522 33.032C58.7609 26.7129 59.337 22.1171 64.2337 16.9469C69.1304 11.7766 74.8913 11.4894 76.0435 11.4894H91.0217V0H76.0435C74.8913 0 69.7065 0.287235 64.5217 2.87235C59.337 5.45747 56.4565 8.04258 52.712 13.2128C48.9674 18.383 48.3913 22.6916 42.9185 29.0107C37.4457 35.3299 31.1087 35.6171 29.9565 35.6171Z" fill="white"/>
<path d="M0 69.2812V53.0727H6.5139C7.76616 53.0727 8.833 53.3075 9.71442 53.7771C10.5958 54.2414 11.2676 54.8877 11.7299 55.7161C12.1974 56.5392 12.4312 57.4889 12.4312 58.5652C12.4312 59.6416 12.1948 60.5913 11.7218 61.4144C11.2488 62.2375 10.5636 62.8785 9.66605 63.3376C8.77388 63.7966 7.6936 64.0261 6.42522 64.0261H2.27342V61.2799H5.8609C6.53271 61.2799 7.08628 61.1664 7.52162 60.9395C7.96233 60.7074 8.29017 60.3882 8.50515 59.9819C8.72551 59.5704 8.83568 59.0981 8.83568 58.5652C8.83568 58.0271 8.72551 57.5575 8.50515 57.1565C8.29017 56.7502 7.96233 56.4363 7.52162 56.2147C7.08091 55.9878 6.52196 55.8744 5.84477 55.8744H3.49074V69.2812H0Z" fill="white"/>
<path d="M29.8708 61.177C29.8708 62.9445 29.5295 64.4482 28.847 65.6881C28.1698 66.928 27.2454 67.8751 26.0737 68.5294C24.9075 69.1783 23.5961 69.5028 22.1396 69.5028C20.6724 69.5028 19.3556 69.1757 18.1893 68.5215C17.0231 67.8672 16.1013 66.9201 15.4242 65.6802C14.747 64.4403 14.4084 62.9392 14.4084 61.177C14.4084 59.4094 14.747 57.9057 15.4242 56.6658C16.1013 55.4259 17.0231 54.4815 18.1893 53.8325C19.3556 53.1782 20.6724 52.8511 22.1396 52.8511C23.5961 52.8511 24.9075 53.1782 26.0737 53.8325C27.2454 54.4815 28.1698 55.4259 28.847 56.6658C29.5295 57.9057 29.8708 59.4094 29.8708 61.177ZM26.3317 61.177C26.3317 60.032 26.157 59.0665 25.8077 58.2803C25.4637 57.4942 24.9773 56.898 24.3485 56.4917C23.7197 56.0854 22.9834 55.8823 22.1396 55.8823C21.2958 55.8823 20.5595 56.0854 19.9307 56.4917C19.3019 56.898 18.8128 57.4942 18.4634 58.2803C18.1195 59.0665 17.9475 60.032 17.9475 61.177C17.9475 62.3219 18.1195 63.2875 18.4634 64.0736C18.8128 64.8598 19.3019 65.456 19.9307 65.8622C20.5595 66.2685 21.2958 66.4716 22.1396 66.4716C22.9834 66.4716 23.7197 66.2685 24.3485 65.8622C24.9773 65.456 25.4637 64.8598 25.8077 64.0736C26.157 63.2875 26.3317 62.3219 26.3317 61.177Z" fill="white"/>
<path d="M41.4132 57.7342C41.3487 57.0958 41.072 56.5999 40.5829 56.2463C40.0938 55.8928 39.43 55.7161 38.5916 55.7161C38.0219 55.7161 37.5409 55.7952 37.1486 55.9535C36.7562 56.1065 36.4553 56.3202 36.2457 56.5946C36.0414 56.8689 35.9393 57.1802 35.9393 57.5285C35.9286 57.8187 35.9904 58.0719 36.1247 58.2882C36.2645 58.5046 36.4553 58.6919 36.6971 58.8502C36.939 59.0032 37.2184 59.1377 37.5355 59.2538C37.8526 59.3646 38.1912 59.4596 38.5513 59.5387L40.0347 59.8869C40.7549 60.0452 41.4159 60.2563 42.0179 60.5201C42.6198 60.7839 43.1411 61.1084 43.5819 61.4935C44.0226 61.8787 44.3638 62.3325 44.6057 62.8548C44.8529 63.3772 44.9792 63.976 44.9846 64.6514C44.9792 65.6433 44.7212 66.5033 44.2107 67.2314C43.7055 67.9543 42.9745 68.5162 42.0179 68.9172C41.0666 69.3129 39.9191 69.5107 38.5755 69.5107C37.2426 69.5107 36.0817 69.3102 35.0928 68.9093C34.1093 68.5083 33.3407 67.9147 32.7872 67.1285C32.239 66.3371 31.9514 65.3584 31.9246 64.1923H35.3024C35.34 64.7358 35.4986 65.1895 35.7781 65.5536C36.0629 65.9124 36.4418 66.1841 36.9148 66.3688C37.3931 66.5481 37.9333 66.6378 38.5352 66.6378C39.1264 66.6378 39.6397 66.5534 40.075 66.3846C40.5157 66.2158 40.857 65.981 41.0988 65.6802C41.3407 65.3795 41.4616 65.0339 41.4616 64.6434C41.4616 64.2794 41.3514 63.9734 41.1311 63.7254C40.9161 63.4774 40.599 63.2663 40.1798 63.0922C39.7659 62.9181 39.2581 62.7598 38.6561 62.6174L36.8583 62.1742C35.4663 61.8418 34.3673 61.3221 33.5611 60.6151C32.7549 59.908 32.3545 58.9557 32.3599 57.758C32.3545 56.7766 32.6206 55.9192 33.158 55.1858C33.7008 54.4524 34.4452 53.88 35.3911 53.4684C36.337 53.0569 37.4119 52.8511 38.6158 52.8511C39.8412 52.8511 40.9107 53.0569 41.8244 53.4684C42.7434 53.88 43.4582 54.4524 43.9688 55.1858C44.4794 55.9192 44.7427 56.7687 44.7589 57.7342H41.4132Z" fill="white"/>
<path d="M54.9832 59.8394V62.5145H47.4535V59.8394H54.9832Z" fill="white"/>
<path d="M60.8199 69.2812H57.0792L62.7789 53.0727H67.2774L72.969 69.2812H69.2283L65.0926 56.7766H64.9636L60.8199 69.2812ZM60.5861 62.9102H69.4218V65.5852H60.5861V62.9102Z" fill="white"/>
<path d="M72.3099 55.8981V53.0727H85.8698V55.8981H80.8151V69.2812H77.3646V55.8981H72.3099Z" fill="white"/>
<path d="M88.1029 53.0727H92.4079L96.9547 63.9628H97.1482L101.695 53.0727H106V69.2812H102.614V58.7314H102.477L98.2043 69.2021H95.8986L91.6259 58.6919H91.4888V69.2812H88.1029V53.0727Z" fill="white"/>
<path d="M5.4901 77.2183H4.35254C4.3201 77.0508 4.26028 76.9025 4.17309 76.7733C4.08589 76.6422 3.97741 76.5312 3.84763 76.4402C3.71786 76.3492 3.56983 76.2809 3.40356 76.2354C3.23931 76.1881 3.06188 76.1644 2.87128 76.1644C2.53264 76.1644 2.23254 76.2408 1.97096 76.3937C1.70938 76.5448 1.50458 76.7669 1.35656 77.06C1.20853 77.3512 1.13452 77.7071 1.13452 78.1275C1.13452 78.5553 1.20853 78.9157 1.35656 79.2088C1.50661 79.5 1.71141 79.7202 1.97096 79.8695C2.23254 80.0169 2.53163 80.0907 2.86824 80.0907C3.05479 80.0907 3.22917 80.0688 3.39139 80.0251C3.55564 79.9796 3.70265 79.9132 3.83243 79.8258C3.96423 79.7384 4.07474 79.6311 4.16396 79.5036C4.25521 79.3762 4.31807 79.2306 4.35254 79.0668L5.4901 79.0722C5.44752 79.338 5.35526 79.5874 5.21331 79.8204C5.0734 80.0534 4.88989 80.259 4.66278 80.4374C4.43568 80.614 4.17004 80.7523 3.86588 80.8524C3.56172 80.9507 3.2241 80.9999 2.85303 80.9999C2.30554 80.9999 1.81685 80.8861 1.38697 80.6586C0.957092 80.4311 0.61846 80.1025 0.371076 79.6729C0.123692 79.2433 0 78.7282 0 78.1275C0 77.525 0.124706 77.0099 0.374118 76.5821C0.623529 76.1526 0.963175 75.824 1.39306 75.5965C1.82294 75.3689 2.30959 75.2552 2.85303 75.2552C3.19977 75.2552 3.52218 75.2989 3.82026 75.3862C4.11834 75.4736 4.38397 75.6019 4.61716 75.7712C4.85035 75.9387 5.04197 76.1444 5.19202 76.3883C5.3441 76.6304 5.44346 76.9071 5.4901 77.2183Z" fill="white"/>
<path d="M6.52349 80.9234V75.3316H10.5749V76.1808H7.65192V77.6989H10.365V78.548H7.65192V80.0743H10.5992V80.9234H6.52349Z" fill="white"/>
<path d="M11.7262 80.9234V75.3316H14.0621C14.5407 75.3316 14.9421 75.4117 15.2666 75.5719C15.5931 75.7321 15.8394 75.9523 16.0057 76.2327C16.174 76.5111 16.2582 76.8279 16.2582 77.1828C16.2582 77.5414 16.174 77.86 16.0057 78.1385C15.8374 78.4169 15.589 78.6363 15.2605 78.7965C14.932 78.9548 14.5275 79.034 14.0469 79.034H12.4987V78.2012H13.8948C14.1746 78.2012 14.4038 78.1576 14.5822 78.0702C14.7607 77.9828 14.8925 77.8627 14.9776 77.7098C15.0648 77.5569 15.1084 77.3812 15.1084 77.1828C15.1084 76.9844 15.0648 76.8097 14.9776 76.6586C14.8925 76.5075 14.7597 76.3901 14.5792 76.3064C14.4007 76.2208 14.1706 76.178 13.8887 76.178H12.8546V80.9234H11.7262Z" fill="white"/>
<path d="M17.2383 80.9234V75.3316H19.6229C20.0731 75.3316 20.4472 75.3953 20.7453 75.5228C21.0454 75.6484 21.2694 75.8204 21.4175 76.0388C21.5675 76.2572 21.6426 76.5048 21.6426 76.7815C21.6426 77.009 21.5939 77.2038 21.4966 77.3658C21.3992 77.5259 21.2684 77.6561 21.1042 77.7562C20.9399 77.8563 20.7564 77.9282 20.5537 77.9719V78.0265C20.7747 78.0374 20.9866 78.0984 21.1894 78.2094C21.3942 78.3187 21.5614 78.4734 21.6912 78.6736C21.821 78.8738 21.8859 79.1159 21.8859 79.3999C21.8859 79.6893 21.8078 79.9496 21.6517 80.1808C21.4955 80.4101 21.2603 80.5912 20.946 80.7241C20.6317 80.857 20.2363 80.9234 19.7598 80.9234H17.2383ZM18.3667 80.077H19.5803C19.9899 80.077 20.285 80.0069 20.4655 79.8668C20.6479 79.7248 20.7392 79.5428 20.7392 79.3207C20.7392 79.1551 20.6936 79.0058 20.6023 78.8729C20.5111 78.7382 20.3813 78.6327 20.213 78.5562C20.0447 78.4779 19.844 78.4388 19.6108 78.4388H18.3667V80.077ZM18.3667 77.7098H19.483C19.6777 77.7098 19.8531 77.6779 20.0092 77.6142C20.1653 77.5487 20.288 77.4568 20.3772 77.3385C20.4685 77.2183 20.5141 77.0763 20.5141 76.9125C20.5141 76.6959 20.429 76.5175 20.2586 76.3774C20.0903 76.2372 19.8399 76.1671 19.5073 76.1671H18.3667V77.7098Z" fill="white"/>
<path d="M22.8676 75.3316H23.9869V79.1432H24.0447L26.9737 75.3316H27.9866V80.9234H26.8582V77.1146H26.8064L23.8682 80.9234H22.8676V75.3316Z" fill="white"/>
<path d="M34.5481 77.2183H33.4105C33.3781 77.0508 33.3183 76.9025 33.2311 76.7733C33.1439 76.6422 33.0354 76.5312 32.9056 76.4402C32.7758 76.3492 32.6278 76.2809 32.4615 76.2354C32.2973 76.1881 32.1199 76.1644 31.9293 76.1644C31.5906 76.1644 31.2905 76.2408 31.029 76.3937C30.7674 76.5448 30.5626 76.7669 30.4145 77.06C30.2665 77.3512 30.1925 77.7071 30.1925 78.1275C30.1925 78.5553 30.2665 78.9157 30.4145 79.2088C30.5646 79.5 30.7694 79.7202 31.029 79.8695C31.2905 80.0169 31.5896 80.0907 31.9262 80.0907C32.1128 80.0907 32.2872 80.0688 32.4494 80.0251C32.6136 79.9796 32.7606 79.9132 32.8904 79.8258C33.0222 79.7384 33.1327 79.6311 33.222 79.5036C33.3132 79.3762 33.3761 79.2306 33.4105 79.0668L34.5481 79.0722C34.5055 79.338 34.4132 79.5874 34.2713 79.8204C34.1314 80.0534 33.9479 80.259 33.7208 80.4374C33.4937 80.614 33.228 80.7523 32.9239 80.8524C32.6197 80.9507 32.2821 80.9999 31.911 80.9999C31.3635 80.9999 30.8748 80.8861 30.445 80.6586C30.0151 80.4311 29.6765 80.1025 29.4291 79.6729C29.1817 79.2433 29.058 78.7282 29.058 78.1275C29.058 77.525 29.1827 77.0099 29.4321 76.5821C29.6815 76.1526 30.0212 75.824 30.451 75.5965C30.8809 75.3689 31.3676 75.2552 31.911 75.2552C32.2578 75.2552 32.5802 75.2989 32.8783 75.3862C33.1763 75.4736 33.442 75.6019 33.6752 75.7712C33.9083 75.9387 34.1 76.1444 34.25 76.3883C34.4021 76.6304 34.5015 76.9071 34.5481 77.2183Z" fill="white"/>
<path d="M35.5815 80.9234V75.3316H36.7099V77.6989H39.5964V75.3316H40.7279V80.9234H39.5964V78.548H36.7099V80.9234H35.5815Z" fill="white"/>
<path d="M42.7551 80.9234H41.5506L43.7436 75.3316H45.1367L47.3327 80.9234H46.1283L44.4645 76.4784H44.4158L42.7551 80.9234ZM42.7947 78.7309H46.0796V79.5446H42.7947V78.7309Z" fill="white"/>
<path d="M52.7521 80.9234H51.6206V76.178H50.5865C50.3067 76.178 50.0765 76.2154 49.896 76.29C49.7176 76.3628 49.5848 76.4702 49.4976 76.6122C49.4124 76.7523 49.3698 76.9216 49.3698 77.12C49.3698 77.3184 49.4124 77.4859 49.4976 77.6224C49.5828 77.7571 49.7146 77.86 49.893 77.9309C50.0735 78.0001 50.3026 78.0347 50.5804 78.0347H52.0951V78.8757H50.4283C49.9498 78.8757 49.5463 78.8047 49.2178 78.6627C48.8893 78.5189 48.6399 78.3159 48.4695 78.0538C48.3012 77.7899 48.2171 77.4786 48.2171 77.12C48.2171 76.7633 48.3002 76.4511 48.4665 76.1835C48.6348 75.9141 48.8822 75.7048 49.2086 75.5555C49.5351 75.4063 49.9366 75.3316 50.4131 75.3316H52.7521V80.9234ZM49.5311 78.3896H50.7629L49.2482 80.9234H47.989L49.5311 78.3896Z" fill="white"/>
<path d="M59.8315 80.9234L57.7814 78.4798H57.2278V80.9234H56.0994V75.3316H57.2278V77.6306H57.5107L59.725 75.3316H61.115L58.6544 77.8818L61.2215 80.9234H59.8315Z" fill="white"/>
<path d="M67.2195 78.1275C67.2195 78.73 67.0938 79.2461 66.8424 79.6757C66.5929 80.1034 66.2523 80.4311 65.8204 80.6586C65.3905 80.8861 64.9028 80.9999 64.3574 80.9999C63.8119 80.9999 63.3232 80.8861 62.8913 80.6586C62.4614 80.4292 62.1208 80.1007 61.8693 79.6729C61.6199 79.2433 61.4952 78.7282 61.4952 78.1275C61.4952 77.525 61.6199 77.0099 61.8693 76.5821C62.1208 76.1526 62.4614 75.824 62.8913 75.5965C63.3232 75.3689 63.8119 75.2552 64.3574 75.2552C64.9028 75.2552 65.3905 75.3689 65.8204 75.5965C66.2523 75.824 66.5929 76.1526 66.8424 76.5821C67.0938 77.0099 67.2195 77.525 67.2195 78.1275ZM66.085 78.1275C66.085 77.7034 66.011 77.3457 65.863 77.0545C65.717 76.7614 65.5142 76.5403 65.2546 76.391C64.9951 76.2399 64.696 76.1644 64.3574 76.1644C64.0187 76.1644 63.7196 76.2399 63.4601 76.391C63.2005 76.5403 62.9968 76.7614 62.8487 77.0545C62.7027 77.3457 62.6297 77.7034 62.6297 78.1275C62.6297 78.5517 62.7027 78.9102 62.8487 79.2033C62.9968 79.4945 63.2005 79.7157 63.4601 79.8668C63.7196 80.016 64.0187 80.0907 64.3574 80.0907C64.696 80.0907 64.9951 80.016 65.2546 79.8668C65.5142 79.7157 65.717 79.4945 65.863 79.2033C66.011 78.9102 66.085 78.5517 66.085 78.1275Z" fill="white"/>
<path d="M68.2864 75.3316H69.6672L71.5165 79.3835H71.5895L73.4388 75.3316H74.8197V80.9234H73.7369V77.0818H73.6791L71.9576 80.9071H71.1485L69.427 77.0736H69.3692V80.9234H68.2864V75.3316Z" fill="white"/>
<path d="M81.1311 75.3316V80.9234H80.0117V76.1726H77.2865V80.9234H76.1672V75.3316H81.1311Z" fill="white"/>
<path d="M83.2807 80.9234H82.0762L84.2692 75.3316H85.6623L87.8583 80.9234H86.6539L84.9901 76.4784H84.9414L83.2807 80.9234ZM83.3203 78.7309H86.6052V79.5446H83.3203V78.7309Z" fill="white"/>
<path d="M88.6788 80.9234V75.3316H89.8072V77.6989H92.6937V75.3316H93.8252V80.9234H92.6937V78.548H89.8072V80.9234H88.6788Z" fill="white"/>
<path d="M95.0525 75.3316H96.1718V79.1432H96.2296L99.1587 75.3316H100.172V80.9234H99.0431V77.1146H98.9914L96.0532 80.9234H95.0525V75.3316Z" fill="white"/>
<path d="M106 80.9234H104.869V76.178H103.834C103.555 76.178 103.324 76.2154 103.144 76.29C102.965 76.3628 102.833 76.4702 102.745 76.6122C102.66 76.7523 102.618 76.9216 102.618 77.12C102.618 77.3184 102.66 77.4859 102.745 77.6224C102.831 77.7571 102.962 77.86 103.141 77.9309C103.321 78.0001 103.55 78.0347 103.828 78.0347H105.343V78.8757H103.676C103.198 78.8757 102.794 78.8047 102.466 78.6627C102.137 78.5189 101.888 78.3159 101.717 78.0538C101.549 77.7899 101.465 77.4786 101.465 77.12C101.465 76.7633 101.548 76.4511 101.714 76.1835C101.883 75.9141 102.13 75.7048 102.457 75.5555C102.783 75.4063 103.184 75.3316 103.661 75.3316H106V80.9234ZM102.779 78.3896H104.011L102.496 80.9234H101.237L102.779 78.3896Z" fill="white"/>
</svg>
