<svg width="25" height="26" viewBox="0 0 25 26" fill="none" xmlns="http://www.w3.org/2000/svg">
<path d="M17.274 15.758C16.768 15.2585 16.1364 15.2585 15.6336 15.758C15.2501 16.1383 14.8666 16.5186 14.4896 16.9053C14.3864 17.0116 14.2994 17.0342 14.1737 16.9633C13.9256 16.8279 13.6613 16.7184 13.4229 16.5701C12.311 15.8708 11.3797 14.9717 10.5547 13.9598C10.1454 13.457 9.78126 12.9188 9.52666 12.313C9.4751 12.1905 9.48477 12.1099 9.58467 12.01C9.96817 11.6394 10.342 11.2592 10.7191 10.8789C11.2443 10.3504 11.2443 9.73161 10.7158 9.19987C10.4161 8.89694 10.1164 8.60046 9.8167 8.29753C9.50733 7.98815 9.20118 7.67555 8.88858 7.3694C8.38262 6.87633 7.75098 6.87633 7.24824 7.37262C6.86152 7.7529 6.49091 8.14284 6.09775 8.51667C5.73359 8.86149 5.5499 9.28366 5.51122 9.77673C5.44999 10.5792 5.64658 11.3365 5.92372 12.0745C6.49091 13.602 7.35459 14.9588 8.40195 16.2027C9.8167 17.885 11.5054 19.2159 13.4809 20.1763C14.3703 20.6081 15.292 20.9401 16.2943 20.9948C16.9839 21.0335 17.5833 20.8595 18.0635 20.3213C18.3922 19.9539 18.7628 19.6188 19.1109 19.2675C19.6265 18.7454 19.6297 18.1138 19.1173 17.5981C18.505 16.9826 17.8895 16.3703 17.274 15.758Z" fill="#ACB7C1"/>
</svg>
