<svg width="24" height="24" viewBox="0 0 24 24" fill="none" xmlns="http://www.w3.org/2000/svg">
<path fill-rule="evenodd" clip-rule="evenodd" d="M1.25 7C1.25 3.82436 3.82436 1.25 7 1.25H17C20.1756 1.25 22.75 3.82436 22.75 7V17C22.75 20.1756 20.1756 22.75 17 22.75H7C3.82436 22.75 1.25 20.1756 1.25 17V7ZM7 2.75C4.65279 2.75 2.75 4.65279 2.75 7V17C2.75 19.3472 4.65279 21.25 7 21.25H17C19.3472 21.25 21.25 19.3472 21.25 17V7C21.25 4.65279 19.3472 2.75 17 2.75H7ZM12 6.25C12.4142 6.25 12.75 6.58579 12.75 7V11.625L16.45 14.4C16.7814 14.6485 16.8485 15.1186 16.6 15.45C16.3515 15.7814 15.8814 15.8485 15.55 15.6L11.75 12.75C11.4352 12.5139 11.25 12.1434 11.25 11.75V7C11.25 6.58579 11.5858 6.25 12 6.25Z" fill="#167FE1"/>
</svg>
