<svg width="10" height="10" viewBox="0 0 10 10" fill="none" xmlns="http://www.w3.org/2000/svg">
<path fill-rule="evenodd" clip-rule="evenodd" d="M9.59619 0.403812C9.94632 0.753937 9.94632 1.3216 9.59619 1.67173L6.26792 5.00001L9.59619 8.32828C9.94632 8.67841 9.94632 9.24607 9.59619 9.5962C9.24607 9.94632 8.6784 9.94632 8.32828 9.5962L5 6.26792L1.67172 9.5962C1.3216 9.94632 0.753931 9.94632 0.403806 9.5962C0.0536807 9.24607 0.0536813 8.67841 0.403806 8.32828L3.73208 5.00001L0.403806 1.67173C0.0536808 1.3216 0.0536807 0.753937 0.403806 0.403811C0.753931 0.0536859 1.3216 0.053686 1.67172 0.403811L5 3.73209L8.32828 0.403812C8.6784 0.0536864 9.24607 0.0536862 9.59619 0.403812Z" fill="#ACB7C1"/>
</svg>
