<svg width="24" height="24" viewBox="0 0 24 24" fill="none" xmlns="http://www.w3.org/2000/svg">
<path fill-rule="evenodd" clip-rule="evenodd" d="M4.5377 3.12091C5.73483 1.92378 7.6737 1.97934 8.86772 3.17336L10.8608 5.16645C12.0548 6.36047 12.1104 8.29935 10.9133 9.49648L10.6369 9.77286C10.4286 9.98109 10.4062 10.3187 10.6041 10.5586C11.0213 11.0641 11.4687 11.5648 11.9518 12.0479C12.4348 12.5309 12.9356 12.9784 13.441 13.3955C13.6809 13.5934 14.0185 13.571 14.2268 13.3627L14.5031 13.0864C15.7003 11.8892 17.6391 11.9448 18.8332 13.1388L20.8263 15.1319C22.0203 16.3259 22.0758 18.2648 20.8787 19.4619L19.5919 20.7487C18.2842 22.0564 16.1448 21.9506 14.0633 21.1869C11.9169 20.3993 9.52139 18.816 7.3525 16.6471C5.1836 14.4782 3.6003 12.0828 2.81274 9.93628C2.04903 7.85479 1.94321 5.7154 3.25093 4.40768L4.5377 3.12091ZM7.80706 4.23402C7.16649 3.59345 6.17788 3.60205 5.59836 4.18157L4.31159 5.46834C4.31159 5.46834 4.31159 5.46834 4.31159 5.46834C3.66499 6.11494 3.50019 7.45517 4.22095 9.4196C4.91787 11.319 6.3625 13.5358 8.41316 15.5865C10.4638 17.6371 12.6806 19.0818 14.58 19.7787C16.5444 20.4994 17.8847 20.3346 18.5313 19.688L19.818 18.4013C20.3976 17.8217 20.4062 16.8331 19.7656 16.1926L17.7725 14.1995C17.1319 13.5589 16.1433 13.5675 15.5638 14.147L15.2874 14.4234C14.5364 15.1744 13.3266 15.2458 12.4863 14.5524C11.95 14.1098 11.413 13.6304 10.8911 13.1085C10.3692 12.5866 9.88978 12.0496 9.44719 11.5133C8.7538 10.673 8.82521 9.46321 9.57622 8.7122L9.8526 8.43582C10.4321 7.8563 10.4407 6.86768 9.80015 6.22711L7.80706 4.23402Z" fill="#167FE1"/>
</svg>
