<svg width="14" height="14" viewBox="0 0 14 14" fill="none" xmlns="http://www.w3.org/2000/svg">
<path fill-rule="evenodd" clip-rule="evenodd" d="M7 0.5C7.49515 0.5 7.89655 0.9014 7.89655 1.39655V6.10345H12.6034C13.0986 6.10345 13.5 6.50485 13.5 7C13.5 7.49515 13.0986 7.89655 12.6034 7.89655H7.89655V12.6034C7.89655 13.0986 7.49515 13.5 7 13.5C6.50485 13.5 6.10345 13.0986 6.10345 12.6034V7.89655H1.39655C0.9014 7.89655 0.5 7.49515 0.5 7C0.5 6.50485 0.9014 6.10345 1.39655 6.10345H6.10345V1.39655C6.10345 0.9014 6.50485 0.5 7 0.5Z" fill="#ACB7C1"/>
</svg>
