<svg width="23" height="15" viewBox="0 0 23 15" fill="none" xmlns="http://www.w3.org/2000/svg">
<path d="M0.853372 0C0.123245 0 0 0.373437 0 0.773438C0 1.49544 0.573945 5.393 3.71291 9.875C5.98761 13.127 8.98615 15 11.6403 15C13.2481 15 13.4144 14.5723 13.4144 13.9062V10.9336C13.4144 10.1316 13.5914 10 14.1031 10C14.4691 10 15.211 10.25 16.6482 12C18.3059 14.018 18.6059 15 19.5564 15H22.0679C22.6505 15 22.9864 14.746 22.9999 14.25C23.0018 14.124 22.984 13.9802 22.9437 13.8242C22.7578 13.2482 21.9075 11.842 20.844 10.5C20.2537 9.756 19.6731 9.01909 19.4067 8.62109C19.2247 8.35909 19.1558 8.176 19.1634 8C19.1711 7.816 19.2631 7.63662 19.403 7.39062C19.3781 7.39062 22.62 2.64297 22.9362 1.04297C22.9803 0.890969 23.0019 0.749 22.9961 0.625C22.9808 0.263 22.7417 0 22.1802 0H19.6725C19.0401 0 18.7464 0.398781 18.5758 0.800781C18.5758 0.800781 17.0143 4.159 15.211 6.375C14.6265 7.015 14.3295 7 14.0133 7C13.8446 7 13.4144 6.78722 13.4144 6.19922V1.01562C13.4144 0.321625 13.2511 0 12.7145 0H8.26049C7.86955 0 7.66537 0.318625 7.66537 0.640625C7.66537 1.30663 8.52581 1.46984 8.62354 3.33984V6.96094C8.62354 7.84094 8.47937 8 8.16317 8C7.3104 8 5.63129 4.99841 4.5064 1.06641C4.26303 0.292406 4.01968 0 3.38729 0H0.853372Z" fill="white"/>
</svg>
